<svg width="1366" height="510" viewBox="0 0 1366 510" fill="none" xmlns="http://www.w3.org/2000/svg">
<path d="M-45.4747 58.9787C-16.3247 94.3879 16.8143 127.073 57.0106 146.442C111.475 172.621 183.89 170.2 227.615 121.172C277.937 64.7289 306.934 8.43739 387.787 1.17397C444.859 -3.97095 512.518 20.5431 543.816 72.9003C562.38 103.921 572.659 140.087 588.155 173.075C625.129 252.367 687.879 271.282 761.367 228.912C796.501 208.635 836.237 185.332 873.211 198.8C921.693 216.504 940.103 289.895 990.579 300.336C1018.19 306.086 1045.66 290.5 1072.05 279.151C1134.95 252.216 1161.18 310.929 1218.26 303.514C1232.52 301.698 1245.56 293.224 1259.53 289.29C1273.95 285.204 1302.33 289.29 1297.42 311.534" stroke="white" stroke-opacity="0.16" stroke-width="1.0073" stroke-miterlimit="10" stroke-linecap="round" stroke-linejoin="round"/>
<path d="M-42.8666 77.1374C-13.87 112.395 20.0361 143.265 60.3858 160.515C89.3824 172.924 122.982 177.463 154.433 171.713C182.202 166.568 208.591 153.555 229.149 131.159C266.891 89.8484 293.279 48.5377 337.311 26.5961C351.886 19.3327 368.609 14.1877 388.094 11.7666C444.553 4.80581 511.137 26.1421 544.276 75.9268C564.068 105.737 575.574 141.298 591.53 174.286C599.661 191.234 608.867 205.76 619.146 217.563C655.507 259.631 703.681 264.624 762.441 238.446C781.005 230.123 800.643 218.623 820.281 210.149C845.749 199.102 872.751 195.017 898.066 204.096C943.939 220.893 962.349 288.533 1010.06 298.974C1036.14 304.725 1062.07 290.954 1087.08 280.967C1146.3 257.21 1171.77 310.929 1225.62 303.514C1239.12 301.698 1251.39 293.678 1264.59 289.744C1278.24 285.809 1304.48 288.987 1300.49 308.659" stroke="white" stroke-opacity="0.16" stroke-width="1.0073" stroke-miterlimit="10" stroke-linecap="round" stroke-linejoin="round"/>
<path d="M-40.2608 95.1452C-11.571 130.252 23.1022 159.154 63.6054 174.589C92.602 185.635 125.741 188.813 156.732 182.306C184.041 176.556 209.816 163.24 230.374 141.45C267.809 101.501 294.965 60.9466 338.383 38.3998C352.804 30.8337 369.22 25.3861 388.245 22.511C444.09 13.8857 509.754 31.7417 544.427 78.9539C565.446 107.554 578.18 142.509 594.75 175.497C603.034 192.293 612.24 206.82 622.212 218.775C657.959 261.296 704.292 268.408 763.053 247.828C785.299 239.96 808.312 226.341 831.325 216.051C860.935 202.886 893 198.649 922.611 209.393C965.722 224.979 984.286 287.172 1029.24 297.613C1053.79 303.212 1078.18 291.56 1101.65 282.935C1157.04 262.507 1182.05 311.081 1232.37 303.666C1245.1 301.85 1256.61 294.435 1269.04 290.501C1281.92 286.567 1306.16 288.988 1302.94 306.087" stroke="white" stroke-opacity="0.16" stroke-width="1.0073" stroke-miterlimit="10" stroke-linecap="round" stroke-linejoin="round"/>
<path d="M-37.6508 113.304C-9.11441 148.259 26.3259 175.194 66.9825 188.662C95.9791 198.195 128.658 200.162 159.035 192.747C185.884 186.24 211.198 172.773 231.757 151.437C269.038 112.698 296.961 72.9008 339.612 50.0513C353.88 42.334 369.989 36.5837 388.4 33.1033C443.785 22.6622 508.222 37.189 544.736 81.9801C566.982 109.369 581.097 143.568 597.973 176.556C606.411 193.05 615.463 207.728 625.436 219.985C660.262 263.112 705.675 273.099 763.975 257.059C790.057 249.947 816.292 233.755 842.68 221.65C876.433 206.215 913.407 202.129 947.467 214.235C987.817 228.762 1006.53 285.356 1048.72 295.797C1071.58 301.396 1094.6 291.711 1116.54 284.448C1168.09 267.349 1192.48 310.626 1239.58 303.363C1251.39 301.547 1262.29 294.586 1273.95 290.803C1285.91 286.869 1308.16 288.534 1305.86 303.06" stroke="white" stroke-opacity="0.16" stroke-width="1.0073" stroke-miterlimit="10" stroke-linecap="round" stroke-linejoin="round"/>
<path d="M-35.0433 131.462C-6.66035 166.114 29.3936 191.385 70.2037 202.885C99.2003 211.057 131.572 211.662 161.336 203.339C187.724 196.076 212.579 182.306 233.137 161.575C270.265 124.047 298.801 85.1574 340.839 61.7026C354.953 53.6826 370.756 47.6298 388.706 43.6954C443.478 31.2871 506.994 42.6362 545.042 84.8548C568.516 110.882 583.858 144.627 601.348 177.615C609.94 193.957 618.991 208.636 628.81 221.195C662.87 264.927 707.515 278.546 764.895 266.44C794.965 260.085 824.422 241.472 854.033 227.551C891.774 209.997 933.965 205.912 972.32 219.531C1010.06 232.998 1028.78 283.994 1068.21 294.435C1089.53 300.034 1111.01 292.316 1131.57 286.263C1179.29 272.493 1203.22 310.626 1246.79 303.363C1257.84 301.547 1268.12 295.04 1278.86 291.257C1290.06 287.323 1310.15 288.231 1308.93 300.185" stroke="white" stroke-opacity="0.16" stroke-width="1.0073" stroke-miterlimit="10" stroke-linecap="round" stroke-linejoin="round"/>
<path d="M-32.4331 149.469C-4.2036 183.97 32.6175 207.274 73.5809 216.807C102.578 223.465 134.489 222.709 163.639 213.781C189.567 205.761 213.808 191.839 234.366 171.713C271.187 135.396 300.491 97.4147 341.761 73.506C355.723 65.3346 371.218 58.9791 388.708 54.2882C443.019 40.064 505.462 48.084 545.198 87.7302C570.052 112.547 586.621 145.686 604.418 178.674C613.163 194.714 622.215 209.544 631.881 222.406C665.327 266.592 709.052 284.448 765.664 275.822C799.723 270.678 832.249 249.039 865.234 233.453C907.118 213.629 954.372 209.544 997.023 224.676C1032 237.084 1050.87 282.481 1087.39 293.073C1107.18 298.672 1126.97 292.77 1146.15 288.231C1190.03 277.79 1213.35 310.778 1253.7 303.514C1263.98 301.698 1273.49 295.797 1283.46 292.014C1293.89 288.08 1311.84 288.231 1311.54 297.613" stroke="white" stroke-opacity="0.16" stroke-width="1.0073" stroke-miterlimit="10" stroke-linecap="round" stroke-linejoin="round"/>
<path d="M-29.825 167.628C-1.74887 201.978 35.6859 223.466 76.9562 231.032C105.953 236.328 137.404 234.209 166.094 224.373C191.562 215.597 215.342 201.373 235.901 181.852C272.568 146.746 302.639 109.672 343.142 85.1579C356.95 76.8352 372.139 70.0258 389.168 64.8809C442.866 48.6895 504.388 53.5318 545.658 90.7568C571.74 114.363 589.536 146.897 607.947 179.734C616.845 195.471 625.744 210.452 635.409 223.617C668.088 268.408 711.2 279.152 766.738 285.205C804.786 289.29 840.38 256.756 876.741 239.354C922.614 217.413 974.931 213.327 1022.03 229.972C1054.25 241.321 1073.27 281.119 1107.03 291.711C1125.28 297.31 1143.54 293.376 1161.34 290.198C1201.23 282.935 1224.24 310.929 1261.06 303.666C1270.42 301.85 1279.32 296.402 1288.52 292.771C1298.04 288.836 1313.99 288.231 1314.61 295.04" stroke="white" stroke-opacity="0.16" stroke-width="1.0073" stroke-miterlimit="10" stroke-linecap="round" stroke-linejoin="round"/>
<path d="M-27.0628 185.786C0.859856 219.984 39.0617 239.656 80.332 245.104C109.329 249.038 140.473 245.558 168.396 234.965C193.403 225.432 216.724 211.056 237.282 191.99C273.796 158.094 304.48 121.928 344.37 96.9602C358.024 88.3349 373.06 81.2228 389.322 75.6239C442.406 57.4654 503.007 58.9786 545.965 93.7825C573.428 116.027 592.299 148.107 611.169 180.944C620.068 196.53 629.12 211.359 638.632 224.978C670.543 270.223 713.348 287.625 767.659 294.737C809.543 300.185 848.359 264.473 888.095 245.255C938.11 221.044 995.49 217.109 1046.73 235.268C1076.19 245.709 1095.37 279.756 1126.36 290.349C1143.08 295.948 1159.8 293.98 1176.07 292.013C1212.12 287.928 1234.52 310.928 1268.12 303.665C1276.71 301.698 1284.84 297.007 1293.28 293.375C1302.03 289.592 1315.83 287.928 1317.37 292.316" stroke="white" stroke-opacity="0.16" stroke-width="1.0073" stroke-miterlimit="10" stroke-linecap="round" stroke-linejoin="round"/>
<path d="M-24.4564 203.794C3.31282 237.841 42.1284 255.697 83.7055 259.177C112.702 261.598 143.386 256.908 170.849 245.407C195.396 235.269 218.103 220.439 238.661 202.129C275.022 169.444 306.473 134.186 345.596 108.613C359.097 99.8361 373.825 92.27 389.627 86.2172C442.097 66.0914 501.932 64.4269 546.27 96.8097C574.96 117.692 595.058 149.318 614.543 182.003C623.595 197.438 632.647 212.268 642.005 226.038C673.303 271.737 715.341 296.402 768.578 303.968C814.297 310.324 856.335 272.04 899.293 251.006C953.45 224.676 1015.74 220.742 1071.43 240.262C1098.13 249.644 1117.46 278.092 1145.69 288.685C1160.88 294.284 1176.06 294.133 1190.95 293.679C1223.01 292.771 1245.1 310.627 1275.17 303.514C1283 301.547 1290.36 297.31 1298.03 293.679C1306.01 289.896 1317.67 287.474 1320.28 289.29" stroke="white" stroke-opacity="0.16" stroke-width="1.0073" stroke-miterlimit="10" stroke-linecap="round" stroke-linejoin="round"/>
<path d="M-21.8485 221.952C5.61388 255.848 45.35 271.888 86.9271 273.249C115.924 274.309 146.148 268.256 173.15 255.999C197.237 245.104 219.483 230.123 240.041 212.267C276.095 180.792 308.314 146.291 346.823 120.264C360.17 111.184 374.592 103.316 389.934 96.8089C441.79 74.5647 500.704 69.7224 546.73 99.684C576.801 119.356 597.973 150.377 617.918 183.062C627.123 198.194 636.022 213.175 645.38 227.248C675.911 273.401 716.875 305.784 769.651 313.198C819.36 320.31 864.466 279.454 910.799 256.756C968.946 228.156 1036.45 224.373 1096.44 245.406C1120.53 253.729 1139.86 276.73 1165.32 287.171C1178.83 292.77 1192.48 294.434 1205.98 295.494C1234.21 297.612 1255.84 310.626 1282.54 303.514C1289.44 301.547 1296.19 297.915 1303.1 294.283C1310.31 290.5 1319.82 287.322 1323.35 286.717" stroke="white" stroke-opacity="0.16" stroke-width="1.0073" stroke-miterlimit="10" stroke-linecap="round" stroke-linejoin="round"/>
<path d="M-19.2388 240.11C8.0702 273.854 48.42 287.927 90.304 287.473C119.301 287.171 149.218 279.605 175.453 266.591C199.08 254.939 220.865 239.656 241.424 222.405C277.324 192.141 310.157 158.548 348.052 132.066C361.092 122.836 375.361 114.513 390.242 107.552C441.485 83.3409 499.632 75.1695 547.039 102.71C578.337 121.02 600.736 151.587 621.295 184.272C630.653 199.102 639.552 214.234 648.757 228.609C678.521 275.368 717.95 318.191 770.727 322.731C824.731 327.422 872.599 287.322 922.307 262.657C984.596 231.938 1057.01 228.307 1121.45 250.551C1142.77 257.966 1162.26 275.216 1184.96 285.657C1196.93 291.256 1209.05 294.737 1221.17 297.158C1245.41 302.151 1266.58 310.474 1289.9 303.362C1296.04 301.395 1302.02 298.217 1308.16 294.737C1314.45 290.954 1321.97 287.019 1326.42 283.842" stroke="white" stroke-opacity="0.16" stroke-width="1.0073" stroke-miterlimit="10" stroke-linecap="round" stroke-linejoin="round"/>
<path d="M-16.6328 258.116C29.2401 314.71 114.696 310.927 177.752 277.031C240.808 243.135 290.67 186.239 349.123 143.717C407.577 101.196 484.287 73.2016 547.19 105.584C594.597 130.098 622.673 182.456 651.823 229.668C680.973 276.88 719.022 325.151 771.338 331.961C829.025 339.527 880.268 294.887 933.351 268.406C999.629 235.418 1077.11 231.938 1145.99 255.695C1203.22 275.367 1270.42 344.521 1329.02 280.966" stroke="white" stroke-opacity="0.16" stroke-width="1.0073" stroke-miterlimit="10" stroke-linecap="round" stroke-linejoin="round"/>
<path d="M-14.7896 268.861C36.6065 328.482 128.813 324.245 196.471 285.809C256.766 251.459 305.247 196.681 362.32 156.127C421.08 114.362 497.177 91.5126 558.546 125.711C605.186 152.041 634.182 203.036 665.787 244.347C697.085 285.355 734.366 325.758 785.149 328.784C840.841 332.113 891.009 288.23 943.633 263.414C1008.38 232.847 1082.94 231.636 1149.37 255.242C1205.06 275.065 1277.63 346.489 1332.4 279.605" stroke="white" stroke-opacity="0.16" stroke-width="1.0073" stroke-miterlimit="10" stroke-linecap="round" stroke-linejoin="round"/>
<path d="M-12.9504 279.606C43.9688 342.404 143.079 337.562 215.033 294.587C272.72 260.085 319.513 206.972 375.205 168.385C434.426 127.528 509.909 109.521 569.59 145.687C615.463 173.53 645.073 223.163 679.593 258.875C713.039 293.527 749.553 326.364 798.801 325.456C852.345 324.397 901.593 281.573 953.757 258.421C1016.81 230.275 1088.61 231.486 1152.74 254.94C1206.75 274.915 1284.69 348.608 1335.78 278.244" stroke="white" stroke-opacity="0.16" stroke-width="1.0073" stroke-miterlimit="10" stroke-linecap="round" stroke-linejoin="round"/>
<path d="M-11.262 290.198C51.1805 356.023 157.194 351.029 233.598 303.06C288.676 268.559 333.936 216.958 388.247 180.49C447.774 140.39 522.797 127.528 580.79 165.509C625.896 195.168 655.967 243.137 693.402 273.25C728.688 301.547 764.742 326.818 812.456 321.975C863.852 316.83 912.18 274.763 963.883 253.124C1025.4 227.4 1094.29 230.88 1156.12 254.335C1208.59 274.309 1291.74 350.575 1339.15 276.73" stroke="white" stroke-opacity="0.16" stroke-width="1.0073" stroke-miterlimit="10" stroke-linecap="round" stroke-linejoin="round"/>
<path d="M-9.41919 300.943C58.5464 369.794 171.464 364.649 252.164 311.838C304.787 277.337 348.359 227.401 401.289 192.899C461.277 153.707 535.533 145.838 591.839 185.636C636.177 216.959 666.401 263.566 707.211 287.929C744.186 310.022 779.933 327.575 826.113 318.799C875.514 309.417 922.768 268.106 974.011 248.132C1033.85 224.828 1099.82 230.578 1159.34 253.882C1210.28 274.007 1298.65 352.543 1342.38 275.218" stroke="white" stroke-opacity="0.16" stroke-width="1.0073" stroke-miterlimit="10" stroke-linecap="round" stroke-linejoin="round"/>
<path d="M-7.57971 311.686C65.9091 383.563 185.884 378.569 270.88 320.613C321.049 286.415 362.933 237.841 414.329 205.155C474.623 166.871 548.419 164.147 603.037 205.609C646.608 238.749 676.832 283.842 721.018 302.455C759.373 318.495 795.12 328.18 839.766 315.317C887.019 301.85 933.353 261.296 984.288 242.986C1042.44 222.103 1105.64 230.275 1162.87 253.427C1212.27 273.704 1305.86 354.509 1345.9 273.855" stroke="white" stroke-opacity="0.16" stroke-width="1.0073" stroke-miterlimit="10" stroke-linecap="round" stroke-linejoin="round"/>
<path d="M-5.74005 322.429C73.2719 397.485 200.305 392.491 289.442 329.39C337.31 295.494 377.353 248.282 427.368 217.564C488.123 180.187 561.151 182.457 614.235 225.735C657.04 260.69 686.957 304.725 734.977 316.982C774.56 327.12 810.461 328.936 853.572 311.988C898.678 294.435 943.937 254.486 994.566 237.841C1051.03 219.228 1111.47 229.669 1166.24 252.822C1214.11 273.099 1312.92 356.325 1349.28 272.191" stroke="white" stroke-opacity="0.16" stroke-width="1.0073" stroke-miterlimit="10" stroke-linecap="round" stroke-linejoin="round"/>
<path d="M-3.89722 333.021C80.6379 411.103 215.035 406.563 308.008 338.015C353.574 304.573 391.929 258.571 440.411 229.82C501.626 193.503 573.887 200.766 625.437 245.709C667.474 282.48 697.238 325.758 748.787 331.508C789.597 336.199 825.651 329.692 867.228 308.658C910.186 287.019 954.525 247.676 1004.69 232.695C1059.47 216.352 1117.15 229.215 1169.62 252.367C1215.95 272.795 1320.13 358.443 1352.65 270.828" stroke="white" stroke-opacity="0.16" stroke-width="1.0073" stroke-miterlimit="10" stroke-linecap="round" stroke-linejoin="round"/>
<path d="M-2.21094 343.765C87.8473 424.873 229.609 420.788 326.571 346.64C369.836 313.652 406.35 268.861 453.297 241.926C514.972 206.517 586.466 218.925 636.482 265.683C677.752 304.27 707.362 342.1 762.594 346.035C804.478 349.061 840.839 330.449 880.882 305.329C921.845 279.605 965.11 240.715 1014.82 227.55C1067.75 213.477 1122.67 228.912 1172.84 251.913C1217.64 272.493 1327.03 360.41 1355.87 269.315" stroke="white" stroke-opacity="0.16" stroke-width="1.0073" stroke-miterlimit="10" stroke-linecap="round" stroke-linejoin="round"/>
<path d="M-0.36969 354.51C95.2117 438.644 244.491 435.315 345.135 355.418C386.098 322.884 420.925 279.455 466.338 254.335C528.627 219.985 599.2 237.387 647.682 285.81C688.031 326.213 717.795 368.734 776.555 360.714C820.127 354.813 856.181 331.358 894.536 302.153C933.505 272.494 975.543 234.058 1024.94 222.709C1076.19 210.906 1128.35 228.913 1176.22 251.611C1219.48 272.342 1334.09 362.53 1359.25 268.105" stroke="white" stroke-opacity="0.16" stroke-width="1.0073" stroke-miterlimit="10" stroke-linecap="round" stroke-linejoin="round"/>
<path d="M1.47156 365.102C102.576 452.263 259.679 449.842 363.852 364.043C402.668 331.963 435.5 289.896 479.532 266.592C542.281 233.302 611.935 255.697 659.035 305.784C698.464 348.154 728.535 390.373 790.517 375.241C835.623 364.194 871.677 332.266 908.344 298.824C945.319 265.23 986.282 227.097 1035.22 217.564C1084.78 207.88 1134.03 228.459 1179.75 251.157C1221.32 272.04 1341.3 364.497 1362.78 266.744" stroke="white" stroke-opacity="0.16" stroke-width="1.0073" stroke-miterlimit="10" stroke-linecap="round" stroke-linejoin="round"/>
<path d="M3.31268 375.845C109.94 466.183 275.022 464.821 382.417 372.818C419.238 341.343 450.075 300.335 492.42 278.848C555.629 246.767 624.669 273.854 670.081 325.757C708.743 369.792 739.274 412.01 804.325 389.766C851.272 373.575 887.019 333.021 921.999 295.493C956.979 257.965 996.715 220.135 1045.35 212.418C1093.22 204.852 1139.7 228.004 1182.97 250.551C1223.01 271.433 1348.2 366.463 1366 265.077" stroke="white" stroke-opacity="0.16" stroke-width="1.0073" stroke-miterlimit="10" stroke-linecap="round" stroke-linejoin="round"/>
<path d="M-16.7856 360.865C44.8897 412.314 128.197 435.769 205.982 425.026C265.203 416.854 322.736 393.702 369.989 361.319C381.342 353.45 392.082 345.128 402.821 336.957C427.369 318.041 450.535 298.975 479.225 288.382C487.817 285.205 496.408 282.935 505.307 281.724C559.464 274.158 616.384 301.245 657.807 342.253C668.547 352.845 678.826 363.135 689.259 372.214C718.562 397.788 748.94 413.676 796.654 396.577C829.332 384.774 856.948 361.924 882.877 336.503C894.537 325.002 905.736 313.048 916.936 301.245C952.837 263.566 992.726 225.13 1040.75 214.386C1053.94 211.36 1067.14 210.755 1080.18 211.511C1101.66 212.873 1122.83 218.472 1143.85 226.189C1155.51 230.578 1167.17 235.874 1178.37 241.473C1195.55 250.098 1224.85 271.132 1254.77 286.869C1300.49 310.778 1350.04 323.943 1364.16 266.289" stroke="white" stroke-opacity="0.16" stroke-width="1.0212" stroke-miterlimit="10" stroke-linecap="round" stroke-linejoin="round"/>
<path d="M-36.7296 345.732C25.406 397.03 111.936 422.15 189.874 408.833C250.322 398.544 308.928 375.089 357.41 349.515C368.916 343.463 379.962 337.107 390.702 331.054C415.403 317.284 437.802 303.665 465.725 297.461C474.01 295.645 482.448 294.586 491.039 294.283C544.123 293.224 601.349 321.067 645.228 358.443C656.581 368.128 667.627 377.359 678.674 385.379C709.665 407.774 741.423 420.788 788.37 402.932C821.355 390.523 849.738 367.523 876.28 341.949C888.247 330.449 899.754 318.343 911.26 306.54C947.928 268.559 987.971 229.669 1035.38 215.747C1048.42 211.964 1061.31 210.149 1074.19 209.846C1095.52 209.089 1116.54 212.267 1137.71 218.32C1149.83 221.649 1161.64 226.491 1173.15 232.09C1191.56 241.018 1220.56 262.96 1249.71 279.605C1294.81 305.33 1344.21 321.521 1361.86 267.197" stroke="white" stroke-opacity="0.16" stroke-width="1.0351" stroke-miterlimit="10" stroke-linecap="round" stroke-linejoin="round"/>
<path d="M-56.8279 330.6C5.92139 381.747 95.5194 408.379 173.764 392.793C235.44 380.385 294.967 356.628 344.829 338.015C356.489 333.627 367.842 329.39 378.735 325.607C403.436 316.981 425.222 308.81 452.224 306.994C460.202 306.54 468.333 306.54 476.618 307.448C528.627 312.896 586.314 341.344 632.494 375.24C644.46 384.168 656.427 392.188 668.087 399.149C700.613 418.367 733.752 428.354 780.238 410.044C813.531 397.03 842.527 373.878 869.683 348.305C881.956 336.805 893.923 324.699 905.737 312.745C943.172 274.612 983.368 235.268 1030.31 218.017C1043.05 213.326 1055.94 210.603 1068.52 208.938C1089.69 206.214 1110.55 206.82 1132.03 211.057C1144.46 213.478 1156.58 217.715 1168.39 223.314C1188.03 232.544 1216.87 255.545 1245.1 272.947C1289.44 300.336 1338.69 319.705 1359.86 268.71" stroke="white" stroke-opacity="0.16" stroke-width="1.0489" stroke-miterlimit="10" stroke-linecap="round" stroke-linejoin="round"/>
<path d="M-76.7734 315.619C-13.4104 366.463 79.4094 394.911 157.808 376.752C220.71 362.226 281.005 338.014 332.401 326.363C344.214 323.639 355.721 321.52 366.921 319.856C391.468 316.375 412.794 313.652 439.029 316.375C446.7 317.132 454.678 318.343 462.656 320.31C513.591 332.415 571.738 361.318 620.219 391.885C632.953 399.905 645.534 406.865 657.961 412.767C692.02 428.958 726.54 435.919 772.566 417.004C806.166 403.234 835.776 380.082 863.699 354.357C876.279 342.705 888.553 330.6 900.673 318.494C938.875 280.21 979.378 240.261 1025.71 219.984C1038.29 214.385 1050.87 210.753 1063.3 207.878C1084.16 203.036 1105.03 201.22 1126.66 203.641C1139.4 205.003 1151.82 208.937 1163.94 214.385C1184.81 223.918 1213.35 247.827 1240.81 266.288C1284.38 295.493 1333.63 317.889 1358.33 270.071" stroke="white" stroke-opacity="0.16" stroke-width="1.0628" stroke-miterlimit="10" stroke-linecap="round" stroke-linejoin="round"/>
<path d="M-96.8701 300.487C-33.0469 351.18 62.9948 381.142 141.546 360.562C205.677 343.917 266.585 319.251 319.822 314.712C331.789 313.652 343.295 313.501 354.955 314.258C379.196 315.62 400.215 318.646 425.683 325.758C433.047 327.877 440.718 330.146 448.542 333.173C498.404 351.785 556.858 381.293 607.64 408.379C620.988 415.492 634.335 421.393 647.53 426.235C683.123 439.249 719.024 443.183 764.59 423.814C798.496 409.439 828.72 386.135 857.41 360.259C870.297 348.608 882.878 336.502 895.305 324.245C934.427 285.809 974.93 245.407 1020.65 221.8C1032.92 215.445 1045.35 210.603 1057.62 206.517C1078.34 199.556 1099.05 195.319 1120.83 195.924C1134.03 196.227 1146.76 199.708 1159.04 205.155C1181.13 214.991 1209.51 239.959 1236.05 259.177C1278.86 290.046 1328.11 315.62 1356.18 271.131" stroke="white" stroke-opacity="0.16" stroke-width="1.0767" stroke-miterlimit="10" stroke-linecap="round" stroke-linejoin="round"/>
<path d="M-116.97 285.506C-52.5331 336.047 46.5771 367.522 125.436 344.673C190.793 325.757 252.468 300.487 307.24 303.211C319.36 303.816 331.02 305.632 342.833 308.658C366.921 314.862 387.479 323.488 412.026 335.139C419.237 338.468 426.601 342.1 434.119 346.035C482.907 371.457 541.821 401.267 594.904 424.873C609.019 431.077 622.981 435.919 636.942 439.702C674.07 449.69 711.351 450.446 756.304 430.472C790.363 415.34 821.354 392.036 850.658 366.16C863.852 354.509 876.739 342.252 889.473 329.995C929.363 291.408 970.173 250.4 1015.28 223.616C1027.4 216.352 1039.52 210.451 1051.64 205.155C1072.04 196.075 1092.76 189.266 1114.7 188.207C1128.2 187.601 1141.24 190.476 1153.82 195.924C1177.29 206.062 1205.21 232.09 1230.99 252.064C1273.03 284.749 1322.12 313.349 1353.88 272.038" stroke="white" stroke-opacity="0.16" stroke-width="1.0906" stroke-miterlimit="10" stroke-linecap="round" stroke-linejoin="round"/>
<path d="M-136.916 270.374C-71.8649 320.613 30.3136 353.601 109.479 328.482C175.91 307.297 238.506 281.421 294.812 291.559C307.085 293.829 318.899 297.461 331.019 303.06C354.953 313.955 375.051 328.331 398.831 344.522C405.735 349.213 412.793 353.904 420.157 358.897C467.871 390.978 527.245 421.242 582.63 441.367C597.358 446.664 612.087 450.598 626.662 453.171C665.324 460.131 703.986 457.71 748.478 437.282C782.845 421.393 814.603 398.09 844.52 372.062C858.021 360.411 871.215 348.154 884.256 335.745C924.913 297.007 965.876 255.545 1010.37 225.583C1022.34 217.563 1034.15 210.603 1045.96 204.096C1066.21 193.049 1086.77 183.516 1108.86 180.792C1122.67 178.976 1136.02 181.549 1148.91 186.996C1173.61 197.438 1201.22 224.373 1226.23 245.406C1267.5 279.908 1316.6 311.534 1351.73 273.552" stroke="white" stroke-opacity="0.16" stroke-width="1.1045" stroke-miterlimit="10" stroke-linecap="round" stroke-linejoin="round"/>
<path d="M-157.012 255.394C-91.3479 305.481 14.0525 339.982 93.2179 312.442C160.877 288.987 224.24 262.354 282.233 279.908C294.66 283.691 306.78 289.441 319.054 297.31C342.988 312.744 362.472 333.021 385.485 353.904C392.082 359.805 398.986 365.707 406.044 371.76C452.53 410.649 512.518 441.216 570.204 457.861C585.547 462.25 601.042 465.125 616.384 466.638C656.581 470.572 696.623 464.974 740.655 444.091C775.329 427.597 807.7 404.142 838.385 378.115C852.193 366.312 865.694 354.055 879.195 341.495C920.618 302.606 961.889 260.69 1005.77 227.399C1017.43 218.471 1029.24 210.451 1040.75 202.734C1060.85 189.569 1081.1 177.463 1103.5 173.075C1117.61 170.2 1131.27 172.47 1144.46 177.766C1170.39 188.51 1197.85 216.504 1221.94 238.294C1262.44 274.763 1311.38 309.113 1350.04 274.46" stroke="white" stroke-opacity="0.16" stroke-width="1.1184" stroke-miterlimit="10" stroke-linecap="round" stroke-linejoin="round"/>
<path d="M-176.958 240.262C-110.833 290.198 -2.21114 326.061 77.261 296.402C146.147 270.677 210.431 243.288 269.805 268.408C282.385 273.704 294.812 281.421 307.239 291.711C331.327 311.837 350.044 338.015 372.137 363.286C378.427 370.549 385.024 377.662 391.928 384.622C437.187 430.17 497.789 461.191 557.776 474.356C573.885 477.836 589.995 479.803 606.104 480.106C647.834 481.165 689.258 472.237 732.83 450.75C767.81 433.499 800.795 410.044 832.093 383.866C846.208 372.063 860.169 359.806 873.824 347.095C916.015 308.054 957.592 265.684 1000.7 229.064C1012.21 219.38 1023.72 210.3 1035.07 201.372C1054.86 186.089 1075.11 171.411 1097.67 165.358C1112.24 161.423 1126.05 163.239 1139.55 168.536C1166.7 179.431 1193.86 208.636 1217.18 231.183C1256.76 269.467 1305.86 306.843 1348.05 275.52" stroke="white" stroke-opacity="0.16" stroke-width="1.1323" stroke-miterlimit="10" stroke-linecap="round" stroke-linejoin="round"/>
<path d="M-197.054 225.281C-130.316 275.065 -18.779 312.139 61.1535 280.362C131.114 252.216 196.471 224.07 257.226 256.907C270.113 263.868 282.694 273.401 295.274 286.263C319.515 311.08 337.619 343.009 358.791 372.819C364.927 381.293 371.218 389.615 377.815 397.636C421.847 449.993 483.062 481.165 545.197 491.001C561.92 493.573 578.797 494.481 595.673 493.724C638.938 491.909 681.742 479.652 724.854 457.71C759.987 439.703 793.74 416.248 825.805 389.918C840.226 378.115 854.495 365.707 868.456 352.996C911.567 313.804 953.298 270.98 995.796 231.182C1007 220.741 1018.35 210.451 1029.55 200.313C1049.03 182.759 1069.28 165.66 1091.99 157.943C1106.87 152.949 1121.14 154.311 1134.8 159.607C1163.18 170.805 1190.03 201.069 1212.58 224.524C1251.4 264.624 1300.49 305.027 1346.06 276.881" stroke="white" stroke-opacity="0.16" stroke-width="1.1462" stroke-miterlimit="10" stroke-linecap="round" stroke-linejoin="round"/>
<path d="M-217 210.15C-149.648 259.632 -35.0425 298.37 45.0434 264.172C131.266 227.4 210.585 192.748 283.307 280.363C314.605 318.193 334.396 369.794 363.699 410.196C418.164 485.252 503.159 515.819 585.393 507.042C667.627 498.265 747.559 453.626 819.514 395.821C891.622 338.016 957.133 267.047 1024.02 199.103C1043.36 179.583 1063.3 159.76 1086.47 150.378C1134.03 131.16 1176.06 182.155 1207.98 217.716C1245.87 259.783 1294.97 303.061 1344.21 278.244" stroke="white" stroke-opacity="0.16" stroke-width="1.1601" stroke-miterlimit="10" stroke-linecap="round" stroke-linejoin="round"/>
</svg>
