<svg width="241" height="40" viewBox="0 0 241 40" fill="none" xmlns="http://www.w3.org/2000/svg">
<circle cx="20" cy="20" r="20" fill="#F61114"/>
<path d="M32.832 22.2988C32.832 22.9375 32.709 23.5264 32.4629 24.0654C32.2227 24.5986 31.8916 25.0352 31.4697 25.375C30.9365 25.8027 30.3799 26.0986 29.7998 26.2627C29.2256 26.4209 28.5283 26.5 27.708 26.5H21.6699V13.4131H31.8389V15.9443H25.0273V18.291H27.7607C28.6748 18.291 29.4219 18.3584 30.002 18.4932C30.582 18.6221 31.0947 18.8623 31.54 19.2139C31.9912 19.5654 32.3193 20.0107 32.5244 20.5498C32.7295 21.083 32.832 21.666 32.832 22.2988ZM29.3428 22.3955C29.3428 22.1787 29.3193 21.9736 29.2725 21.7803C29.2256 21.5869 29.123 21.4082 28.9648 21.2441C28.8066 21.0859 28.5898 20.96 28.3145 20.8662C28.0391 20.7725 27.6582 20.7256 27.1719 20.7256H25.0273V24.0566H27.1719C27.541 24.0566 27.8721 24.0098 28.165 23.916C28.4639 23.8223 28.6924 23.7021 28.8506 23.5557C29.0088 23.415 29.1289 23.248 29.2109 23.0547C29.2988 22.8555 29.3428 22.6357 29.3428 22.3955ZM45.2246 21.5693C45.2246 23.1924 44.75 24.4727 43.8008 25.4102C42.8574 26.3418 41.5303 26.8076 39.8193 26.8076C38.1084 26.8076 36.7783 26.3418 35.8291 25.4102C34.8857 24.4727 34.4141 23.1924 34.4141 21.5693C34.4141 19.9346 34.8887 18.6514 35.8379 17.7197C36.793 16.7881 38.1201 16.3223 39.8193 16.3223C41.542 16.3223 42.8721 16.791 43.8096 17.7285C44.7529 18.666 45.2246 19.9463 45.2246 21.5693ZM41.3311 23.9688C41.5361 23.7168 41.6885 23.415 41.7881 23.0635C41.8936 22.7061 41.9463 22.2139 41.9463 21.5869C41.9463 21.0068 41.8936 20.5205 41.7881 20.1279C41.6826 19.7354 41.5361 19.4219 41.3486 19.1875C41.1611 18.9473 40.9355 18.7773 40.6719 18.6777C40.4082 18.5781 40.124 18.5283 39.8193 18.5283C39.5146 18.5283 39.2422 18.5693 39.002 18.6514C38.7676 18.7334 38.542 18.8975 38.3252 19.1436C38.1318 19.3721 37.9766 19.6855 37.8594 20.084C37.748 20.4824 37.6924 20.9834 37.6924 21.5869C37.6924 22.126 37.7422 22.5947 37.8418 22.9932C37.9414 23.3857 38.0879 23.7021 38.2812 23.9424C38.4688 24.1709 38.6914 24.3379 38.9492 24.4434C39.2129 24.5488 39.5117 24.6016 39.8457 24.6016C40.1328 24.6016 40.4053 24.5547 40.6631 24.4609C40.9268 24.3613 41.1494 24.1973 41.3311 23.9688ZM57.2744 26.5H54.1104V18.8359H51.5C51.4824 19.2754 51.4678 19.6182 51.4561 19.8643C51.4502 20.1045 51.4414 20.3857 51.4297 20.708C51.3887 21.6514 51.3096 22.4189 51.1924 23.0107C51.0752 23.6025 50.9258 24.0859 50.7441 24.4609C50.5684 24.8418 50.3779 25.1436 50.1729 25.3662C49.9736 25.5889 49.7715 25.7822 49.5664 25.9463C49.332 26.1338 49.0244 26.2832 48.6436 26.3945C48.2686 26.5059 47.9053 26.5615 47.5537 26.5615C47.2783 26.5615 47 26.5498 46.7188 26.5264C46.4375 26.5088 46.2705 26.5 46.2178 26.5V23.9688H46.3145C46.3379 23.9688 46.3789 23.9717 46.4375 23.9775C46.4961 23.9834 46.5547 23.9863 46.6133 23.9863C46.7656 23.9863 46.9209 23.9717 47.0791 23.9424C47.2432 23.9131 47.3779 23.8486 47.4834 23.749C47.876 23.374 48.1367 22.9053 48.2656 22.3428C48.4004 21.7744 48.4971 20.9365 48.5557 19.8291C48.5791 19.4189 48.6025 18.9502 48.626 18.4229C48.6494 17.8955 48.6699 17.2979 48.6875 16.6299H57.2744V26.5ZM66.6172 23.1953C66.6172 22.7734 66.4912 22.457 66.2393 22.2461C65.9873 22.0352 65.624 21.9297 65.1494 21.9297H63.4268V24.5049H65.1494C65.4658 24.5049 65.7236 24.4609 65.9229 24.373C66.1221 24.2793 66.2686 24.165 66.3623 24.0303C66.4619 23.9014 66.5293 23.7666 66.5645 23.626C66.5996 23.4854 66.6172 23.3418 66.6172 23.1953ZM69.8691 23.1689C69.8691 23.6729 69.7695 24.1387 69.5703 24.5664C69.3711 24.9941 69.1104 25.3428 68.7881 25.6123C68.3896 25.9346 67.9766 26.1631 67.5488 26.2979C67.127 26.4326 66.5557 26.5 65.835 26.5H60.2715V16.6299H63.4268V19.9258H65.8438C66.5527 19.9258 67.124 19.9785 67.5576 20.084C67.9971 20.1836 68.4131 20.3799 68.8057 20.6729C69.1572 20.9365 69.4209 21.291 69.5967 21.7363C69.7783 22.1758 69.8691 22.6533 69.8691 23.1689ZM87.0166 26.5H71.9609V16.6299H75.1162V24.3291H77.9111V16.6299H81.0664V24.3291H83.8613V16.6299H87.0166V26.5ZM99.7344 22.1494H92.4922C92.5391 22.9229 92.832 23.5146 93.3711 23.9248C93.916 24.335 94.7158 24.54 95.7705 24.54C96.4385 24.54 97.0859 24.4199 97.7129 24.1797C98.3398 23.9395 98.835 23.6816 99.1982 23.4062H99.5498V25.9463C98.835 26.2334 98.1611 26.4414 97.5283 26.5703C96.8955 26.6992 96.1953 26.7637 95.4277 26.7637C93.4473 26.7637 91.9297 26.3184 90.875 25.4277C89.8203 24.5371 89.293 23.2686 89.293 21.6221C89.293 19.9932 89.791 18.7041 90.7871 17.7549C91.7891 16.7998 93.1602 16.3223 94.9004 16.3223C96.5059 16.3223 97.7129 16.7295 98.5215 17.5439C99.3301 18.3525 99.7344 19.5186 99.7344 21.042V22.1494ZM96.5879 20.2949C96.5703 19.6328 96.4062 19.1348 96.0957 18.8008C95.7852 18.4668 95.3018 18.2998 94.6455 18.2998C94.0361 18.2998 93.5352 18.458 93.1426 18.7744C92.75 19.0908 92.5303 19.5977 92.4834 20.2949H96.5879ZM118.095 26.5H115.027V20.4619L110.738 26.5H108.119V16.6299H111.187V22.0352L115.159 16.6299H118.095V26.5ZM131.059 26.5H127.895V22.29H124.256V26.5H121.092V16.6299H124.256V20.0312H127.895V16.6299H131.059V26.5ZM149.146 21.3408C149.146 22.1904 149.038 22.9492 148.821 23.6172C148.604 24.2793 148.294 24.8359 147.89 25.2871C147.479 25.7441 147.017 26.084 146.501 26.3066C145.991 26.5234 145.411 26.6318 144.761 26.6318C144.28 26.6318 143.882 26.5732 143.565 26.4561C143.249 26.3389 142.997 26.2334 142.81 26.1396V30.1211H139.681V26.1309C139.44 26.2715 139.15 26.3916 138.811 26.4912C138.471 26.585 138.055 26.6318 137.562 26.6318C136.238 26.6318 135.204 26.1895 134.46 25.3047C133.716 24.4199 133.344 23.1953 133.344 21.6309C133.344 20.793 133.455 20.0576 133.678 19.4248C133.906 18.7861 134.22 18.2412 134.618 17.79C135.005 17.3564 135.465 17.0254 135.998 16.7969C136.531 16.5684 137.094 16.4541 137.686 16.4541C138.166 16.4541 138.564 16.5098 138.881 16.6211C139.203 16.7324 139.47 16.8496 139.681 16.9727V12.8242H142.81V16.9639C143.056 16.8408 143.372 16.7266 143.759 16.6211C144.151 16.5098 144.573 16.4541 145.024 16.4541C146.343 16.4541 147.359 16.8789 148.074 17.7285C148.789 18.5723 149.146 19.7764 149.146 21.3408ZM145.938 21.5078C145.938 20.5234 145.748 19.8086 145.367 19.3633C144.992 18.9121 144.403 18.6865 143.601 18.6865C143.454 18.6865 143.319 18.6924 143.196 18.7041C143.079 18.7158 142.95 18.7363 142.81 18.7656V24.3379C142.933 24.3613 143.056 24.3789 143.179 24.3906C143.302 24.4023 143.437 24.4082 143.583 24.4082C144.386 24.4082 144.978 24.1709 145.358 23.6963C145.745 23.2217 145.938 22.4922 145.938 21.5078ZM139.681 24.3379V18.7568C139.593 18.7393 139.479 18.7246 139.338 18.7129C139.203 18.6953 139.054 18.6865 138.89 18.6865C138.087 18.6865 137.495 18.9238 137.114 19.3984C136.739 19.873 136.552 20.6025 136.552 21.5869C136.552 22.5713 136.742 23.2891 137.123 23.7402C137.51 24.1855 138.104 24.4082 138.907 24.4082C139.024 24.4082 139.156 24.4023 139.303 24.3906C139.455 24.3789 139.581 24.3613 139.681 24.3379ZM161.521 21.5693C161.521 23.1924 161.047 24.4727 160.098 25.4102C159.154 26.3418 157.827 26.8076 156.116 26.8076C154.405 26.8076 153.075 26.3418 152.126 25.4102C151.183 24.4727 150.711 23.1924 150.711 21.5693C150.711 19.9346 151.186 18.6514 152.135 17.7197C153.09 16.7881 154.417 16.3223 156.116 16.3223C157.839 16.3223 159.169 16.791 160.106 17.7285C161.05 18.666 161.521 19.9463 161.521 21.5693ZM157.628 23.9688C157.833 23.7168 157.985 23.415 158.085 23.0635C158.19 22.7061 158.243 22.2139 158.243 21.5869C158.243 21.0068 158.19 20.5205 158.085 20.1279C157.979 19.7354 157.833 19.4219 157.646 19.1875C157.458 18.9473 157.232 18.7773 156.969 18.6777C156.705 18.5781 156.421 18.5283 156.116 18.5283C155.812 18.5283 155.539 18.5693 155.299 18.6514C155.064 18.7334 154.839 18.8975 154.622 19.1436C154.429 19.3721 154.273 19.6855 154.156 20.084C154.045 20.4824 153.989 20.9834 153.989 21.5869C153.989 22.126 154.039 22.5947 154.139 22.9932C154.238 23.3857 154.385 23.7021 154.578 23.9424C154.766 24.1709 154.988 24.3379 155.246 24.4434C155.51 24.5488 155.809 24.6016 156.143 24.6016C156.43 24.6016 156.702 24.5547 156.96 24.4609C157.224 24.3613 157.446 24.1973 157.628 23.9688ZM174.09 21.4287C174.09 22.2432 173.964 22.9844 173.712 23.6523C173.466 24.3203 173.141 24.8711 172.736 25.3047C172.314 25.7617 171.837 26.1074 171.304 26.3418C170.771 26.5762 170.199 26.6934 169.59 26.6934C169.027 26.6934 168.55 26.6318 168.157 26.5088C167.765 26.3916 167.363 26.2246 166.953 26.0078V30.1211H163.789V16.6299H166.953V17.6582C167.439 17.2715 167.935 16.958 168.438 16.7178C168.948 16.4775 169.534 16.3574 170.196 16.3574C171.427 16.3574 172.382 16.8086 173.062 17.7109C173.747 18.6133 174.09 19.8525 174.09 21.4287ZM170.829 21.4902C170.829 20.5293 170.665 19.832 170.337 19.3984C170.009 18.9648 169.49 18.748 168.781 18.748C168.482 18.748 168.175 18.7949 167.858 18.8887C167.542 18.9766 167.24 19.1055 166.953 19.2754V24.2412C167.164 24.3232 167.39 24.376 167.63 24.3994C167.87 24.4229 168.107 24.4346 168.342 24.4346C169.18 24.4346 169.804 24.1914 170.214 23.7051C170.624 23.2129 170.829 22.4746 170.829 21.4902ZM188.328 26.5H185.243V20.374L183.002 24.417H181.613L179.372 20.374V26.5H176.375V16.6299H179.812L182.352 21.1123L184.892 16.6299H188.328V26.5ZM197.293 23.9248V21.8682C196.865 21.9033 196.402 21.9531 195.904 22.0176C195.406 22.0762 195.028 22.1465 194.771 22.2285C194.454 22.3281 194.211 22.4746 194.041 22.668C193.877 22.8555 193.795 23.1045 193.795 23.415C193.795 23.6201 193.812 23.7871 193.848 23.916C193.883 24.0449 193.971 24.168 194.111 24.2852C194.246 24.4023 194.407 24.4902 194.595 24.5488C194.782 24.6016 195.075 24.6279 195.474 24.6279C195.79 24.6279 196.109 24.5635 196.432 24.4346C196.76 24.3057 197.047 24.1357 197.293 23.9248ZM197.293 25.4541C197.123 25.583 196.912 25.7383 196.66 25.9199C196.408 26.1016 196.171 26.2451 195.948 26.3506C195.638 26.4912 195.315 26.5938 194.981 26.6582C194.647 26.7285 194.281 26.7637 193.883 26.7637C192.945 26.7637 192.16 26.4736 191.527 25.8936C190.895 25.3135 190.578 24.5723 190.578 23.6699C190.578 22.9492 190.739 22.3604 191.062 21.9033C191.384 21.4463 191.841 21.0859 192.433 20.8223C193.019 20.5586 193.745 20.3711 194.612 20.2598C195.479 20.1484 196.379 20.0664 197.311 20.0137V19.9609C197.311 19.416 197.088 19.041 196.643 18.8359C196.197 18.625 195.541 18.5195 194.674 18.5195C194.152 18.5195 193.596 18.6133 193.004 18.8008C192.412 18.9824 191.987 19.123 191.729 19.2227H191.439V16.8408C191.773 16.7529 192.315 16.6504 193.065 16.5332C193.821 16.4102 194.577 16.3486 195.333 16.3486C197.132 16.3486 198.43 16.627 199.227 17.1836C200.029 17.7344 200.431 18.6016 200.431 19.7852V26.5H197.293V25.4541ZM211.487 26.5H203.34V16.6299H206.504V24.3291H210.125V16.6299H213.289V24.3291H214.309V28.9434H211.487V26.5ZM226.446 26.5H223.379V20.4619L219.09 26.5H216.471V16.6299H219.538V22.0352L223.511 16.6299H226.446V26.5ZM239.419 26.5H236.352V20.4619L232.062 26.5H229.443V16.6299H232.511V22.0352L236.483 16.6299H239.419V26.5Z" fill="#1C2561"/>
</svg>
