<svg width="1366" height="350" viewBox="0 0 1366 350" fill="none" xmlns="http://www.w3.org/2000/svg">
<g clip-path="url(#clip0_194_257)">
<ellipse cx="997.693" cy="746.704" rx="997.693" ry="746.704" transform="matrix(0.992422 -0.122876 0.123053 0.9924 -612 -782.854)" fill="#1C2561"/>
<ellipse cx="997.693" cy="746.704" rx="997.693" ry="746.704" transform="matrix(0.992422 -0.122876 0.123053 0.9924 -612 -1402.81)" fill="white"/>
<ellipse cx="667.637" cy="499.67" rx="667.637" ry="499.67" transform="matrix(0.999023 -0.0442021 0.0442665 0.99902 -319.388 -149.189)" fill="#1A6FB9"/>
<mask id="mask0_194_257" style="mask-type:alpha" maskUnits="userSpaceOnUse" x="-298" y="-180" width="1336" height="1001">
<ellipse cx="667.637" cy="499.67" rx="667.637" ry="499.67" transform="matrix(0.999023 -0.0442021 0.0442665 0.99902 -319.388 -149.189)" fill="#1A6FB9"/>
</mask>
<g mask="url(#mask0_194_257)">
<ellipse cx="997.693" cy="746.704" rx="997.693" ry="746.704" transform="matrix(0.992422 -0.122876 0.123053 0.9924 -612 -1402.81)" fill="#1C2561"/>
</g>
<ellipse cx="703.232" cy="503.988" rx="703.232" ry="503.988" transform="matrix(0.993535 -0.113524 0.113688 0.993517 501.91 92.104)" fill="#1A6FB9"/>
<path d="M1393.17 217.525C1364.4 182.116 1331.69 149.43 1292.02 130.061C1238.26 103.882 1166.78 106.304 1123.63 155.332C1073.96 211.774 1045.34 268.066 965.531 275.329C909.198 280.474 842.416 255.96 811.524 203.603C793.201 172.582 783.055 136.417 767.76 103.429C731.265 24.1362 669.33 5.22103 596.794 47.591C562.116 67.868 522.895 91.1715 486.4 77.7039C438.547 59.9993 420.375 -13.3915 370.554 -23.8327C343.296 -29.5829 316.19 -13.9968 290.144 -2.64769C228.057 24.2875 202.162 -34.4252 145.829 -27.0104C131.746 -25.1946 118.874 -16.7206 105.094 -12.7862C90.859 -8.70056 62.8441 -12.7862 67.6899 -35.0304" stroke="white" stroke-opacity="0.16" stroke-width="1.0073" stroke-miterlimit="10" stroke-linecap="round" stroke-linejoin="round"/>
<path d="M1390.6 199.366C1361.98 164.108 1328.51 133.239 1288.69 115.988C1260.07 103.58 1226.9 99.0401 1195.86 104.79C1168.45 109.935 1142.4 122.949 1122.11 145.344C1084.86 186.655 1058.81 227.966 1015.35 249.907C1000.97 257.171 984.46 262.316 965.228 264.737C909.501 271.698 843.779 250.361 811.07 200.577C791.535 170.766 780.178 135.206 764.429 102.218C756.403 85.2698 747.317 70.743 737.171 58.9399C701.282 16.8726 653.732 11.879 595.734 38.0576C577.41 46.3802 558.027 57.8807 538.644 66.3547C513.506 77.4011 486.854 81.4868 461.868 72.4075C416.589 55.6109 398.417 -12.0298 351.322 -22.4709C325.579 -28.2211 299.987 -14.4509 275.303 -4.46371C216.85 19.2937 191.713 -34.4253 138.56 -27.0106C125.234 -25.1947 113.119 -17.1747 100.096 -13.2403C86.6188 -9.30597 60.7239 -12.4837 64.6612 -32.1555" stroke="white" stroke-opacity="0.16" stroke-width="1.0073" stroke-miterlimit="10" stroke-linecap="round" stroke-linejoin="round"/>
<path d="M1388.03 181.358C1359.71 146.252 1325.49 117.349 1285.51 101.915C1256.89 90.8681 1224.18 87.6903 1193.59 94.1971C1166.63 99.9473 1141.19 113.264 1120.9 135.054C1083.95 175.003 1057.15 215.557 1014.29 238.104C1000.06 245.67 983.856 251.117 965.079 253.992C909.957 262.618 845.145 244.762 810.921 197.55C790.175 168.95 777.606 133.995 761.251 101.007C753.074 84.2099 743.988 69.6831 734.145 57.7287C698.861 15.2074 653.129 8.09537 595.13 28.6751C573.172 36.5438 550.458 50.1627 527.743 60.4525C498.516 73.6175 466.867 77.8544 437.641 67.1106C395.088 51.5245 376.765 -10.6685 332.395 -21.1097C308.166 -26.7086 284.089 -15.0568 260.919 -6.43149C206.253 13.9969 181.569 -34.5773 131.899 -27.1625C119.33 -25.3467 107.973 -17.9319 95.707 -13.9975C82.9867 -10.0632 59.0605 -12.4843 62.2406 -29.5836" stroke="white" stroke-opacity="0.16" stroke-width="1.0073" stroke-miterlimit="10" stroke-linecap="round" stroke-linejoin="round"/>
<path d="M1385.45 163.2C1357.29 128.245 1322.31 101.309 1282.18 87.8418C1253.55 78.3086 1221.3 76.3414 1191.32 83.7562C1164.82 90.263 1139.83 103.731 1119.54 125.067C1082.74 163.805 1055.18 203.603 1013.08 226.452C998.998 234.169 983.097 239.92 964.925 243.4C910.258 253.841 846.657 239.314 810.616 194.523C788.658 167.134 774.727 132.936 758.069 99.9475C749.74 83.4535 740.806 68.7754 730.963 56.5183C696.588 13.3918 651.764 3.40459 594.22 19.4446C568.476 26.5567 542.581 42.7481 516.535 54.8538C483.22 70.2886 446.725 74.3742 413.107 62.2685C373.28 47.7417 354.805 -8.85243 313.162 -19.2936C290.598 -24.8925 267.883 -15.2079 246.229 -7.94451C195.347 9.15479 171.27 -34.1231 124.78 -26.8597C113.12 -25.0438 102.368 -18.083 90.8592 -14.3C79.0475 -10.3657 57.0899 -12.0302 59.3613 -26.557" stroke="white" stroke-opacity="0.16" stroke-width="1.0073" stroke-miterlimit="10" stroke-linecap="round" stroke-linejoin="round"/>
<path d="M1382.88 145.042C1354.86 110.389 1319.28 85.1185 1279 73.6181C1250.38 65.4467 1218.42 64.8414 1189.05 73.1641C1163 80.4275 1138.47 94.1978 1118.18 114.929C1081.53 152.456 1053.36 191.346 1011.87 214.801C997.938 222.821 982.341 228.874 964.623 232.808C910.562 245.216 847.869 233.867 810.314 191.649C787.145 165.621 772.002 131.877 754.738 98.8887C746.258 82.546 737.324 67.8678 727.632 55.3082C694.014 11.5763 649.947 -2.04256 593.312 10.0631C563.631 16.4186 534.556 35.0312 505.33 48.9527C468.077 66.506 426.433 70.5916 388.575 56.9727C351.323 43.5051 332.848 -7.49013 293.93 -17.9313C272.881 -23.5302 251.681 -15.8128 231.389 -9.75995C184.293 4.01028 160.67 -34.1227 117.663 -26.8592C106.76 -25.0434 96.6143 -18.5366 86.014 -14.7535C74.9595 -10.8192 55.1218 -11.7271 56.3333 -23.6815" stroke="white" stroke-opacity="0.16" stroke-width="1.0073" stroke-miterlimit="10" stroke-linecap="round" stroke-linejoin="round"/>
<path d="M1380.3 127.034C1352.44 92.5329 1316.1 69.2295 1275.66 59.6962C1247.04 53.0381 1215.54 53.7947 1186.77 62.7227C1161.18 70.7427 1137.25 84.6642 1116.96 104.79C1080.62 141.107 1051.69 179.089 1010.96 202.997C997.179 211.169 981.884 217.524 964.621 222.215C911.014 236.439 849.381 228.419 810.16 188.773C785.628 163.957 769.274 130.817 751.708 97.8292C743.076 81.7891 734.142 66.9596 724.601 54.0973C691.589 9.91152 648.431 -7.94437 592.553 0.680941C558.935 5.82586 526.831 27.4648 494.273 43.0509C452.932 62.874 406.291 66.9596 364.193 51.8275C329.666 39.4192 311.04 -5.97723 274.999 -16.5697C255.465 -22.1686 235.93 -16.2671 217.001 -11.7274C173.691 -1.28625 150.674 -34.2743 110.847 -27.0109C100.701 -25.195 91.3124 -19.2935 81.4693 -15.5105C71.1719 -11.5761 53.4543 -11.7274 53.7571 -21.1094" stroke="white" stroke-opacity="0.16" stroke-width="1.0073" stroke-miterlimit="10" stroke-linecap="round" stroke-linejoin="round"/>
<path d="M1377.73 108.875C1350.02 74.5255 1313.07 53.0379 1272.33 45.4718C1243.71 40.1756 1212.67 42.2941 1184.35 52.13C1159.21 60.9066 1135.74 75.1308 1115.45 94.6512C1079.26 129.758 1049.57 166.831 1009.6 191.346C995.968 199.668 980.976 206.478 964.167 211.623C911.166 227.814 850.441 222.972 809.706 185.747C783.963 162.141 766.397 129.606 748.225 96.7698C739.442 81.0324 730.659 66.0516 721.118 52.8866C688.863 8.09552 646.311 -2.6483 591.493 -8.70115C553.937 -12.7868 518.805 19.7472 482.916 37.1492C437.638 59.0907 385.999 63.1764 339.509 46.5311C307.709 35.182 288.931 -4.61545 255.616 -15.2079C237.596 -20.8068 219.575 -16.8725 202.009 -13.6947C162.637 -6.43131 139.922 -34.4258 103.578 -27.1624C94.3409 -25.3465 85.5578 -19.8989 76.4719 -16.2672C67.0831 -12.3329 51.3342 -11.7276 50.7284 -18.537" stroke="white" stroke-opacity="0.16" stroke-width="1.0073" stroke-miterlimit="10" stroke-linecap="round" stroke-linejoin="round"/>
<path d="M1375 90.7176C1347.44 56.519 1309.73 36.8473 1269 31.3997C1240.38 27.4653 1209.64 30.9458 1182.08 41.5382C1157.39 51.0715 1134.38 65.447 1114.08 84.5135C1078.04 118.409 1047.76 154.575 1008.38 179.543C994.907 188.168 980.067 195.281 964.015 200.879C911.619 219.038 851.804 217.525 809.403 182.721C782.296 160.477 763.67 128.397 745.044 95.5599C736.261 79.9738 727.327 65.1443 717.938 51.5254C686.44 6.28036 644.19 -11.1215 590.583 -18.2336C549.242 -23.6812 510.93 12.0306 471.709 31.2484C422.342 55.4598 365.707 59.3941 315.128 41.2356C286.053 30.7944 267.124 -3.25285 236.535 -13.8453C220.029 -19.4442 203.523 -17.4771 187.471 -15.5099C151.885 -11.4242 129.776 -34.4251 96.6119 -27.1616C88.1317 -25.1945 80.1058 -20.5035 71.777 -16.8718C63.1454 -13.0887 49.5165 -11.4242 48.0022 -15.8125" stroke="white" stroke-opacity="0.16" stroke-width="1.0073" stroke-miterlimit="10" stroke-linecap="round" stroke-linejoin="round"/>
<path d="M1372.43 72.7096C1345.02 38.6623 1306.71 20.8065 1265.67 17.3261C1237.05 14.9049 1206.76 19.5959 1179.66 31.0963C1155.43 41.2348 1133.02 56.0643 1112.72 74.3742C1076.83 107.06 1045.79 142.317 1007.18 167.891C993.849 176.667 979.311 184.233 963.714 190.286C911.924 210.412 852.866 212.077 809.102 179.694C780.784 158.811 760.946 127.185 741.715 94.4999C732.78 79.0652 723.846 64.2357 714.608 50.4654C683.716 4.76641 642.224 -19.899 589.677 -27.465C544.55 -33.8205 503.057 4.46377 460.656 25.4974C407.201 51.8273 345.72 55.7617 290.75 36.2412C264.4 26.8593 245.32 -1.58908 217.457 -12.1816C202.465 -17.7805 187.473 -17.6292 172.784 -17.1752C141.135 -16.2673 119.329 -34.1232 89.6479 -27.0111C81.9248 -25.0439 74.6561 -20.8069 67.0845 -17.1752C59.2101 -13.3922 47.7012 -10.971 45.1269 -12.7869" stroke="white" stroke-opacity="0.16" stroke-width="1.0073" stroke-miterlimit="10" stroke-linecap="round" stroke-linejoin="round"/>
<path d="M1369.85 54.5518C1342.75 20.6558 1303.53 4.61581 1262.49 3.25392C1233.87 2.19467 1204.04 8.2475 1177.38 20.5045C1153.61 31.3996 1131.65 46.3805 1111.36 64.2364C1075.77 95.7112 1043.97 130.212 1005.96 156.24C992.789 165.319 978.554 173.188 963.411 179.694C912.227 201.939 854.077 206.781 808.648 176.819C778.967 157.148 758.069 126.127 738.383 93.4414C729.297 78.3093 720.514 63.3284 711.277 49.2556C681.142 3.10258 640.709 -29.2801 588.617 -36.6949C539.553 -43.807 495.032 -2.95027 449.299 19.7479C391.906 48.3476 325.276 52.1307 266.066 31.097C242.292 22.7743 223.211 -0.226442 198.073 -10.6676C184.747 -16.2665 171.27 -17.931 157.944 -18.9903C130.08 -21.1088 108.728 -34.1224 82.3793 -27.0103C75.5648 -25.0432 68.9018 -21.4114 62.0873 -17.7797C54.97 -13.9967 45.5813 -10.8189 42.0984 -10.2137" stroke="white" stroke-opacity="0.16" stroke-width="1.0073" stroke-miterlimit="10" stroke-linecap="round" stroke-linejoin="round"/>
<path d="M1367.28 36.3937C1340.32 2.64908 1300.5 -11.4238 1259.16 -10.9698C1230.54 -10.6672 1201.01 -3.10113 1175.11 9.9125C1151.79 21.5642 1130.29 36.8477 1110 54.0983C1074.56 84.3626 1042.15 117.956 1004.75 144.437C991.879 153.668 977.796 161.99 963.107 168.951C912.529 193.163 855.136 201.334 808.343 173.793C777.451 155.484 755.342 124.917 735.05 92.2313C725.813 77.4018 717.03 62.2697 707.944 47.8941C678.566 1.13587 639.648 -41.688 587.555 -46.2277C534.251 -50.9186 487.004 -10.8185 437.94 13.8469C376.459 44.5651 304.983 48.1968 241.382 25.9526C220.333 18.5378 201.101 1.28721 178.689 -9.15396C166.877 -14.7528 154.914 -18.2332 142.951 -20.6544C119.024 -25.648 98.1269 -33.9707 75.1092 -26.8586C69.0519 -24.8914 63.146 -21.7136 57.0888 -18.2332C50.88 -14.4502 43.4599 -10.5159 39.0684 -7.33813" stroke="white" stroke-opacity="0.16" stroke-width="1.0073" stroke-miterlimit="10" stroke-linecap="round" stroke-linejoin="round"/>
<path d="M1364.71 18.3873C1319.43 -38.2069 1235.08 -34.4239 1172.84 -0.527895C1110.6 33.3681 1061.39 90.2649 1003.69 132.786C945.997 175.307 870.281 203.302 808.194 170.919C761.401 146.405 733.689 94.0479 704.917 46.8357C676.145 -0.376547 638.59 -48.648 586.952 -55.4575C530.013 -63.0236 479.435 -18.3838 427.039 8.09743C361.621 41.0855 285.148 44.5658 217.155 20.8084C160.67 1.13665 94.3432 -68.0172 36.4961 -4.46226" stroke="white" stroke-opacity="0.16" stroke-width="1.0073" stroke-miterlimit="10" stroke-linecap="round" stroke-linejoin="round"/>
<path d="M1362.89 7.64233C1312.16 -51.9782 1221.15 -47.7412 1154.37 -9.30562C1094.85 25.0443 1047 79.8226 990.667 120.377C932.669 162.141 857.559 184.991 796.986 150.792C750.95 124.462 722.33 73.4671 691.135 32.1564C660.243 -8.85167 623.445 -49.2544 573.321 -52.2808C518.351 -55.6099 468.832 -11.7268 416.891 13.0899C352.987 43.6568 279.391 44.8674 213.821 21.2612C158.851 1.43816 87.2235 -69.9854 33.1623 -3.10144" stroke="white" stroke-opacity="0.16" stroke-width="1.0073" stroke-miterlimit="10" stroke-linecap="round" stroke-linejoin="round"/>
<path d="M1361.07 -3.10242C1304.89 -65.9007 1207.07 -61.0585 1136.04 -18.0833C1079.11 16.418 1032.92 69.5318 977.949 108.119C919.496 148.975 844.992 166.983 786.085 130.817C740.806 102.974 711.58 53.3404 677.508 17.6286C644.496 -17.024 608.455 -49.8607 559.845 -48.9528C506.995 -47.8935 458.386 -5.0696 406.899 18.0826C344.66 46.2283 273.79 45.0177 210.491 21.5629C157.187 1.58852 80.2597 -72.1049 29.8328 -1.74054" stroke="white" stroke-opacity="0.16" stroke-width="1.0073" stroke-miterlimit="10" stroke-linecap="round" stroke-linejoin="round"/>
<path d="M1359.41 -13.6945C1297.77 -79.5192 1193.13 -74.5256 1117.72 -26.5568C1063.36 7.94448 1018.68 59.545 965.077 96.0134C906.321 136.114 832.271 148.976 775.029 110.994C730.508 81.3353 700.828 33.3664 663.878 3.2535C629.049 -25.0436 593.462 -50.3142 546.367 -45.4719C495.637 -40.327 447.936 1.74031 396.903 23.3792C336.179 49.1039 268.186 45.6234 207.159 22.1687C155.369 2.19425 73.293 -74.0716 26.5005 -0.226872" stroke="white" stroke-opacity="0.16" stroke-width="1.0073" stroke-miterlimit="10" stroke-linecap="round" stroke-linejoin="round"/>
<path d="M1357.59 -24.4392C1290.5 -93.2904 1179.05 -88.1455 1099.4 -35.3344C1047.45 -0.833151 1004.45 49.1029 952.203 83.6041C892.993 122.796 819.7 130.665 764.124 90.8675C720.36 59.544 690.528 12.9371 650.247 -11.4256C613.752 -33.5185 578.469 -51.0718 532.888 -42.2952C484.126 -32.9133 437.485 8.39746 386.907 28.3719C327.848 51.6753 262.733 45.9251 203.977 22.6217C153.701 2.49595 66.4767 -76.0398 23.3185 1.28537" stroke="white" stroke-opacity="0.16" stroke-width="1.0073" stroke-miterlimit="10" stroke-linecap="round" stroke-linejoin="round"/>
<path d="M1355.77 -35.1821C1283.24 -107.06 1164.82 -102.066 1080.92 -44.11C1031.4 -9.91144 990.063 38.6627 939.333 71.348C879.82 109.632 806.981 112.356 753.071 70.8941C710.065 37.7547 680.233 -7.33898 636.62 -25.9515C598.762 -41.9915 563.478 -51.6761 519.412 -38.8138C472.77 -25.3462 427.038 15.2079 376.763 33.5177C319.37 54.4001 256.98 46.2287 200.496 23.0766C151.734 2.79954 59.361 -78.006 19.8372 2.64821" stroke="white" stroke-opacity="0.16" stroke-width="1.0073" stroke-miterlimit="10" stroke-linecap="round" stroke-linejoin="round"/>
<path d="M1353.96 -45.926C1275.97 -120.981 1150.58 -115.988 1062.6 -52.8868C1015.35 -18.9908 975.83 28.2214 926.463 58.9397C866.496 96.316 794.414 94.0462 742.018 50.7683C699.769 15.8131 670.24 -28.2214 622.841 -40.4784C583.772 -50.6169 548.337 -52.4328 505.784 -35.4848C461.263 -17.9316 416.591 22.0172 366.618 38.6626C310.891 57.2751 251.227 46.8339 197.166 23.6818C149.919 3.40473 52.3967 -79.8219 16.5073 4.31268" stroke="white" stroke-opacity="0.16" stroke-width="1.0073" stroke-miterlimit="10" stroke-linecap="round" stroke-linejoin="round"/>
<path d="M1352.14 -56.5177C1268.7 -134.599 1136.04 -130.06 1044.28 -61.5113C999.3 -28.0693 961.442 17.9324 913.589 46.6834C853.168 83.0005 781.843 75.7371 730.962 30.7947C689.47 -5.9764 660.092 -49.2543 609.211 -55.0045C568.93 -59.6955 533.343 -53.1886 492.305 -32.155C449.904 -10.516 406.14 28.8275 356.622 43.8083C302.561 60.151 245.622 47.2887 193.832 24.1365C148.1 3.70817 45.2775 -81.9397 13.1739 5.67533" stroke="white" stroke-opacity="0.16" stroke-width="1.0073" stroke-miterlimit="10" stroke-linecap="round" stroke-linejoin="round"/>
<path d="M1350.47 -67.2616C1261.58 -148.37 1121.66 -144.284 1025.95 -70.1367C983.249 -37.1486 947.208 7.64247 900.87 34.5776C839.994 69.9868 769.427 57.5785 720.06 10.8202C679.325 -27.7667 650.099 -65.597 595.583 -69.5314C554.242 -72.5578 518.353 -53.9453 478.829 -28.8259C438.396 -3.10133 395.693 35.7882 346.628 48.9532C294.384 63.026 240.172 47.5913 190.653 24.5904C146.435 4.01074 38.4641 -83.9069 9.99485 7.18849" stroke="white" stroke-opacity="0.16" stroke-width="1.0073" stroke-miterlimit="10" stroke-linecap="round" stroke-linejoin="round"/>
<path d="M1348.65 -78.0064C1254.31 -162.141 1106.97 -158.812 1007.63 -78.9143C967.197 -46.3803 932.822 -2.9511 887.998 22.1682C826.517 56.5181 756.858 39.1162 709.005 -9.30658C669.179 -49.7094 639.801 -92.2307 581.802 -84.2106C538.796 -78.3091 503.209 -54.8543 465.351 -25.6493C426.887 4.00966 385.395 42.4453 336.634 53.7943C286.056 65.5974 234.569 47.5902 187.322 24.892C144.618 4.16102 31.4982 -86.0265 6.6633 8.39798" stroke="white" stroke-opacity="0.16" stroke-width="1.0073" stroke-miterlimit="10" stroke-linecap="round" stroke-linejoin="round"/>
<path d="M1346.84 -88.5989C1247.04 -175.76 1091.98 -173.339 989.155 -87.5397C950.842 -55.4596 918.436 -13.3923 874.975 9.91116C813.039 43.2018 744.289 20.8063 697.799 -29.281C658.881 -71.651 629.201 -113.87 568.022 -98.7375C523.501 -87.691 487.914 -55.7622 451.722 -22.3202C415.227 11.2731 374.795 49.406 326.488 58.9393C277.575 68.6238 228.966 48.0441 183.839 25.3459C142.801 4.46361 24.3807 -87.9936 3.18021 9.75987" stroke="white" stroke-opacity="0.16" stroke-width="1.0073" stroke-miterlimit="10" stroke-linecap="round" stroke-linejoin="round"/>
<path d="M1345.02 -99.3411C1239.77 -189.68 1076.83 -188.318 970.831 -96.3147C934.488 -64.8399 904.05 -23.8318 862.254 -2.34418C799.864 29.7359 731.72 2.64943 686.896 -49.2538C648.735 -93.2882 618.6 -135.507 554.393 -113.263C508.055 -97.0713 472.771 -56.5172 438.245 -18.9895C403.718 18.5382 364.497 56.3685 316.493 64.0858C269.246 71.6519 223.362 48.4997 180.659 25.9529C141.135 5.07053 17.5661 -89.9592 9.98181e-06 11.426" stroke="white" stroke-opacity="0.16" stroke-width="1.0073" stroke-miterlimit="10" stroke-linecap="round" stroke-linejoin="round"/>
<path d="M1364.86 -84.3618C1303.98 -135.811 1221.75 -159.266 1144.98 -148.522C1086.53 -140.351 1029.74 -117.199 983.097 -84.8158C971.891 -76.9471 961.291 -68.6244 950.691 -60.4531C926.462 -41.5379 903.596 -22.4714 875.278 -11.879C866.798 -8.70122 858.317 -6.43141 849.534 -5.22084C796.079 2.34523 739.898 -24.7413 699.011 -65.7493C688.411 -76.3418 678.265 -86.6316 667.967 -95.7109C639.044 -121.284 609.06 -137.173 561.965 -120.074C529.71 -108.271 502.452 -85.4211 476.86 -59.9991C465.351 -48.4987 454.297 -36.5443 443.242 -24.7413C407.807 12.9377 368.434 51.3733 321.036 62.1171C308.013 65.1435 294.99 65.7489 282.118 64.9923C260.918 63.6304 240.02 58.0315 219.274 50.3141C207.765 45.9258 196.256 40.6295 185.202 35.0306C168.241 26.4053 139.318 5.37166 109.788 -10.3657C64.6616 -34.2745 15.7492 -47.4394 1.81741 10.2139" stroke="white" stroke-opacity="0.16" stroke-width="1.0212" stroke-miterlimit="10" stroke-linecap="round" stroke-linejoin="round"/>
<path d="M1384.54 -69.229C1323.21 -120.527 1237.81 -145.646 1160.88 -132.33C1101.21 -122.04 1043.37 -98.5853 995.514 -73.012C984.157 -66.9591 973.254 -60.6036 962.653 -54.5508C938.273 -40.7806 916.164 -27.1617 888.603 -20.9575C880.426 -19.1416 872.097 -18.0824 863.617 -17.7797C811.221 -16.7205 754.737 -44.5636 711.427 -81.94C700.221 -91.6245 689.318 -100.855 678.415 -108.875C647.826 -131.271 616.479 -144.284 570.141 -126.428C537.583 -114.02 509.568 -91.0192 483.371 -65.4459C471.559 -53.9455 460.202 -41.8398 448.844 -30.0368C412.652 7.94486 373.128 46.8344 326.336 60.756C313.464 64.539 300.743 66.3548 288.023 66.6575C266.974 67.4141 246.228 64.2364 225.33 58.1835C213.367 54.8545 201.707 50.0122 190.349 44.4133C172.178 35.4853 143.557 13.5438 114.785 -3.10156C70.2639 -28.8262 21.5028 -45.0176 4.08808 9.30675" stroke="white" stroke-opacity="0.16" stroke-width="1.0351" stroke-miterlimit="10" stroke-linecap="round" stroke-linejoin="round"/>
<path d="M1404.38 -54.097C1342.45 -105.244 1254.01 -131.876 1176.78 -116.29C1115.9 -103.882 1057.15 -80.1242 1007.93 -61.5117C996.423 -57.1234 985.217 -52.8864 974.465 -49.1034C950.085 -40.4781 928.581 -32.3067 901.929 -30.4908C894.055 -30.0369 886.029 -30.0369 877.851 -30.9448C826.516 -36.3924 769.578 -64.8408 723.996 -98.7367C712.185 -107.665 700.373 -115.685 688.864 -122.645C656.761 -141.863 624.051 -151.85 578.167 -133.541C545.307 -120.527 516.686 -97.3749 489.882 -71.8016C477.768 -60.3012 465.956 -48.1955 454.296 -36.2411C417.346 1.89187 377.671 41.2354 331.333 58.486C318.764 63.177 306.044 65.9008 293.626 67.5653C272.729 70.2891 252.134 69.6838 230.934 65.4468C218.668 63.0257 206.704 58.7887 195.044 53.1898C175.661 43.9592 147.192 20.9584 119.328 3.55643C75.5642 -23.8327 26.9545 -43.2019 6.05684 7.79341" stroke="white" stroke-opacity="0.16" stroke-width="1.0489" stroke-miterlimit="10" stroke-linecap="round" stroke-linejoin="round"/>
<path d="M1424.07 -39.1153C1361.53 -89.9592 1269.91 -118.408 1192.53 -100.249C1130.44 -85.7222 1070.93 -61.5109 1020.2 -49.8591C1008.54 -47.1353 997.181 -45.0168 986.126 -43.3523C961.897 -39.8719 940.848 -37.1481 914.953 -39.8719C907.381 -40.6285 899.507 -41.8391 891.633 -43.8063C841.357 -55.912 783.964 -84.8143 736.112 -115.381C723.543 -123.401 711.125 -130.362 698.859 -136.264C665.242 -152.455 631.169 -159.416 585.74 -140.5C552.576 -126.73 523.35 -103.578 495.789 -77.8535C483.372 -66.2018 471.257 -54.0961 459.294 -41.9904C421.587 -3.70612 381.609 36.2427 335.877 56.5197C323.459 62.1186 311.042 65.7503 298.776 68.6254C278.181 73.4677 257.586 75.2836 236.234 72.8624C223.666 71.5005 211.4 67.5662 199.436 62.1186C178.842 52.5854 150.675 28.6766 123.569 10.2154C80.5623 -18.9896 31.9525 -41.3851 7.57194 6.43241" stroke="white" stroke-opacity="0.16" stroke-width="1.0628" stroke-miterlimit="10" stroke-linecap="round" stroke-linejoin="round"/>
<path d="M1443.9 -23.984C1380.91 -74.6766 1286.11 -104.638 1208.58 -84.0585C1145.28 -67.4132 1085.16 -42.7478 1032.61 -38.2082C1020.8 -37.149 1009.45 -36.9977 997.936 -37.7543C974.01 -39.1162 953.264 -42.1425 928.126 -49.2546C920.857 -51.3731 913.286 -53.643 905.563 -56.6694C856.347 -75.2819 798.652 -104.79 748.528 -131.876C735.353 -138.988 722.179 -144.89 709.155 -149.732C674.023 -162.746 638.588 -166.68 593.613 -147.311C560.146 -132.935 530.314 -109.632 501.996 -83.7559C489.276 -72.1041 476.859 -59.9985 464.593 -47.7414C425.977 -9.30584 385.999 31.0969 340.873 54.703C328.758 61.0585 316.492 65.9008 304.377 69.9865C283.934 76.9472 263.491 81.1842 241.987 80.579C228.964 80.2763 216.395 76.7959 204.281 71.3484C182.475 61.5125 154.46 36.5445 128.262 17.3267C86.0123 -13.5428 37.4026 -39.1162 9.69058 5.37229" stroke="white" stroke-opacity="0.16" stroke-width="1.0767" stroke-miterlimit="10" stroke-linecap="round" stroke-linejoin="round"/>
<path d="M1463.74 -9.00266C1400.14 -59.544 1302.32 -91.0187 1224.48 -68.1692C1159.97 -49.2541 1099.09 -23.9834 1045.03 -26.7072C1033.07 -27.3125 1021.56 -29.1284 1009.9 -32.1548C986.126 -38.359 965.835 -46.9843 941.605 -58.636C934.488 -61.9651 927.219 -65.5968 919.799 -69.5312C871.644 -94.9531 813.494 -124.763 761.098 -148.369C747.167 -154.574 733.386 -159.416 719.606 -163.199C682.959 -173.186 646.161 -173.943 601.792 -153.968C568.174 -138.836 537.585 -115.533 508.661 -89.6569C495.638 -78.0051 482.918 -65.7481 470.349 -53.4911C430.976 -14.9042 390.695 26.1039 346.174 52.8877C334.211 60.1512 322.248 66.0527 310.285 71.3489C290.145 80.4282 269.701 87.2377 248.046 88.2969C234.72 88.9022 221.849 86.0271 209.431 80.5795C186.262 70.441 158.701 44.4137 133.261 24.4393C91.7684 -8.24605 43.3102 -36.8457 11.9637 4.46497" stroke="white" stroke-opacity="0.16" stroke-width="1.0906" stroke-miterlimit="10" stroke-linecap="round" stroke-linejoin="round"/>
<path d="M1483.43 6.12892C1419.22 -44.1097 1318.37 -77.0978 1240.23 -51.9784C1174.66 -30.7935 1112.88 -4.91754 1057.3 -15.0561C1045.19 -17.3259 1033.53 -20.9576 1021.56 -26.5564C997.939 -37.4516 978.101 -51.8271 954.629 -68.0185C947.815 -72.7094 940.849 -77.4004 933.58 -82.394C886.485 -114.474 827.881 -144.738 773.214 -164.864C758.676 -170.16 744.139 -174.095 729.753 -176.667C691.592 -183.628 653.431 -181.207 609.515 -160.778C575.595 -144.89 544.248 -121.586 514.719 -95.559C501.393 -83.9072 488.37 -71.6502 475.498 -59.2418C435.369 -20.5036 394.936 20.9584 351.021 50.92C339.209 58.94 327.549 65.9008 315.889 72.4076C295.9 83.4541 275.608 92.9873 253.802 95.7111C240.173 97.527 226.998 94.9545 214.278 89.5069C189.897 79.0658 162.639 52.1306 137.956 31.0969C97.2208 -3.40432 48.7625 -35.0304 14.0846 2.95121" stroke="white" stroke-opacity="0.16" stroke-width="1.1045" stroke-miterlimit="10" stroke-linecap="round" stroke-linejoin="round"/>
<path d="M1503.27 21.1098C1438.45 -28.9775 1334.42 -63.4788 1256.28 -35.9383C1189.5 -12.4835 1126.96 14.149 1069.72 -3.40424C1057.45 -7.18727 1045.49 -12.9375 1033.37 -20.8062C1009.75 -36.241 990.517 -56.518 967.802 -77.4003C961.291 -83.3019 954.476 -89.2034 947.511 -95.2563C901.627 -134.146 842.417 -164.713 785.478 -181.358C770.335 -185.746 755.04 -188.622 739.897 -190.135C700.222 -194.069 660.698 -188.47 617.237 -167.588C583.013 -151.094 551.061 -127.639 520.775 -101.612C507.146 -89.8087 493.82 -77.5517 480.494 -64.992C439.607 -26.1024 398.872 15.8136 355.562 49.1043C344.054 58.0322 332.393 66.0522 321.036 73.7696C301.198 86.9346 281.209 99.0403 259.1 103.429C245.168 106.304 231.691 104.034 218.668 98.7376C193.076 87.9938 165.969 59.9994 142.195 38.2091C102.217 1.74069 53.9097 -32.6092 15.7488 2.04334" stroke="white" stroke-opacity="0.16" stroke-width="1.1184" stroke-miterlimit="10" stroke-linecap="round" stroke-linejoin="round"/>
<path d="M1522.95 36.2416C1457.69 -13.6944 1350.47 -49.5576 1272.03 -19.8986C1204.04 5.82601 1140.59 33.2152 1081.98 8.09583C1069.57 2.79958 1057.3 -4.91779 1045.03 -15.2076C1021.26 -35.3334 1002.78 -61.5119 980.978 -86.7826C974.769 -94.046 968.258 -101.158 961.443 -108.119C916.771 -153.667 856.955 -184.687 797.745 -197.852C781.845 -201.333 765.944 -203.3 750.044 -203.603C708.854 -204.662 667.968 -195.734 624.961 -174.246C590.435 -156.996 557.877 -133.541 526.984 -107.362C513.053 -95.5592 499.272 -83.3022 485.795 -70.5912C444.151 -31.5503 403.113 10.8196 360.561 47.4394C349.203 57.1239 337.846 66.2032 326.64 75.1311C307.105 90.4146 287.116 105.093 264.856 111.146C250.469 115.08 236.841 113.264 223.515 107.968C196.711 97.0727 169.908 67.8677 146.89 45.3209C107.82 7.03659 59.3622 -30.3398 17.7183 0.983711" stroke="white" stroke-opacity="0.16" stroke-width="1.1323" stroke-miterlimit="10" stroke-linecap="round" stroke-linejoin="round"/>
<path d="M1542.79 51.2228C1476.92 1.4381 1366.83 -35.6356 1287.93 -3.85814C1218.88 24.2876 1154.37 52.4334 1094.4 19.5967C1081.68 12.6359 1069.26 3.1026 1056.84 -9.7597C1032.92 -34.5764 1015.05 -66.5052 994.151 -96.3155C988.094 -104.789 981.885 -113.112 975.373 -121.132C931.912 -173.489 871.491 -204.661 810.161 -214.497C793.655 -217.07 776.997 -217.978 760.34 -217.221C717.636 -215.405 675.386 -203.148 632.834 -181.207C598.156 -163.199 564.841 -139.745 533.192 -113.415C518.957 -101.612 504.874 -89.2033 491.093 -76.4923C448.541 -37.3001 407.352 5.52379 365.405 45.3213C354.35 55.7624 343.144 66.0523 332.09 76.1908C312.858 93.7441 292.869 110.843 270.457 118.561C255.768 123.554 241.685 122.192 228.207 116.896C200.192 105.698 173.692 75.4342 151.431 51.9794C113.119 11.8793 64.6606 -28.5235 19.6853 -0.377766" stroke="white" stroke-opacity="0.16" stroke-width="1.1462" stroke-miterlimit="10" stroke-linecap="round" stroke-linejoin="round"/>
<path d="M1562.48 66.3536C1496 16.8715 1382.88 -21.8667 1303.83 12.3319C1218.73 49.1029 1140.44 83.7555 1068.66 -3.85947C1037.76 -41.6898 1018.23 -93.2903 989.306 -133.693C935.547 -208.748 851.654 -239.315 770.486 -230.539C689.319 -221.762 610.423 -177.122 539.401 -119.318C468.228 -61.5128 403.566 9.45677 337.542 77.4C318.462 96.9204 298.775 116.744 275.909 126.125C228.965 145.343 187.473 94.348 155.975 58.7875C118.571 16.7202 70.1128 -26.5577 21.5031 -1.74098" stroke="white" stroke-opacity="0.16" stroke-width="1.1601" stroke-miterlimit="10" stroke-linecap="round" stroke-linejoin="round"/>
</g>
<defs>
<clipPath id="clip0_194_257">
<rect width="1366" height="350" fill="white"/>
</clipPath>
</defs>
</svg>
