<svg width="139" height="62" viewBox="0 0 139 62" fill="none" xmlns="http://www.w3.org/2000/svg">
<path d="M17.8683 1.77435C23.8447 1.77885 29.6855 3.49559 34.6522 6.70749C39.6188 9.91939 43.4881 14.4822 45.7709 19.8189C48.0537 25.1556 48.6474 31.0265 47.4769 36.6892C46.3064 42.352 43.4243 47.5521 39.195 51.6322C34.9658 55.7122 29.5793 58.4889 23.7168 59.6111C17.8543 60.7332 11.7791 60.1505 6.2594 57.9365C0.739683 55.7225 -3.97661 51.9768 -7.29306 47.1729C-10.6095 42.369 -12.3772 36.7228 -12.3725 30.9483C-12.3415 23.2123 -9.14401 15.8023 -3.47813 10.3363C2.18776 4.87028 9.86174 1.79229 17.8683 1.77435Z" fill="white"/>
<path d="M17.8683 1.32028C23.9376 1.32477 29.8693 3.06815 34.9132 6.32994C39.9571 9.59174 43.8867 14.2255 46.2051 19.6451C48.5234 25.0648 49.1264 31.027 47.9378 36.7778C46.7491 42.5286 43.8223 47.8097 39.5273 51.9533C35.2323 56.0968 29.7621 58.9167 23.8085 60.0564C17.8548 61.1961 11.6851 60.6043 6.07953 58.356C0.473948 56.1076 -4.31574 52.3037 -7.68383 47.4252C-11.0519 42.5466 -12.8472 36.8127 -12.8425 30.9483C-12.7806 23.1115 -9.51996 15.6151 -3.76927 10.0884C1.98142 4.56174 9.75732 1.45152 17.8683 1.4338" stroke="#008E84" stroke-width="2.64059" stroke-miterlimit="2.61"/>
<path d="M116.862 46.6818V13.0126H125.133V25.8854H129.691V13.0126H138.291V46.6818H129.691V32.5148H125.133V46.7045L116.862 46.6818ZM88.0075 46.6818H79.8305V13.0126H88.031V30.8802M-49.6858 46.6818V13.0126H-36.7389L-34.3892 30.0629L-32.0394 13.0126H-18.3171V46.6818H-26.6821V20.7545L-31.3815 46.6818H-36.7389L-41.9787 20.7545V46.6818H-49.6858Z" fill="#008E84"/>
<path d="M-5.04141 24.1827L-12.4195 31.1072M0.0339767 23.6151L6.19023 25.6811M-3.02065 20.0506L-3.74907 10.2881M-4.05453 37.8728L-12.678 30.9256M-4.05453 51.0181L-3.02065 41.9368M6.37821 35.9431L0.973862 37.8047M11.4066 52.176L17.3749 59.8725M7.03612 50.11L-3.84305 51.2225M10.2552 46.8634L11.4771 40.5064M29.7579 49.9057L38.8748 51.3814M24.7765 51.6084L17.7273 60.0541M22.9672 40.5064L25.3169 46.8634M39.0392 51.4041L38.1463 41.8232M40.4961 37.6912L47.8742 30.744M28.912 35.6252L35.5617 38.0999M41.7414 25.4768L47.8742 30.9256M39.1097 21.3447L41.201 12.7174M28.7475 25.8627L36.2901 24.387M30.8152 12.3542L41.3655 12.5358M23.2727 21.0042L26.0923 14.3521M24.8705 9.81137L17.8213 1.72894M5.88477 11.4914L-3.51409 10.379M10.5842 9.42541L17.2339 1.72894M11.7121 21.0042L9.97327 14.5791M9.24486 37.8728L-3.89005 51.0181M9.43283 23.6151L-3.74907 10.2881M25.9278 37.6912L39.1097 51.3133M25.5049 23.4334L41.201 12.5358M6.82465 30.6986L-12.49 31.0618M28.395 31.0618L47.8742 30.8802M17.3279 39.9616L17.5159 59.759M17.5159 21.1631V2.02408M6.56618 25.8627L-3.51409 10.4471L11.7121 21.1631M11.7121 40.4837L-4.05453 51.3587L6.4487 35.8068M28.7475 35.6025L39.2742 51.2225L22.9672 40.2794M23.1552 21.1631L41.248 12.6947L28.583 25.84M6.16673 35.6025L-12.3255 30.9483L6.47219 25.8627M23.1552 40.2794L17.7508 60.2131L11.7591 40.2794M28.7945 25.8627L47.9212 30.9256L28.7945 35.6252M11.8765 21.1631L17.6568 1.63812L23.2727 20.9815M6.47219 25.8627L9.64431 23.7286L11.994 21.0269M28.7005 25.8173L25.7868 23.6832L23.3901 21.1631M23.3901 40.5973L25.9983 37.9864L28.8415 35.9658M6.37821 35.9658L9.76179 38.2361L11.947 40.6427M24.612 24.9092L10.5137 37.169M10.5137 24.9092L24.8235 37.0555M11.9705 31.0164H23.5076M17.7508 35.8068V25.8173M6.37821 35.8522L11.9705 30.7667L6.4252 25.8173M11.9705 20.9815L17.7273 25.8173L23.3431 21.1631M28.912 35.9431L23.3901 30.8802L28.912 25.8173M11.9705 40.5292L17.7273 35.8522L23.3431 40.5292M-5.04141 24.1827L-12.4195 31.1072M0.0339767 23.6151L6.19023 25.6811M-3.02065 20.0506L-3.74907 10.2881M-4.05453 37.8728L-12.678 30.9256M-4.05453 51.0181L-3.02065 41.9368M6.37821 35.9431L0.973862 37.8047M11.4066 52.176L17.3749 59.8725M7.03612 50.11L-3.84305 51.2225M10.2552 46.8634L11.4771 40.5064M29.7579 49.9057L38.8748 51.3814M24.7765 51.6084L17.7273 60.0541M22.9672 40.5064L25.3169 46.8634M39.0392 51.4041L38.1463 41.8232M40.4961 37.6912L47.8742 30.744M28.912 35.6252L35.5617 38.0999M41.7414 25.4768L47.8742 30.9256M39.1097 21.3447L41.201 12.7174M28.7475 25.8627L36.2901 24.387M30.8152 12.3542L41.3655 12.5358M23.2727 21.0042L26.0923 14.3521M24.8705 9.81137L17.8213 1.72894M5.88477 11.4914L-3.51409 10.379M10.5842 9.42541L17.2339 1.72894M11.7121 21.0042L9.97327 14.5791M9.24486 37.8728L-3.89005 51.0181M9.43283 23.6151L-3.74907 10.2881M25.9278 37.6912L39.1097 51.3133M25.5049 23.4334L41.201 12.5358M6.82465 30.6986L-12.49 31.0618M28.395 31.0618L47.8742 30.8802M17.3279 39.9616L17.5159 59.759M17.5159 21.1631V2.02408M6.56618 25.8627L-3.51409 10.4471L11.7121 21.1631M11.7121 40.4837L-4.05453 51.3587L6.4487 35.8068M28.7475 35.6025L39.2742 51.2225L22.9672 40.2794M23.1552 21.1631L41.248 12.6947L28.583 25.84M6.16673 35.6025L-12.3255 30.9483L6.47219 25.8627M23.1552 40.2794L17.7508 60.2131L11.7591 40.2794M28.7945 25.8627L47.9212 30.9256L28.7945 35.6252M11.8765 21.1631L17.6568 1.63812L23.2727 20.9815M6.47219 25.8627L9.64431 23.7286L11.994 21.0269M28.7005 25.8173L25.7868 23.6832L23.3901 21.1631M23.3901 40.5973L25.9983 37.9864L28.8415 35.9658M6.37821 35.9658L9.76179 38.2361L11.947 40.6427M24.612 24.9092L10.5137 37.169M10.5137 24.9092L24.8235 37.0555M11.9705 31.0164H23.5076M17.7508 35.8068V25.8173M6.37821 35.8522L11.9705 30.7667L6.4252 25.8173M11.9705 20.9815L17.7273 25.8173L23.3431 21.1631M28.912 35.9431L23.3901 30.8802L28.912 25.8173M11.9705 40.5292L17.7273 35.8522L23.3431 40.5292M-0.200996 34.1268L2.14872 41.6416L-7.97855 42.0276L-0.271484 34.1268H-0.200996ZM2.14872 19.5057L-1.42284 27.9741L-8.11953 20.7998L2.00774 19.5057H2.14872ZM6.37821 44.0709L14.4612 49.3154L7.88202 55.8994L6.28422 44.0709H6.37821ZM20.8055 48.2256L30.6038 45.6147L29.0529 55.2183L20.8055 48.2256ZM33.118 42.3908L37.6529 33.1959L43.1042 41.2557L33.118 42.3908ZM33.8229 20.2096L44.5141 22.2756L39.0862 28.6779L33.8464 20.2096H33.8229ZM20.8055 12.3542L29.7579 7.54102L32.2486 16.8494L20.8055 12.3542ZM6.94214 6.13341L14.3202 12.672L5.6028 16.8494L6.82465 6.13341H6.94214ZM-3.25562 10.4471L-12.3725 30.8802L-3.93704 50.9954L17.6333 60.0768L39.2272 51.2452L47.9916 30.9256L41.013 12.5131L17.5159 1.63812L-3.37311 10.4471H-3.25562ZM6.4487 25.8627L10.7017 24.7729L12.088 21.0042L17.9153 21.4582L23.4841 21.0042L24.706 24.7729L28.912 25.8627L28.348 30.9256L28.912 35.8522L24.8705 37.0555L23.4841 40.62L17.8683 39.9843L12.088 40.62L10.6077 37.0555L6.4487 35.7841L7.08312 30.8575L6.4487 25.7946V25.8627ZM-0.200996 34.1268L2.14872 41.6416L-7.97855 42.0276L-0.271484 34.1268H-0.200996ZM2.14872 19.5057L-1.42284 27.9741L-8.11953 20.7998L2.00774 19.5057H2.14872ZM6.37821 44.0709L14.4612 49.3154L7.88202 55.8994L6.28422 44.0709H6.37821ZM20.8055 48.2256L30.6038 45.6147L29.0529 55.2183L20.8055 48.2256ZM33.118 42.3908L37.6529 33.1959L43.1042 41.2557L33.118 42.3908ZM33.8229 20.2096L44.5141 22.2756L39.0862 28.6779L33.8464 20.2096H33.8229ZM20.8055 12.3542L29.7579 7.54102L32.2486 16.8494L20.8055 12.3542ZM6.94214 6.13341L14.3202 12.672L5.6028 16.8494L6.82465 6.13341H6.94214ZM-3.25562 10.4471L-12.3725 30.8802L-3.93704 50.9954L17.6333 60.0768L39.2272 51.2452L47.9916 30.9256L41.013 12.5131L17.5159 1.63812L-3.37311 10.4471H-3.25562ZM6.4487 25.8627L10.7017 24.7729L12.088 21.0042L17.9153 21.4582L23.4841 21.0042L24.706 24.7729L28.912 25.8627L28.348 30.9256L28.912 35.8522L24.8705 37.0555L23.4841 40.62L17.8683 39.9843L12.088 40.62L10.6077 37.0555L6.4487 35.7841L7.08312 30.8575L6.4487 25.7946V25.8627Z" stroke="#008E84" stroke-width="0.230527" stroke-miterlimit="2.61"/>
<path d="M63.4528 27.4747H64.9566C67.6353 27.4747 68.9746 26.0216 68.9746 23.1383C69.0836 22.5777 69.0536 22.0002 68.887 21.453C68.7204 20.9058 68.422 20.4045 68.0162 19.9903C67.6104 19.5761 67.1088 19.2606 66.5524 19.0698C65.9961 18.8791 65.4009 18.8184 64.8156 18.8928H63.4528V27.3839V27.4747ZM63.4528 33.5592V46.7726H55.0173V12.899H67.2593C74.0892 12.899 77.5041 16.3424 77.5041 23.2291C77.5041 30.1158 74.0892 33.5592 67.2593 33.5592H63.4528Z" fill="#008E84"/>
<path d="M102.012 18.3479C100.155 18.3479 99.2389 19.3014 99.2389 21.1631V38.2588C99.201 39.0396 99.4601 39.8067 99.9673 40.4156C100.217 40.7004 100.532 40.9261 100.886 41.0757C101.24 41.2252 101.625 41.2945 102.012 41.2784C103.868 41.2784 104.784 40.2794 104.784 38.2588V21.1631C104.813 20.4141 104.544 19.6828 104.032 19.1198C103.768 18.8641 103.453 18.6636 103.105 18.5308C102.757 18.3981 102.385 18.3358 102.012 18.3479ZM91.2968 21.6853C91.2096 20.3287 91.4485 18.9711 91.9947 17.7186C92.541 16.4661 93.3798 15.3527 94.4454 14.4656C96.6443 12.8473 99.3695 12.0421 102.129 12.1952C104.875 12.0368 107.587 12.8431 109.766 14.4656C110.82 15.3594 111.648 16.4751 112.186 17.7268C112.723 18.9785 112.957 20.3328 112.867 21.6853V36.8058C112.867 43.8438 109.272 47.3856 102.082 47.3856C94.8919 47.3856 91.2968 43.8666 91.2968 36.8512V21.6853Z" fill="#008E84"/>
</svg>
