<svg width="217" height="57" viewBox="0 0 217 57" fill="none" xmlns="http://www.w3.org/2000/svg">
<path d="M38.3361 10.0558H0V46.5402H38.3361V10.0558Z" fill="#016BAF"/>
<path fill-rule="evenodd" clip-rule="evenodd" d="M19.1174 28.408H38.2457V46.5013H19.1174V28.408Z" fill="#108FCF"/>
<path fill-rule="evenodd" clip-rule="evenodd" d="M9.85449 19.5906H19.1128V28.4062H9.85449V19.5906Z" fill="white"/>
<path d="M3.27504 51.5033L5.27059 56.4628H4.12189L3.69831 55.3438H1.61225L1.18554 56.4628H0.108643L2.11168 51.5033H3.27504ZM3.39647 54.5293L2.657 52.5028H2.64295L1.9375 54.5293H3.39647Z" fill="#016BAF"/>
<path d="M14.0187 51.5035L15.7558 54.6276L16.0217 55.3013H16.0429L16.0217 54.4235V51.5038H17.0415V56.4634H15.7205L13.9687 53.2178L13.7175 52.6656H13.6962L13.7175 53.5442V56.4634H12.698V51.5038H14.0187V51.5035Z" fill="#016BAF"/>
<path d="M27.6351 51.5035L29.6304 56.4631H28.482L28.0584 55.3441H25.9724L25.5456 56.4631H24.4688L26.4718 51.5035H27.6351ZM27.7566 54.5296L27.0171 52.5031H27.0031L26.2979 54.5296H27.7566Z" fill="#016BAF"/>
<path d="M38.0776 51.5035V55.6269H40.0737V56.4631H37.0581V51.5035H38.0776Z" fill="#016BAF"/>
<path d="M47.2074 51.5035L48.2413 53.246L48.3989 53.5864H48.4207L48.5931 53.246L49.6341 51.5035H50.7103L48.9018 54.4514V56.4631H47.8823V54.4366L46.03 51.5035H47.2074Z" fill="#016BAF"/>
<path d="M57.7149 55.408C57.9163 55.5018 58.1316 55.5761 58.3608 55.6272C58.5905 55.6798 58.7893 55.7053 58.9566 55.7053C59.0912 55.7053 59.2092 55.6881 59.3115 55.6528C59.4152 55.6165 59.4985 55.5708 59.5638 55.514C59.6277 55.4576 59.6771 55.3946 59.7111 55.323C59.7439 55.2514 59.761 55.1813 59.761 55.11C59.761 54.982 59.7295 54.876 59.6677 54.7883C59.6053 54.7007 59.5247 54.625 59.4274 54.5605C59.3287 54.4969 59.2201 54.4393 59.1002 54.3867C58.9807 54.3356 58.8633 54.2816 58.7491 54.2236C58.5621 54.1345 58.396 54.0445 58.2499 53.9545C58.1035 53.8657 57.9818 53.7674 57.8835 53.661C57.7858 53.5547 57.7115 53.4362 57.6612 53.3028C57.6113 53.1709 57.5857 53.0173 57.5857 52.8424C57.5857 52.7194 57.6075 52.5783 57.6509 52.4179C57.694 52.2578 57.7733 52.1042 57.8882 51.9601C58.0033 51.816 58.1638 51.6942 58.3704 51.595C58.5764 51.4967 58.8421 51.4468 59.1683 51.4468C59.4083 51.4468 59.6508 51.4617 59.8949 51.4926C60.14 51.5234 60.3769 51.579 60.6073 51.6595L60.4989 52.4529C60.3504 52.3923 60.1765 52.3356 59.9767 52.2857C59.7779 52.237 59.584 52.2114 59.3974 52.2114C59.2388 52.2114 59.1099 52.2289 59.0119 52.2655C58.9139 52.3002 58.8362 52.3436 58.7809 52.3962C58.7263 52.4488 58.6894 52.5052 58.6701 52.5661C58.6504 52.6273 58.6414 52.684 58.6414 52.7366C58.6414 52.8349 58.6617 52.9211 58.7022 52.9953C58.7431 53.0681 58.7946 53.1326 58.8571 53.189C58.9195 53.2455 58.99 53.2942 59.069 53.3346C59.1483 53.375 59.2291 53.4112 59.3112 53.4448C59.5219 53.5342 59.7201 53.6227 59.9046 53.7103C60.09 53.798 60.2517 53.9016 60.3909 54.0216C60.5302 54.1422 60.6391 54.2866 60.7184 54.4539C60.7974 54.6217 60.837 54.8281 60.837 55.0741C60.837 55.2725 60.7974 55.4597 60.719 55.6331C60.6397 55.8087 60.5208 55.9605 60.3625 56.0912C60.2049 56.2204 60.0051 56.3244 59.7651 56.4019C59.5254 56.4803 59.2426 56.5195 58.9164 56.5195C58.6723 56.5195 58.441 56.4952 58.2225 56.4483C58.0043 56.401 57.7989 56.3434 57.6072 56.2721L57.7149 55.408Z" fill="#016BAF"/>
<path d="M71.5099 51.5035V52.3813H69.5287V53.5018H71.3307V54.3166H69.5287V55.5853H71.5099V56.4631H68.5095V51.5035H71.5099Z" fill="#016BAF"/>
<path d="M98.9429 51.5035L100.938 56.4631H99.7898L99.3662 55.3441H97.2798L96.8538 56.4631H95.7769L97.7796 51.5035H98.9429ZM99.0647 54.5296L98.3252 52.5031H98.3112L97.606 54.5296H99.0647Z" fill="#016BAF"/>
<path d="M111.855 56.3072C111.631 56.3826 111.407 56.4376 111.188 56.4699C110.967 56.5035 110.757 56.5198 110.556 56.5198C110.245 56.5198 109.933 56.4741 109.623 56.3808C109.312 56.2893 109.032 56.1426 108.784 55.9418C108.534 55.7413 108.332 55.4825 108.176 55.1665C108.021 54.8504 107.944 54.4648 107.944 54.0118C107.944 53.5865 108.015 53.2137 108.159 52.892C108.302 52.5714 108.5 52.3032 108.751 52.0881C109.002 51.8737 109.298 51.7118 109.638 51.6057C109.977 51.4994 110.346 51.4468 110.743 51.4468C110.944 51.4468 111.132 51.4605 111.306 51.486C111.481 51.5116 111.665 51.5558 111.855 51.6167L111.813 52.4675C111.665 52.411 111.51 52.365 111.345 52.3329C111.184 52.299 111.006 52.283 110.815 52.283C110.533 52.283 110.28 52.3246 110.058 52.4069C109.834 52.4892 109.648 52.6065 109.495 52.7571C109.341 52.9092 109.223 53.0895 109.142 53.2995C109.061 53.5101 109.019 53.7427 109.019 53.9976C109.019 54.2949 109.067 54.5507 109.163 54.7664C109.26 54.982 109.387 55.1555 109.544 55.2906C109.701 55.4252 109.885 55.5244 110.093 55.588C110.302 55.6525 110.518 55.6834 110.743 55.6834C110.968 55.6834 111.167 55.662 111.343 55.6159C111.518 55.5717 111.667 55.5203 111.791 55.4635L111.855 56.3072Z" fill="#016BAF"/>
<path d="M122.987 51.5035V52.3813H121.538V56.4631H120.519V52.3813H119.067V51.5035H122.987Z" fill="#016BAF"/>
<path d="M150.168 51.5035L152.163 56.4631H151.014L150.591 55.3441H148.505L148.079 56.4631H147.001L149.005 51.5035H150.168ZM150.29 54.5296L149.551 52.5031H149.537L148.831 54.5296H150.29Z" fill="#016BAF"/>
<path d="M163.08 56.3072C162.855 56.3826 162.633 56.4376 162.412 56.4699C162.192 56.5035 161.982 56.5198 161.781 56.5198C161.47 56.5198 161.158 56.4741 160.848 56.3808C160.536 56.2893 160.256 56.1426 160.008 55.9418C159.759 55.7413 159.557 55.4825 159.401 55.1665C159.246 54.8504 159.169 54.4648 159.169 54.0118C159.169 53.5865 159.24 53.2137 159.384 52.892C159.527 52.5714 159.724 52.3032 159.976 52.0881C160.228 51.8737 160.522 51.7118 160.862 51.6057C161.201 51.4994 161.571 51.4468 161.968 51.4468C162.17 51.4468 162.356 51.4605 162.531 51.486C162.707 51.5116 162.889 51.5558 163.081 51.6167L163.038 52.4675C162.889 52.411 162.734 52.365 162.571 52.3329C162.408 52.299 162.232 52.283 162.039 52.283C161.758 52.283 161.504 52.3246 161.284 52.4069C161.06 52.4892 160.872 52.6065 160.719 52.7571C160.566 52.9092 160.448 53.0895 160.367 53.2995C160.286 53.5101 160.245 53.7427 160.245 53.9976C160.245 54.2949 160.293 54.5507 160.389 54.7664C160.485 54.982 160.611 55.1555 160.768 55.2906C160.927 55.4252 161.111 55.5244 161.318 55.588C161.527 55.6525 161.742 55.6834 161.968 55.6834C162.192 55.6834 162.392 55.662 162.568 55.6159C162.743 55.5717 162.891 55.5203 163.015 55.4635L163.08 56.3072Z" fill="#016BAF"/>
<path d="M171.708 51.5035V53.5021H173.745V51.5035H174.766V56.4631H173.745V54.3166H171.708V56.4631H170.688V51.5035H171.708Z" fill="#016BAF"/>
<path d="M182.588 51.5035H183.607V56.4631H182.588V51.5035Z" fill="#016BAF"/>
<path d="M194.431 51.5035V52.3813H192.449V53.5018H194.252V54.3166H192.449V55.5853H194.431V56.4631H191.431V51.5035H194.431Z" fill="#016BAF"/>
<path d="M202.627 51.5035L203.723 54.7274L203.948 55.4923H203.964L204.178 54.7274L205.277 51.5035H206.296L204.558 56.4631H203.302L201.551 51.5035H202.627Z" fill="#016BAF"/>
<path d="M216.651 51.5035V52.3813H214.67V53.5018H216.472V54.3166H214.67V55.5853H216.651V56.4631H213.651V51.5035H216.651Z" fill="#016BAF"/>
<path d="M65.289 30.0155C65.289 32.2609 63.8605 33.3822 61.0074 33.3822H49.6615V46.4623H42.6562V10.3587H61.0074C63.8605 10.3587 65.289 11.4643 65.289 13.6794V30.0155ZM58.2238 28.7462V14.9936H49.6615V28.7462H58.2238Z" fill="#333333"/>
<path d="M92.7091 46.4625H85.402L77.6786 29.6913V26.4392H84.5646V14.9938H75.7318V46.4625H68.7268V10.3589H87.3179C90.1315 10.3589 91.5396 11.4646 91.5396 13.6797V26.8081C91.5396 28.3326 90.8711 29.3144 89.5351 29.7626C88.8157 29.9928 87.297 30.106 84.9835 30.106L92.7091 46.4625Z" fill="#333333"/>
<path d="M119.075 43.1638C119.075 45.3637 117.661 46.4625 114.828 46.4625H99.6167C96.844 46.4625 95.4568 45.3637 95.4568 43.1638V13.6797C95.4568 11.4646 96.844 10.3589 99.6167 10.3589H114.828C117.661 10.3589 119.075 11.4646 119.075 13.6797V43.1638ZM112.069 41.8303V14.9938H102.46V41.8303H112.069Z" fill="#333333"/>
<path d="M146.523 46.4625H138.945L133.798 33.7499L128.62 46.4625H121.166V46.281L129.907 27.9842C124.419 16.2946 121.687 10.4207 121.704 10.3589H129.188L133.86 22.1231L138.559 10.3589H145.988V10.5663L137.782 27.8449L146.523 46.4625Z" fill="#333333"/>
<path d="M155.742 46.4625H148.731V10.3589H155.742V46.4625Z" fill="#333333"/>
<path d="M188.278 46.4625H181.54V28.6543C181.54 27.7144 181.68 26.408 181.959 24.7321L175.912 43.1638H172.346L166.274 24.7321C166.549 26.4392 166.69 27.7468 166.69 28.6543V46.4625H159.952V10.3589H166.571L173.937 30.3136C174.014 30.5314 174.074 31.0747 174.117 31.9551C174.117 31.5672 174.175 31.0203 174.296 30.3136L181.66 10.3589H188.278V46.4625Z" fill="#333333"/>
<path d="M216.085 46.4641H209.135L207.733 39.6135H198.959L197.552 46.4641H190.635V46.3768L199.71 10.3145H207.07L216.085 46.4641ZM206.745 34.9748L203.326 18.6881L199.886 34.9748H206.745Z" fill="#333333"/>
<path d="M155.308 0H149.002V6.22114H155.308V0Z" fill="#016BAF"/>
<path d="M152.239 0.579346C152.531 0.579346 152.771 0.618259 152.961 0.696384C153.151 0.774805 153.301 0.876694 153.411 1.00472C153.521 1.13156 153.598 1.27504 153.64 1.43693C153.685 1.59675 153.707 1.76012 153.707 1.92588C153.707 2.12906 153.677 2.29868 153.619 2.43621C153.561 2.57167 153.487 2.68514 153.401 2.77574C153.313 2.86604 153.221 2.93466 153.122 2.9816C153.026 3.02853 152.939 3.06091 152.865 3.07962V3.09477C152.972 3.12299 153.062 3.18211 153.133 3.27092C153.203 3.36153 153.267 3.47678 153.32 3.61907L154.03 5.53891H153.038L152.477 3.96602C152.423 3.81542 152.352 3.69927 152.265 3.61907C152.177 3.53886 152.061 3.49847 151.917 3.49847H151.579V5.53891H150.692V0.579346H152.239ZM151.579 2.719H152.052C152.194 2.719 152.313 2.69583 152.406 2.65157C152.499 2.60702 152.576 2.55176 152.632 2.48433C152.692 2.41839 152.733 2.34413 152.757 2.26184C152.783 2.17897 152.795 2.10143 152.795 2.03133C152.795 1.98885 152.789 1.93093 152.777 1.85815C152.764 1.78389 152.734 1.70992 152.686 1.63417C152.638 1.55872 152.564 1.49456 152.466 1.43931C152.365 1.38554 152.228 1.35851 152.052 1.35851H151.579V2.719Z" fill="white"/>
<path d="M160.974 0.579102V1.45689H159.252V2.57707H160.819V3.39217H159.252V4.66058H160.974V5.53866H158.365V0.579102H160.974Z" fill="#016BAF"/>
<path d="M165.453 4.48346C165.628 4.57763 165.815 4.65129 166.016 4.70268C166.215 4.75497 166.387 4.78081 166.534 4.78081C166.65 4.78081 166.752 4.76299 166.842 4.72823C166.93 4.69169 167.004 4.64595 167.06 4.58921C167.117 4.53277 167.159 4.4698 167.188 4.39761C167.216 4.32662 167.231 4.25651 167.231 4.18522C167.231 4.0569 167.205 3.95085 167.151 3.86322C167.097 3.77589 167.026 3.70043 166.941 3.63538C166.856 3.57241 166.762 3.51418 166.658 3.4622C166.554 3.41081 166.451 3.35704 166.353 3.29882C166.189 3.21 166.044 3.1194 165.918 3.02969C165.791 2.94088 165.685 2.84225 165.6 2.73591C165.515 2.62986 165.449 2.51134 165.407 2.37796C165.362 2.24578 165.34 2.0925 165.34 1.91724C165.34 1.79485 165.359 1.65286 165.396 1.49305C165.435 1.33264 165.503 1.17936 165.602 1.03529C165.704 0.891223 165.843 0.769729 166.021 0.670217C166.203 0.57219 166.433 0.522583 166.716 0.522583C166.924 0.522583 167.137 0.537138 167.348 0.568032C167.561 0.598925 167.768 0.653879 167.967 0.734677L167.873 1.5284C167.745 1.4678 167.592 1.41106 167.419 1.36116C167.247 1.31274 167.078 1.2869 166.916 1.2869C166.777 1.2869 166.667 1.30472 166.58 1.34126C166.494 1.37601 166.429 1.41938 166.381 1.47166C166.333 1.52394 166.298 1.58038 166.283 1.64128C166.266 1.70336 166.257 1.7595 166.257 1.81178C166.257 1.91041 166.276 1.99685 166.311 2.07111C166.347 2.14359 166.392 2.20864 166.446 2.26419C166.5 2.32063 166.562 2.36935 166.63 2.41005C166.699 2.45044 166.769 2.48698 166.839 2.51995C167.023 2.60907 167.196 2.69789 167.357 2.78552C167.517 2.87315 167.657 2.97682 167.779 3.09712C167.901 3.21802 167.995 3.36239 168.065 3.52904C168.133 3.69717 168.167 3.90332 168.167 4.14987C168.167 4.34771 168.133 4.53485 168.065 4.70892C167.995 4.88389 167.892 5.03657 167.755 5.16668C167.618 5.29619 167.445 5.39957 167.236 5.47769C167.026 5.55581 166.781 5.59503 166.497 5.59503C166.285 5.59503 166.084 5.57096 165.894 5.52344C165.705 5.4771 165.526 5.41858 165.359 5.34729L165.453 4.48346Z" fill="#016BAF"/>
<path d="M175.262 0.579102V1.45689H173.539V2.57707H175.106V3.39217H173.539V4.66058H175.262V5.53866H172.652V0.579102H175.262Z" fill="#016BAF"/>
<path d="M182.163 0.579102L183.896 5.53837H182.899L182.531 4.41908H180.716L180.345 5.53837H179.409L181.151 0.579102H182.163ZM182.268 3.60486L181.625 1.57749H181.612L181 3.60486H182.268Z" fill="#016BAF"/>
<path d="M189.715 0.579102C190.007 0.579102 190.247 0.618015 190.437 0.69614C190.627 0.774561 190.777 0.876449 190.887 1.00448C190.998 1.13132 191.074 1.27479 191.117 1.43669C191.162 1.5965 191.183 1.75988 191.183 1.92563C191.183 2.12882 191.153 2.29843 191.096 2.43597C191.037 2.57142 190.964 2.6849 190.878 2.7755C190.789 2.8658 190.698 2.93442 190.599 2.98135C190.502 3.02829 190.415 3.06067 190.341 3.07938V3.09453C190.449 3.12275 190.539 3.18186 190.61 3.27068C190.679 3.36128 190.743 3.47654 190.796 3.61882L191.507 5.53866H190.515L189.953 3.96578C189.899 3.81517 189.829 3.69903 189.741 3.61882C189.653 3.53862 189.537 3.49822 189.393 3.49822H189.056V5.53866H188.169V0.579102H189.715ZM189.056 2.71876H189.529C189.67 2.71876 189.789 2.69559 189.882 2.65133C189.976 2.60677 190.053 2.55152 190.109 2.48409C190.168 2.41814 190.209 2.34388 190.233 2.2616C190.259 2.17872 190.271 2.10119 190.271 2.03109C190.271 1.98861 190.266 1.93068 190.253 1.85791C190.24 1.78364 190.21 1.70968 190.162 1.63393C190.115 1.55848 190.041 1.49432 189.942 1.43906C189.841 1.3853 189.704 1.35827 189.529 1.35827H189.056V2.71876Z" fill="#016BAF"/>
<path d="M198.994 5.38263C198.799 5.45809 198.605 5.51274 198.415 5.54512C198.223 5.57869 198.041 5.59503 197.865 5.59503C197.595 5.59503 197.325 5.54928 197.054 5.4563C196.784 5.36422 196.541 5.21807 196.324 5.01756C196.108 4.81645 195.932 4.55832 195.796 4.24166C195.66 3.92501 195.594 3.54032 195.594 3.08732C195.594 2.66224 195.656 2.28885 195.781 1.96714C195.907 1.64692 196.077 1.37898 196.296 1.16332C196.516 0.948851 196.771 0.78785 197.068 0.680911C197.362 0.574864 197.682 0.522583 198.027 0.522583C198.202 0.522583 198.366 0.53595 198.518 0.561497C198.669 0.586746 198.827 0.631601 198.994 0.691605L198.958 1.54266C198.827 1.48651 198.693 1.44047 198.552 1.40809C198.41 1.37453 198.256 1.35819 198.089 1.35819C197.846 1.35819 197.625 1.40037 197.432 1.48235C197.238 1.56404 197.076 1.68197 196.943 1.83258C196.81 1.98497 196.708 2.16557 196.637 2.37529C196.566 2.58501 196.53 2.81819 196.53 3.07306C196.53 3.37041 196.572 3.62677 196.654 3.84183C196.739 4.05719 196.848 4.23126 196.985 4.36553C197.123 4.50039 197.282 4.59991 197.464 4.66347C197.644 4.72823 197.831 4.75912 198.027 4.75912C198.223 4.75912 198.398 4.73744 198.549 4.6914C198.7 4.64714 198.831 4.59575 198.938 4.5396L198.994 5.38263Z" fill="#016BAF"/>
<path d="M204.309 0.579102V2.57707H206.08V0.579102H206.968V5.53837H206.08V3.39188H204.309V5.53837H203.422V0.579102H204.309Z" fill="#016BAF"/>
</svg>
