<svg width="146" height="49" viewBox="0 0 146 49" fill="none" xmlns="http://www.w3.org/2000/svg">
<g clip-path="url(#clip0_337_11556)">
<path fill-rule="evenodd" clip-rule="evenodd" d="M21.0446 32.6978C21.898 32.6978 22.5374 32.4271 22.9654 31.8759C23.3949 31.319 23.6122 30.6743 23.6122 29.9401C23.6122 29.2255 23.3949 28.5921 22.9654 28.0385C22.5317 27.4856 21.8923 27.2133 21.0446 27.2133C20.201 27.2133 19.5591 27.493 19.1263 28.0491C18.6959 28.6043 18.4771 29.2369 18.4771 29.9393C18.4771 30.658 18.6959 31.2987 19.1296 31.858C19.564 32.419 20.201 32.6978 21.0446 32.6978Z" fill="#03428E"/>
<path fill-rule="evenodd" clip-rule="evenodd" d="M70.2965 38.1893H62.6073V21.7226H81.3415V38.1893H73.6532V26.9681H70.2965V38.1893Z" fill="#03428E"/>
<path fill-rule="evenodd" clip-rule="evenodd" d="M103.505 31.5027H91.3887C91.3887 32.3051 91.6018 33.023 92.0183 33.6539C92.442 34.2897 93.114 34.6084 94.0302 34.6084C95.2264 34.6084 95.9792 34.132 96.2944 33.1767H103.16C102.841 34.0742 102.391 34.8824 101.815 35.5978C101.24 36.3059 100.538 36.9084 99.7172 37.4068C98.895 37.8978 97.9805 38.275 96.9713 38.5255C95.9571 38.7783 94.854 38.9051 93.6537 38.9051C91.4475 38.9051 89.6422 38.4677 88.2386 37.5978C86.8342 36.7287 85.8274 35.6116 85.2134 34.2507C84.6002 32.8921 84.2899 31.4555 84.2899 29.9425C84.2899 28.0718 84.7129 26.4661 85.5523 25.1141C86.3925 23.7604 87.538 22.7376 88.9955 22.045C90.453 21.3563 92.0885 21.0116 93.9036 21.0116C97.6375 21.0116 100.175 22.0954 101.508 24.2734C102.842 26.4441 103.505 28.8547 103.505 31.5027ZM91.4924 28.162H96.5336C96.5336 27.4295 96.3229 26.7677 95.8992 26.1856C95.4844 25.6002 94.8589 25.3051 94.0302 25.3051C93.3263 25.3051 92.7368 25.5832 92.2559 26.1393C91.7823 26.6962 91.5243 27.3734 91.4924 28.162Z" fill="#03428E"/>
<path fill-rule="evenodd" clip-rule="evenodd" d="M124.936 21.7226V38.1893H117.255V32.2201H114.135V38.1893H106.445V21.7226H114.135V26.9681H117.255V21.7226H124.936Z" fill="#03428E"/>
<path fill-rule="evenodd" clip-rule="evenodd" d="M0 57.1507V-6.9371H20.7388V24.1556L32.2239 5.59623H54.9631L37.3239 30.0475L55.4833 57.1507H31.6327L20.7388 37.5475V57.1507H0ZM21.0441 21.0101C23.1295 21.0101 24.934 21.3808 26.4503 22.1361C27.9682 22.884 29.1122 23.9288 29.8936 25.2832C30.6709 26.6336 31.0587 28.1857 31.0587 29.9409C31.0587 31.6987 30.6709 33.2531 29.8936 34.6149C29.1122 35.9702 27.9682 37.0239 26.4503 37.78C24.934 38.5288 23.1295 38.9044 21.0441 38.9044C18.9587 38.9044 17.16 38.5288 15.6371 37.78C14.1217 37.0239 12.9786 35.9702 12.198 34.6149C11.4174 33.2531 11.0287 31.6987 11.0287 29.9409C11.0287 28.1857 11.4174 26.6336 12.198 25.2832C12.9786 23.9288 14.1217 22.884 15.6371 22.1361C17.1591 21.3808 18.9579 21.0101 21.0441 21.0101ZM32.5652 38.1905L35.2066 21.7239H43.8536L46.3913 30.5466L48.8931 21.7239H57.5662L60.2142 38.1905H53.0427L51.6383 30.0718L49.2671 38.1905H43.5098L41.1035 30.0718L39.7326 38.1905H32.5652ZM131.174 21.7239H147.017V32.9385H149.416V42.9548H143.654V38.1905H133.09V42.9548H127.325V32.9385C129.896 32.9385 131.173 31.0499 131.173 27.2767L131.174 21.7239ZM139.812 32.9385V26.9694H137.424V29.0491C137.424 30.7312 136.808 32.0296 135.565 32.9385H139.812Z" fill="#03428E"/>
</g>
<defs>
<clipPath id="clip0_337_11556">
<rect width="213.709" height="65" fill="white" transform="translate(0 -7.84482)"/>
</clipPath>
</defs>
</svg>
