<svg width="248" height="49" viewBox="0 0 248 49" fill="none" xmlns="http://www.w3.org/2000/svg">
<g clip-path="url(#clip0_337_11527)">
<path d="M185.194 0.966827V24.1877C185.194 31.2089 187.909 34.7427 192.559 34.7427C197.407 34.7427 200.052 31.3651 200.052 24.1877V0.966827H209.229V23.6431C209.229 36.1275 202.886 42.072 192.259 42.072C181.994 42.072 176.013 36.3681 176.013 23.5206V0.966827H185.194Z" fill="#046E79"/>
<path d="M222.451 31.0442L219.551 41.426H210.07L222.451 0.966827H234.528L247.209 41.426H237.248L234.105 31.0442H222.451ZM232.778 24.2004L230.239 15.6213C229.517 13.219 228.789 10.2172 228.186 7.81488H228.067C227.463 10.2172 226.859 13.2781 226.193 15.6213L223.778 24.2046L232.778 24.2004Z" fill="#046E79"/>
<path d="M14.3555 29.4525L9.50718 39.7837H0L20.2132 0H31.6113L36.4596 39.7837H27.1111L26.3133 29.4525H14.3555ZM25.9431 22.9591L25.0616 14.4012C24.9382 12.2184 24.6913 9.03081 24.5062 6.61162H24.3828C23.3382 9.03081 22.1041 12.1002 21.0551 14.4012L16.9472 22.9591H25.9431Z" fill="#046E79"/>
<path d="M42.2556 23.7486C42.2556 20.7595 42.1586 18.2347 42.0616 16.0857H48.4835L48.8273 19.2649H48.9243C50.6873 16.8795 53.4112 15.5706 56.8579 15.5706C62.0765 15.5706 66.7618 19.9193 66.7618 27.2106C66.7618 35.5279 61.2479 39.4544 55.9323 39.4544C53.0542 39.4544 50.8063 38.3313 49.7353 36.8368H49.6383V48.1896H42.2556V23.7486ZM49.6736 29.1316C49.6693 29.6347 49.718 30.1368 49.819 30.6304C50.0373 31.5807 50.5854 32.4321 51.3739 33.0456C52.1624 33.659 53.1447 33.9983 54.1605 34.008C57.3824 34.008 59.2821 31.4368 59.2821 27.5568C59.2821 23.9133 57.5764 21.1563 54.2575 21.1563C53.2023 21.1812 52.1872 21.5485 51.3784 22.1982C50.5697 22.8479 50.0152 23.7414 49.8058 24.7323C49.7061 25.1477 49.6573 25.5728 49.6603 25.9989L49.6736 29.1316Z" fill="#046E79"/>
<path d="M79.7245 9.91742V16.0857H85.0665V21.321H79.7245V29.5918C79.7245 32.3488 80.4562 33.6112 82.6512 33.6112C83.3909 33.6348 84.1309 33.5724 84.855 33.4254L84.9034 38.8C83.3529 39.2361 81.7412 39.4397 80.1256 39.4037C77.7323 39.4037 75.718 38.61 74.5147 37.4447C73.1484 36.0895 72.4652 33.8898 72.4652 30.6896V21.321H69.2917V16.0857H72.4652V11.8215L79.7245 9.91742Z" fill="#046E79"/>
<path d="M94.8471 29.7776C95.0454 32.733 98.1175 34.1262 101.582 34.1262C103.819 34.1598 106.046 33.8271 108.167 33.1425L109.145 37.9556C106.388 38.9773 103.448 39.4693 100.493 39.4037C92.3964 39.4037 87.7596 34.92 87.7596 27.7679C87.7596 21.9754 91.5193 15.5706 99.81 15.5706C107.519 15.5706 110.446 21.321 110.446 26.97C110.446 27.9093 110.365 28.847 110.203 29.7734L94.8471 29.7776ZM103.579 24.9097C103.579 23.1829 102.798 20.2655 99.3825 20.2655C96.2575 20.2655 94.9749 23.0224 94.7942 24.9097H103.579Z" fill="#046E79"/>
<path d="M161.441 33.8476C161.391 35.6933 161.522 37.5394 161.834 39.3615H155.147L154.707 37.069H154.557C152.996 38.8929 150.559 39.8766 147.729 39.8766C142.881 39.8766 140.021 36.499 140.021 32.8639C140.021 26.932 145.583 24.1244 154.023 24.1244V23.8457C154.023 22.5791 153.34 20.8566 149.678 20.8566C147.364 20.8794 145.096 21.4742 143.093 22.5834L141.726 18.0025C144.589 16.601 147.768 15.8949 150.982 15.9464C158.938 15.9464 161.424 20.4344 161.424 25.8554L161.441 33.8476ZM154.266 28.5659C150.361 28.5659 147.337 29.4525 147.337 32.163C147.337 33.9869 148.607 34.8735 150.264 34.8735C151.11 34.8713 151.935 34.6186 152.625 34.15C153.315 33.6814 153.838 33.0199 154.12 32.2559C154.219 31.859 154.268 31.4522 154.266 31.0442V28.5659Z" fill="#046E79"/>
<path d="M129.341 25.7541L137.878 16.5079H128.949L124.122 23.3771C123.504 24.2676 122.933 25.1878 122.412 26.1341H122.315V10.3396L114.902 12.2437V39.3488H122.315V32.2095L124.171 29.976L129.976 39.37H139.099L129.341 25.7541Z" fill="#046E79"/>
<path d="M52.8207 0.455963V8.55794H42.2424V0.455963H43.4369V7.54889H46.963V0.455963H48.1486V7.54889H51.6747V0.455963H52.8207ZM54.09 7.54889V10.3269H52.9793V8.55794H51.613V7.54889H54.09Z" fill="#046E79"/>
<path d="M59.6744 8.11042C59.0054 7.76512 58.4475 7.25123 58.0612 6.62428C57.6687 5.98493 57.466 5.25498 57.475 4.51329C57.4657 3.77158 57.6685 3.04157 58.0612 2.4023C58.4473 1.77407 59.005 1.25874 59.6744 0.911945C60.3863 0.559502 61.176 0.37558 61.9774 0.37558C62.7788 0.37558 63.5685 0.559502 64.2804 0.911945C64.9467 1.25592 65.5016 1.76852 65.8847 2.39386C66.2743 3.03421 66.4754 3.76375 66.4665 4.50485C66.4758 5.246 66.2747 5.97565 65.8847 6.61584C65.5016 7.24118 64.9467 7.75378 64.2804 8.09775C63.5693 8.45293 62.7793 8.6384 61.9774 8.6384C61.1755 8.6384 60.3855 8.45293 59.6744 8.09775V8.11042ZM63.6413 7.21536C64.1311 6.95165 64.5365 6.56479 64.8137 6.09653C65.107 5.61343 65.2592 5.06367 65.2544 4.50485C65.2586 3.9461 65.1064 3.3965 64.8137 2.91316C64.5359 2.44646 64.1306 2.06112 63.6413 1.79856C63.1332 1.51885 62.5568 1.37317 61.9708 1.37636C61.3793 1.37378 60.7974 1.51932 60.2827 1.79856C59.7885 2.05927 59.3784 2.44478 59.097 2.91316C58.8061 3.39721 58.6541 3.94634 58.6563 4.50485C58.6537 5.06341 58.8058 5.61265 59.097 6.09653C59.3778 6.56647 59.7879 6.95349 60.2827 7.21536C60.7974 7.4946 61.3793 7.64014 61.9708 7.63756C62.5613 7.643 63.1425 7.49724 63.6545 7.21536H63.6413Z" fill="#046E79"/>
<path d="M76.6525 1.46079H73.7523V8.55794H72.5667V1.46079H69.6797V0.455963H76.6525V1.46079Z" fill="#046E79"/>
<path d="M80.5444 0.455963H81.7389V6.70449L86.7415 0.455963H87.8566V8.55794H86.671V2.31786L81.6551 8.55794H80.5444V0.455963Z" fill="#046E79"/>
<path d="M100.013 4.99039H98.4039V8.55796H97.2227V4.99039H95.6007L93.2338 8.55796H91.819L94.609 4.33598L92.0261 0.44754H93.3175L95.5786 3.96445H97.2227V0.455984H98.4039V3.97289H100.026L102.296 0.455984H103.578L100.996 4.36554L103.786 8.55796H102.371L100.013 4.99039Z" fill="#046E79"/>
<path d="M115.038 0.455963V8.55794H113.831V4.94393H108.982V8.55794H107.77V0.455963H108.982V3.9391H113.831V0.455963H115.038Z" fill="#046E79"/>
<path d="M126.225 7.54889V8.55794H120.085V0.455963H126.057V1.46079H121.297V3.95176H125.537V4.93548H121.297V7.54889H126.225Z" fill="#046E79"/>
<path d="M137.107 5.06638C137.405 5.4256 137.561 5.87421 137.548 6.33298C137.564 6.64786 137.499 6.96171 137.358 7.24671C137.218 7.53172 137.006 7.77908 136.741 7.96688C136.047 8.39461 135.229 8.59738 134.405 8.54529H130.54V0.455985H134.176C134.94 0.412877 135.698 0.60042 136.345 0.992176C136.599 1.16613 136.803 1.39832 136.94 1.66752C137.076 1.93672 137.139 2.23435 137.125 2.5332C137.137 2.93299 137.017 3.32625 136.781 3.65624C136.536 3.9758 136.196 4.21828 135.807 4.35287C136.31 4.44749 136.767 4.69823 137.107 5.06638ZM131.734 4.01933H134.092C134.559 4.04526 135.022 3.92845 135.415 3.6858C135.57 3.57089 135.695 3.42114 135.776 3.24964C135.857 3.07814 135.894 2.89014 135.882 2.70208C135.893 2.51245 135.856 2.32301 135.774 2.15014C135.692 1.97727 135.567 1.82617 135.41 1.70991C135.019 1.46429 134.555 1.34451 134.088 1.36793H131.73L131.734 4.01933ZM136.327 6.25276C136.342 6.05676 136.305 5.86029 136.219 5.68166C136.134 5.50302 136.003 5.34801 135.838 5.23104C135.397 4.98313 134.889 4.86835 134.379 4.90173H131.734V7.64179H134.379C135.679 7.64179 136.327 7.17737 136.327 6.25276Z" fill="#046E79"/>
<path d="M141.982 0.455963H143.176V6.70449L148.183 0.455963H149.294V8.55794H148.095V2.31786L143.093 8.55794H141.982V0.455963Z" fill="#046E79"/>
<path d="M157.294 4.99037H155.531V8.55794H154.345V0.455963H155.531V3.97287H157.316L159.96 0.455963H161.256L158.233 4.37818L161.402 8.55794H160.022L157.294 4.99037Z" fill="#046E79"/>
<path d="M169.432 40.5183C171.923 40.5183 173.941 38.5846 173.941 36.1992C173.941 33.8139 171.923 31.8802 169.432 31.8802C166.942 31.8802 164.923 33.8139 164.923 36.1992C164.923 38.5846 166.942 40.5183 169.432 40.5183Z" fill="#EF841D"/>
</g>
<defs>
<clipPath id="clip0_337_11527">
<rect width="247.209" height="48.1897" fill="white"/>
</clipPath>
</defs>
</svg>
