<svg width="32" height="32" viewBox="0 0 32 32" fill="none" xmlns="http://www.w3.org/2000/svg">
<g clip-path="url(#clip0_1602_1634)">
<path d="M32 0H0V32H32V0Z" fill="white"/>
<path d="M26.5688 5.88748L4.92211 14.2367C3.44468 14.8294 3.45344 15.6535 4.65281 16.0209L10.0516 17.706L12.1173 24.0392C12.3684 24.7324 12.2446 25.0073 12.9725 25.0073C13.5342 25.0073 13.7834 24.7512 14.0963 24.4456C14.2953 24.2509 15.4765 23.1024 16.7955 21.82L22.4112 25.9692C23.4446 26.5393 24.1908 26.2439 24.4481 25.0094L28.1344 7.63822C28.5118 6.1251 27.5575 5.43876 26.5688 5.88748ZM10.8988 17.3188L23.0677 9.64145C23.6752 9.27304 24.2322 9.47111 23.7748 9.87706L13.3551 19.2783L12.9494 23.6055L10.8988 17.3188Z" fill="#1A6FB9"/>
</g>
<defs>
<clipPath id="clip0_1602_1634">
<rect width="32" height="32" rx="5" fill="white"/>
</clipPath>
</defs>
</svg>
