<svg width="32" height="32" viewBox="0 0 32 32" fill="none" xmlns="http://www.w3.org/2000/svg">
<g clip-path="url(#clip0_1602_1626)">
<path d="M32 0H0V32H32V0Z" fill="white"/>
<path fill-rule="evenodd" clip-rule="evenodd" d="M26.3697 21.5912C25.6073 20.9775 24.7926 20.4266 23.9907 19.8638C22.3913 18.7405 20.9285 18.6532 19.735 20.4604C19.0648 21.4751 18.1266 21.5195 17.1456 21.0743C14.4412 19.8482 12.3529 17.9587 11.1297 15.21C10.5886 13.9939 10.5957 12.9035 11.8618 12.0434C12.532 11.5886 13.2074 11.0503 13.1534 10.0564C13.0829 8.76037 9.93618 4.4293 8.69358 3.97219C8.17937 3.78299 7.66733 3.79525 7.14422 3.9711C4.23042 4.95096 3.02359 7.34728 4.1794 10.1846C7.62748 18.6498 13.6957 24.5429 22.0488 28.1398C22.5249 28.3446 23.0541 28.4265 23.322 28.5C25.2237 28.5191 27.4515 26.6868 28.0949 24.8685C28.7143 23.1191 27.4052 22.4247 26.3697 21.5912Z" fill="#1A6FB9"/>
<path fill-rule="evenodd" clip-rule="evenodd" d="M17.0038 4.83992C23.1104 5.77902 25.9267 8.68274 26.7044 14.8334C26.7765 15.4015 26.5649 16.2564 27.3754 16.2721C28.2225 16.2883 28.0185 15.4461 28.0255 14.8774C28.0972 9.08465 23.0462 3.71452 17.1803 3.51652C16.7377 3.58016 15.822 3.21129 15.7649 4.20323C15.7268 4.87206 16.4978 4.76211 17.0038 4.83992Z" fill="#1A6FB9"/>
<path fill-rule="evenodd" clip-rule="evenodd" d="M18.1982 6.52631C17.6108 6.45559 16.8354 6.17878 16.6982 6.99386C16.5549 7.84926 17.4191 7.76237 17.9744 7.88666C21.7461 8.72961 23.0593 10.1024 23.6803 13.8436C23.771 14.3891 23.5908 15.238 24.5177 15.0973C25.2047 14.9927 24.9566 14.265 25.014 13.8399C25.0445 10.2481 21.9666 6.97879 18.1982 6.52631Z" fill="#1A6FB9"/>
<path fill-rule="evenodd" clip-rule="evenodd" d="M18.5446 9.46352C18.1525 9.47324 17.7676 9.51564 17.6236 9.93462C17.4071 10.5609 17.8624 10.7102 18.3259 10.7847C19.8731 11.033 20.6873 11.9454 20.8419 13.4882C20.8836 13.907 21.1494 14.2463 21.5539 14.1985C22.1144 14.1317 22.1651 13.6327 22.1479 13.1589C22.1756 11.4255 20.2164 9.42203 18.5446 9.46352Z" fill="#1A6FB9"/>
</g>
<defs>
<clipPath id="clip0_1602_1626">
<rect width="32" height="32" rx="5" fill="white"/>
</clipPath>
</defs>
</svg>
