<svg width="180" height="180" viewBox="0 0 180 180" fill="none" xmlns="http://www.w3.org/2000/svg">
<circle cx="90" cy="90" r="90" fill="#F61114"/>
<path d="M157.132 94.658C157.196 93.7825 157.405 93.0116 157.757 92.3452C158.109 91.6832 158.567 91.172 159.132 90.8119C159.701 90.4562 160.341 90.2896 161.053 90.312L160.906 92.3137C160.518 92.3108 160.172 92.4158 159.871 92.6286C159.573 92.846 159.333 93.1403 159.152 93.5116C158.971 93.8829 158.863 94.3022 158.829 94.7697C158.791 95.284 158.847 95.7453 158.996 96.1536C159.146 96.5662 159.371 96.8968 159.673 97.1455C159.98 97.3944 160.344 97.5344 160.764 97.5653C161.202 97.5974 161.595 97.513 161.943 97.3121C162.295 97.1158 162.582 96.81 162.805 96.3948C163.027 95.9839 163.161 95.4766 163.205 94.8731L163.286 93.7703L164.893 93.8882L164.812 94.9911C164.776 95.4756 164.832 95.907 164.979 96.2853C165.126 96.6678 165.348 96.9746 165.642 97.2056C165.942 97.4369 166.302 97.5681 166.722 97.599C167.126 97.6286 167.483 97.563 167.794 97.4021C168.109 97.2457 168.364 97.0081 168.558 96.689C168.752 96.3743 168.866 95.9938 168.898 95.5475C168.93 95.1225 168.88 94.7194 168.75 94.3381C168.624 93.9614 168.425 93.6477 168.153 93.3969C167.885 93.1465 167.552 92.9982 167.153 92.9518L167.293 91.0458C167.997 91.1188 168.602 91.3726 169.109 91.8072C169.615 92.246 169.995 92.8037 170.249 93.4804C170.502 94.157 170.6 94.8948 170.541 95.6938C170.48 96.531 170.263 97.2415 169.891 97.8252C169.523 98.4135 169.057 98.8536 168.493 99.1454C167.929 99.4415 167.326 99.5639 166.684 99.5125C165.953 99.4631 165.348 99.2136 164.868 98.7639C164.388 98.3184 164.086 97.7493 163.961 97.0565L163.859 97.0491C163.664 97.9064 163.27 98.5526 162.679 98.9877C162.087 99.427 161.379 99.6143 160.554 99.5495C159.836 99.5011 159.207 99.254 158.667 98.8085C158.127 98.3672 157.718 97.7881 157.442 97.0714C157.17 96.3549 157.067 95.5504 157.132 94.658Z" fill="white"/>
<path d="M155.989 103.014C156.121 102.406 156.354 101.881 156.686 101.439C157.022 100.998 157.439 100.681 157.934 100.488C158.429 100.3 158.991 100.274 159.619 100.411C160.161 100.53 160.583 100.731 160.888 101.016C161.192 101.3 161.407 101.642 161.534 102.04C161.66 102.439 161.728 102.868 161.737 103.328C161.745 103.788 161.727 104.25 161.682 104.716C161.623 105.305 161.575 105.783 161.538 106.15C161.506 106.518 161.522 106.794 161.586 106.979C161.651 107.163 161.795 107.28 162.02 107.329L162.064 107.338C162.609 107.457 163.065 107.396 163.433 107.153C163.799 106.915 164.048 106.494 164.18 105.89C164.317 105.262 164.286 104.736 164.086 104.312C163.89 103.894 163.638 103.58 163.331 103.369L164.114 101.701C164.651 102.037 165.055 102.444 165.326 102.922C165.6 103.405 165.761 103.926 165.808 104.486C165.86 105.047 165.823 105.617 165.696 106.195C165.613 106.578 165.478 106.974 165.293 107.383C165.111 107.797 164.86 108.165 164.541 108.488C164.221 108.815 163.814 109.051 163.32 109.196C162.83 109.342 162.235 109.339 161.536 109.186L155.166 107.793L155.565 105.97L156.876 106.257L156.893 106.182C156.678 106.008 156.48 105.775 156.299 105.483C156.119 105.19 155.993 104.838 155.922 104.425C155.851 104.013 155.873 103.542 155.989 103.014ZM157.399 103.747C157.286 104.263 157.291 104.727 157.415 105.138C157.538 105.553 157.743 105.892 158.03 106.156C158.321 106.424 158.655 106.6 159.034 106.682L160.27 106.953C160.218 106.872 160.184 106.729 160.168 106.525C160.154 106.325 160.153 106.101 160.165 105.85C160.18 105.6 160.196 105.357 160.213 105.121C160.234 104.886 160.25 104.689 160.263 104.53C160.297 104.158 160.292 103.81 160.249 103.487C160.206 103.168 160.101 102.896 159.937 102.673C159.775 102.454 159.528 102.308 159.195 102.236C158.732 102.135 158.345 102.229 158.034 102.518C157.726 102.809 157.514 103.218 157.399 103.747Z" fill="white"/>
<path d="M154.697 109.445L163.928 112.791L163.277 114.588L159.407 113.185L159.093 114.05L161.859 118.5L161.053 120.723L157.86 115.521L151.807 117.42L152.615 115.19L157.313 113.745L157.736 112.579L154.046 111.242L154.697 109.445Z" fill="white"/>
<path d="M150.252 119.833C150.541 119.281 150.903 118.836 151.34 118.497C151.781 118.161 152.266 117.964 152.795 117.909C153.322 117.858 153.87 117.981 154.441 118.28C154.932 118.536 155.286 118.842 155.505 119.197C155.723 119.552 155.841 119.938 155.858 120.356C155.875 120.773 155.827 121.205 155.714 121.651C155.601 122.097 155.462 122.538 155.296 122.976C155.083 123.528 154.911 123.977 154.779 124.321C154.651 124.668 154.593 124.938 154.607 125.133C154.621 125.328 154.729 125.478 154.933 125.585L154.973 125.606C155.468 125.865 155.924 125.925 156.342 125.788C156.758 125.655 157.109 125.314 157.396 124.767C157.694 124.196 157.802 123.681 157.721 123.22C157.642 122.765 157.482 122.395 157.241 122.111L158.436 120.709C158.866 121.174 159.149 121.673 159.284 122.205C159.421 122.743 159.438 123.289 159.337 123.841C159.239 124.396 159.053 124.936 158.778 125.461C158.596 125.808 158.362 126.155 158.076 126.5C157.791 126.851 157.452 127.141 157.059 127.368C156.664 127.599 156.209 127.719 155.695 127.729C155.184 127.741 154.611 127.581 153.977 127.249L148.199 124.227L149.064 122.573L150.254 123.195L150.289 123.127C150.128 122.903 149.998 122.626 149.901 122.297C149.804 121.967 149.776 121.594 149.816 121.177C149.856 120.76 150.001 120.312 150.252 119.833ZM151.419 120.912C151.174 121.38 151.057 121.829 151.069 122.258C151.078 122.691 151.186 123.072 151.394 123.402C151.603 123.737 151.879 123.995 152.223 124.175L153.344 124.761C153.316 124.669 153.32 124.522 153.358 124.321C153.398 124.126 153.456 123.908 153.533 123.67C153.614 123.433 153.693 123.203 153.772 122.979C153.854 122.758 153.922 122.572 153.976 122.423C154.106 122.072 154.194 121.736 154.238 121.412C154.28 121.093 154.251 120.804 154.151 120.544C154.052 120.291 153.852 120.085 153.55 119.927C153.131 119.708 152.733 119.697 152.355 119.894C151.982 120.093 151.67 120.432 151.419 120.912Z" fill="white"/>
<path d="M149.814 126.64L148.692 128.242C148.349 128.033 147.992 128.005 147.621 128.156C147.248 128.311 146.906 128.61 146.596 129.053C146.28 129.503 146.108 129.955 146.077 130.407C146.051 130.861 146.241 131.231 146.65 131.517C146.894 131.688 147.15 131.776 147.417 131.781C147.685 131.792 147.947 131.723 148.202 131.574C148.455 131.428 148.685 131.207 148.893 130.91L149.809 129.601L151.04 130.462L150.123 131.771C149.813 132.215 149.682 132.617 149.731 132.979C149.779 133.341 149.955 133.628 150.259 133.84C150.587 134.07 150.934 134.136 151.299 134.038C151.665 133.946 151.995 133.69 152.288 133.271C152.586 132.845 152.738 132.423 152.744 132.006C152.754 131.592 152.613 131.272 152.323 131.048L153.429 129.466C153.872 129.792 154.172 130.204 154.327 130.703C154.484 131.208 154.5 131.75 154.375 132.329C154.252 132.913 153.99 133.492 153.59 134.065C153.172 134.662 152.714 135.111 152.217 135.413C151.719 135.715 151.218 135.867 150.713 135.867C150.206 135.871 149.733 135.719 149.293 135.411C148.849 135.101 148.579 134.714 148.482 134.251C148.386 133.793 148.425 133.311 148.598 132.803L148.514 132.744C148.276 133.04 147.989 133.25 147.652 133.374C147.316 133.497 146.963 133.531 146.591 133.474C146.22 133.417 145.86 133.266 145.511 133.022C145.019 132.677 144.688 132.243 144.519 131.719C144.348 131.199 144.332 130.631 144.471 130.016C144.611 129.407 144.895 128.796 145.323 128.185C145.738 127.592 146.203 127.124 146.718 126.782C147.234 126.447 147.759 126.26 148.295 126.224C148.827 126.191 149.334 126.33 149.814 126.64Z" fill="white"/>
<path d="M140.389 134.468C140.809 134.009 141.274 133.672 141.784 133.457C142.296 133.245 142.815 133.18 143.34 133.262C143.863 133.348 144.361 133.608 144.836 134.043C145.244 134.417 145.508 134.804 145.628 135.203C145.748 135.602 145.763 136.005 145.672 136.413C145.581 136.822 145.424 137.227 145.2 137.628C144.977 138.03 144.728 138.421 144.455 138.801C144.108 139.281 143.827 139.67 143.61 139.969C143.397 140.271 143.272 140.518 143.236 140.709C143.199 140.901 143.265 141.074 143.435 141.23L143.468 141.26C143.879 141.637 144.305 141.813 144.744 141.788C145.18 141.766 145.607 141.527 146.025 141.072C146.459 140.597 146.697 140.127 146.737 139.661C146.777 139.2 146.717 138.802 146.558 138.465L148.073 137.417C148.369 137.977 148.514 138.532 148.508 139.081C148.502 139.636 148.379 140.168 148.138 140.676C147.901 141.187 147.583 141.661 147.182 142.098C146.917 142.387 146.602 142.661 146.237 142.922C145.871 143.188 145.469 143.38 145.031 143.499C144.59 143.621 144.12 143.62 143.62 143.497C143.123 143.377 142.61 143.075 142.083 142.592L137.276 138.187L138.537 136.811L139.526 137.718L139.578 137.661C139.479 137.403 139.426 137.102 139.417 136.759C139.408 136.415 139.476 136.047 139.622 135.655C139.768 135.263 140.023 134.867 140.389 134.468ZM141.239 135.811C140.882 136.2 140.654 136.604 140.555 137.021C140.452 137.442 140.459 137.838 140.575 138.21C140.691 138.588 140.892 138.908 141.178 139.17L142.111 140.025C142.107 139.929 142.149 139.788 142.237 139.604C142.326 139.425 142.438 139.23 142.574 139.019C142.712 138.811 142.848 138.609 142.982 138.413C143.118 138.22 143.231 138.058 143.322 137.928C143.538 137.623 143.709 137.32 143.835 137.018C143.957 136.721 144.004 136.433 143.973 136.157C143.944 135.887 143.803 135.637 143.552 135.407C143.203 135.087 142.821 134.974 142.406 135.068C141.994 135.164 141.605 135.412 141.239 135.811Z" fill="white"/>
<path d="M141.706 145.281L142.766 146.544L136.42 151.869L135.36 150.606L137.813 148.548L132.562 142.29L133.992 141.09L139.243 147.348L141.706 145.281Z" fill="white"/>
<path d="M131.808 150.959L129.403 152.49C128.389 153.135 127.449 153.379 126.582 153.224C125.715 153.068 125.029 152.593 124.523 151.799C124.194 151.281 124.02 150.737 124.001 150.168C123.983 149.599 124.132 149.045 124.45 148.504C124.77 147.967 125.268 147.484 125.944 147.054L129.563 144.751L134.833 153.035L133.253 154.04L128.868 147.148L126.829 148.445C126.365 148.74 126.061 149.103 125.916 149.534C125.773 149.968 125.822 150.374 126.062 150.751C126.316 151.151 126.672 151.381 127.13 151.443C127.591 151.508 128.054 151.393 128.517 151.098L130.923 149.568L131.808 150.959Z" fill="white"/>
<path d="M117.769 151.574L121.356 160.714L119.577 161.412L118.073 157.58L117.216 157.916L115.703 162.932L113.502 163.796L115.298 157.962L109.873 154.673L112.081 153.807L116.27 156.379L117.424 155.926L115.99 152.272L117.769 151.574Z" fill="white"/>
<path d="M105.873 155.383C106.766 155.163 107.597 155.175 108.364 155.42C109.131 155.666 109.79 156.111 110.34 156.757C110.889 157.402 111.286 158.218 111.529 159.202C111.773 160.191 111.802 161.101 111.616 161.933C111.431 162.764 111.056 163.467 110.49 164.041C109.925 164.615 109.196 165.012 108.302 165.232C107.409 165.453 106.578 165.44 105.811 165.195C105.044 164.95 104.385 164.502 103.834 163.852C103.283 163.203 102.886 162.383 102.642 161.395C102.399 160.41 102.371 159.504 102.557 158.677C102.744 157.849 103.12 157.149 103.685 156.575C104.25 156.001 104.979 155.604 105.873 155.383ZM106.251 156.942C105.672 157.085 105.229 157.357 104.924 157.757C104.619 158.157 104.438 158.634 104.382 159.188C104.321 159.743 104.366 160.326 104.518 160.938C104.668 161.547 104.898 162.082 105.21 162.545C105.519 163.013 105.902 163.356 106.359 163.572C106.816 163.788 107.334 163.825 107.913 163.682C108.497 163.538 108.943 163.264 109.251 162.859C109.555 162.454 109.737 161.973 109.796 161.414C109.853 160.86 109.806 160.279 109.656 159.671C109.505 159.058 109.276 158.52 108.968 158.056C108.656 157.593 108.273 157.256 107.816 157.044C107.356 156.832 106.834 156.799 106.251 156.942Z" fill="white"/>
<path d="M94.8426 163.119L94.6706 161.472L99.96 160.92L100.132 162.566L94.8426 163.119ZM100.022 166.685L99.0022 156.92L100.865 156.725L101.885 166.49L100.022 166.685ZM93.9383 167.32L92.9181 157.555L94.7745 157.361L95.7947 167.126L93.9383 167.32Z" fill="white"/>
<path d="M87.1622 157.26C88.1119 157.293 88.9221 157.537 89.5928 157.991C90.2591 158.449 90.7622 159.066 91.102 159.841C91.4417 160.616 91.5945 161.495 91.5603 162.479C91.5257 163.475 91.3077 164.348 90.9065 165.098C90.5051 165.851 89.9562 166.431 89.2598 166.838C88.5635 167.244 87.7532 167.431 86.8291 167.399C86.0838 167.373 85.4242 167.212 84.8504 166.915C84.2764 166.622 83.8191 166.222 83.4785 165.716C83.1337 165.209 82.9387 164.625 82.8935 163.962L84.7525 164.027C84.8387 164.49 85.0592 164.894 85.4139 165.239C85.7643 165.584 86.2441 165.767 86.8531 165.788C87.3854 165.807 87.8566 165.682 88.2667 165.415C88.6724 165.152 88.9949 164.767 89.2343 164.259C89.4735 163.756 89.6053 163.155 89.6295 162.456C89.6544 161.741 89.5673 161.12 89.3681 160.593C89.169 160.065 88.8763 159.652 88.4902 159.353C88.0998 159.054 87.6341 158.895 87.0933 158.876C86.7313 158.864 86.401 158.918 86.1026 159.04C85.7997 159.166 85.5439 159.351 85.335 159.595C85.1218 159.84 84.9686 160.137 84.8754 160.488L83.0165 160.423C83.1067 159.791 83.3329 159.232 83.6952 158.745C84.0575 158.259 84.5331 157.883 85.1223 157.618C85.7071 157.353 86.3871 157.233 87.1622 157.26Z" fill="white"/>
<path d="M81.4384 153.352C81.7196 153.401 81.9717 153.469 82.1944 153.556C82.418 153.638 82.582 153.715 82.6865 153.785L81.9633 155.248C81.6353 155.096 81.3358 155.002 81.065 154.968C80.7941 154.933 80.5393 154.992 80.3006 155.145C80.0577 155.298 79.819 155.574 79.5846 155.974L79.2393 156.576L81.0641 166.992L79.0493 166.639L77.9128 158.706L77.8121 158.688L74.0499 165.765L72.0287 165.411L77.9319 155.146C78.2047 154.675 78.5143 154.29 78.8607 153.992C79.2078 153.689 79.5941 153.484 80.0195 153.377C80.4449 153.269 80.9179 153.261 81.4384 153.352Z" fill="white"/>
<path d="M73.5981 155.755L73.0931 157.332L72.7587 157.223C72.4993 157.139 72.2647 157.123 72.0549 157.176C71.8397 157.232 71.632 157.375 71.4317 157.606C71.2314 157.836 71.0245 158.177 70.8111 158.627C70.5964 159.082 70.3585 159.663 70.0973 160.371L68.5914 164.452L62.0737 162.337L65.1045 152.998L66.8859 153.577L64.3642 161.347L67.4163 162.337L68.5922 159.211C68.8786 158.453 69.176 157.805 69.4844 157.269C69.7888 156.732 70.1169 156.307 70.4689 155.996C70.8195 155.689 71.2041 155.498 71.6226 155.423C72.0398 155.352 72.5037 155.4 73.0144 155.566L73.5981 155.755Z" fill="white"/>
<path d="M59.9193 157.751L57.3551 156.505C56.2742 155.98 55.5728 155.307 55.2509 154.488C54.929 153.668 54.9739 152.835 55.3854 151.988C55.6536 151.436 56.0251 151.003 56.4999 150.688C56.9747 150.374 57.5255 150.211 58.1524 150.198C58.7774 150.189 59.4502 150.359 60.1708 150.71L64.0286 152.584L59.738 161.415L58.0534 160.596L61.6234 153.249L59.4501 152.193C58.9557 151.953 58.487 151.884 58.0441 151.986C57.5993 152.092 57.2792 152.346 57.0837 152.749C56.8769 153.174 56.8675 153.598 57.0552 154.021C57.2412 154.448 57.5813 154.781 58.0758 155.022L60.64 156.267L59.9193 157.751Z" fill="white"/>
<path d="M51.6056 155.516L50.7 156.894L43.7767 152.345L44.6823 150.967L47.3587 152.725L51.8446 145.898L53.4045 146.923L48.9186 153.75L51.6056 155.516Z" fill="white"/>
<path d="M46.6269 141.706C47.0976 142.113 47.448 142.568 47.6779 143.071C47.9051 143.577 47.9851 144.093 47.9177 144.621C47.8472 145.146 47.6015 145.652 47.1808 146.139C46.8186 146.558 46.4398 146.833 46.0445 146.964C45.6493 147.096 45.2463 147.122 44.8358 147.043C44.4252 146.965 44.0158 146.819 43.6076 146.607C43.1994 146.395 42.8015 146.158 42.4138 145.897C41.9243 145.564 41.527 145.293 41.2218 145.086C40.9139 144.882 40.6636 144.764 40.471 144.733C40.2784 144.702 40.1069 144.773 39.9564 144.947L39.9271 144.981C39.5621 145.403 39.3986 145.834 39.4366 146.272C39.4713 146.707 39.7224 147.127 40.1899 147.531C40.6768 147.952 41.1538 148.176 41.621 148.202C42.0821 148.229 42.4788 148.158 42.8109 147.988L43.9023 149.472C43.351 149.785 42.8008 149.945 42.2517 149.955C41.6965 149.965 41.1615 149.858 40.6466 149.633C40.1289 149.41 39.6459 149.106 39.1978 148.718C38.9012 148.462 38.6175 148.155 38.3467 147.797C38.0699 147.439 37.8658 147.043 37.7345 146.609C37.5999 146.172 37.5868 145.701 37.6952 145.198C37.8007 144.698 38.0876 144.177 38.5557 143.635L42.8189 138.702L44.2311 139.923L43.3534 140.938L43.4114 140.988C43.6665 140.882 43.9656 140.82 44.3087 140.801C44.6517 140.782 45.0215 140.839 45.418 140.974C45.8144 141.108 46.2174 141.352 46.6269 141.706ZM45.3094 142.595C44.9096 142.249 44.4996 142.033 44.0793 141.946C43.6559 141.856 43.2599 141.874 42.8915 142.001C42.517 142.128 42.203 142.338 41.9494 142.631L41.1219 143.589C41.218 143.582 41.3598 143.62 41.5471 143.703C41.7284 143.786 41.9265 143.893 42.1414 144.022C42.3534 144.155 42.5593 144.285 42.7589 144.412C42.9557 144.543 43.1208 144.652 43.254 144.739C43.5651 144.946 43.873 145.107 44.1776 145.224C44.479 145.338 44.7672 145.376 45.0424 145.338C45.3116 145.3 45.5576 145.152 45.7805 144.895C46.0898 144.537 46.1917 144.152 46.0861 143.739C45.9778 143.33 45.7189 142.949 45.3094 142.595Z" fill="white"/>
<path d="M29.0295 138.084L35.2534 132.665L34.309 131.58L37.8765 128.474L39.1147 129.896L36.7283 131.974L41.6936 137.677L34.2886 144.124L33.0588 142.712L39.22 137.348L36.4163 134.127L30.2551 139.491L29.0295 138.084Z" fill="white"/>
<path d="M31.755 129.714L23.4088 129.927L22.2975 128.194L30.5617 122.893L31.5729 124.47L25.5577 128.328L33.899 128.096L35.0206 129.845L26.7564 135.146L25.7452 133.569L31.755 129.714Z" fill="white"/>
<path d="M22.8956 120.023L24.4214 119.364L26.4966 124.17L24.9709 124.829L22.8956 120.023ZM20.5407 125.05L29.5545 121.158L30.3121 122.912L21.2983 126.804L20.5407 125.05ZM27.091 114.953C27.4525 115.79 27.5728 116.606 27.4519 117.401C27.3309 118.196 26.9966 118.916 26.4489 119.561C25.8972 120.207 25.1598 120.73 24.2365 121.129C23.3054 121.531 22.4173 121.71 21.5723 121.666C20.7233 121.624 19.97 121.374 19.3125 120.915C18.6509 120.458 18.1394 119.811 17.7779 118.974C17.4147 118.133 17.2945 117.317 17.4171 116.526C17.5341 115.733 17.8684 115.013 18.4201 114.366C18.9661 113.717 19.7047 113.192 20.6358 112.79C21.5591 112.391 22.446 112.215 23.2967 112.26C24.1417 112.304 24.895 112.554 25.5565 113.011C26.2163 113.464 26.7278 114.112 27.091 114.953ZM25.5887 115.601C25.3438 115.034 25.0008 114.632 24.5598 114.396C24.1132 114.157 23.6141 114.054 23.0624 114.088C22.5108 114.122 21.9494 114.262 21.3782 114.509C20.8031 114.757 20.3141 115.071 19.9111 115.449C19.5043 115.829 19.2346 116.263 19.1022 116.752C18.9681 117.237 19.0235 117.763 19.2685 118.33C19.5117 118.894 19.8567 119.295 20.3033 119.534C20.7499 119.772 21.251 119.874 21.8065 119.838C22.3581 119.804 22.9215 119.663 23.4966 119.415C24.0678 119.168 24.5548 118.856 24.9578 118.478C25.3608 118.099 25.6285 117.666 25.7609 117.177C25.8893 116.69 25.832 116.165 25.5887 115.601Z" fill="white"/>
<path d="M20.9613 103.238C21.0579 103.745 21.0227 104.231 20.8555 104.697C20.6842 105.163 20.4132 105.562 20.0425 105.893C19.6711 106.22 19.2321 106.431 18.7256 106.528C18.2149 106.625 17.7288 106.59 17.2673 106.422C16.8008 106.251 16.4041 105.979 16.0773 105.608C15.7463 105.237 15.5325 104.799 15.4359 104.292C15.3385 103.781 15.3759 103.295 15.548 102.833C15.7151 102.367 15.9844 101.971 16.3559 101.644C16.7224 101.314 17.161 101.1 17.6717 101.002C18.1782 100.906 18.6647 100.943 19.1312 101.115C19.5969 101.282 19.9952 101.551 20.3262 101.921C20.6522 102.289 20.8639 102.728 20.9613 103.238Z" fill="white"/>
<path d="M22.2663 88.9245C22.2527 89.8022 22.0893 90.5839 21.7762 91.2695C21.463 91.9508 21.035 92.4876 20.4919 92.8798C19.9447 93.2677 19.315 93.4711 18.603 93.4899L18.634 91.4831C19.0221 91.4635 19.3607 91.3387 19.6498 91.1088C19.9347 90.8745 20.1568 90.5668 20.3162 90.1857C20.4755 89.8046 20.5587 89.3797 20.566 88.911C20.5739 88.3955 20.4915 87.9382 20.3187 87.5392C20.1459 87.1359 19.9015 86.8188 19.5854 86.5881C19.2651 86.3573 18.894 86.2386 18.4722 86.2321C18.0333 86.2253 17.6459 86.3323 17.3101 86.553C16.9701 86.7693 16.7009 87.0912 16.5025 87.5186C16.3042 87.9417 16.2003 88.4558 16.191 89.0608L16.1739 90.1665L14.5633 90.1417L14.5804 89.036C14.5879 88.5502 14.5071 88.1228 14.3381 87.7537C14.1691 87.3803 13.9307 87.0868 13.6229 86.8732C13.3108 86.6595 12.9439 86.5495 12.522 86.5429C12.1173 86.5367 11.7643 86.6229 11.4632 86.8015C11.158 86.9758 10.9175 87.2278 10.742 87.5575C10.5665 87.8829 10.4753 88.2694 10.4683 88.7168C10.4618 89.1428 10.5344 89.5424 10.6864 89.9156C10.8341 90.2844 11.0511 90.5861 11.3372 90.8206C11.6192 91.0551 11.9603 91.184 12.3605 91.2072L12.331 93.1182C11.624 93.086 11.0052 92.8676 10.4744 92.463C9.94374 92.0542 9.53221 91.5194 9.23982 90.8586C8.94743 90.1977 8.80742 89.4668 8.81979 88.6657C8.83275 87.8263 9.00798 87.1045 9.34547 86.5003C9.67877 85.8917 10.1186 85.4254 10.6648 85.1015C11.2111 84.7732 11.806 84.6162 12.4493 84.6304C13.1822 84.6374 13.8011 84.8516 14.3061 85.2728C14.8111 85.6897 15.1456 86.2404 15.3098 86.9248L15.4121 86.9264C15.5576 86.0592 15.9131 85.3913 16.4786 84.9227C17.0442 84.4499 17.7403 84.222 18.5669 84.239C19.287 84.2458 19.9294 84.4561 20.4941 84.8697C21.0589 85.279 21.5 85.8335 21.8173 86.533C22.1304 87.2326 22.2801 88.0297 22.2663 88.9245Z" fill="white"/>
<path d="M22.9275 80.4491C22.8297 81.0636 22.6277 81.601 22.3214 82.0614C22.0109 82.5211 21.6137 82.8614 21.1298 83.0821C20.6466 83.2986 20.0872 83.3563 19.4517 83.2551C18.9047 83.168 18.4711 82.9911 18.1511 82.7244C17.8311 82.4578 17.5964 82.1291 17.4472 81.7386C17.2979 81.3481 17.2058 80.9235 17.171 80.4649C17.1361 80.0062 17.1278 79.5432 17.1461 79.0758C17.1712 78.4843 17.1915 78.0043 17.2071 77.6356C17.2184 77.2664 17.1866 76.9916 17.1117 76.8114C17.0369 76.6312 16.8858 76.523 16.6585 76.4868L16.6144 76.4798C16.0631 76.392 15.6111 76.4798 15.2585 76.743C14.9066 77.0019 14.6821 77.4365 14.585 78.0467C14.4838 78.6822 14.5451 79.2055 14.7688 79.6165C14.9889 80.0226 15.2584 80.3222 15.5772 80.5154L14.8908 82.2249C14.3351 81.9207 13.9085 81.5378 13.6109 81.0762C13.3097 80.6097 13.1193 80.0982 13.0395 79.5419C12.9556 78.9848 12.9602 78.4138 13.0533 77.8288C13.115 77.4417 13.2266 77.0387 13.3881 76.62C13.5462 76.1964 13.7753 75.8143 14.0755 75.4737C14.3763 75.1289 14.7692 74.87 15.2541 74.6969C15.7349 74.5232 16.3287 74.4926 17.0357 74.6051L23.4746 75.63L23.1812 77.4733L21.8555 77.2623L21.8435 77.338C22.0681 77.4989 22.2789 77.7202 22.4757 78.0018C22.6725 78.2834 22.8183 78.6281 22.913 79.0358C23.0078 79.4436 23.0126 79.9147 22.9275 80.4491ZM21.4778 79.7977C21.5609 79.2758 21.5288 78.8133 21.3815 78.4102C21.2349 78.0028 21.0108 77.6758 20.7092 77.4293C20.404 77.178 20.0599 77.0218 19.677 76.9608L18.4271 76.7619C18.4837 76.8399 18.526 76.9804 18.5541 77.1834C18.5787 77.3815 18.5926 77.6059 18.5958 77.8567C18.5949 78.1068 18.5928 78.3503 18.5896 78.5871C18.5822 78.8233 18.5767 79.0209 18.5729 79.1799C18.5609 79.5534 18.5855 79.9004 18.6467 80.2208C18.7086 80.537 18.8282 80.802 19.0056 81.0158C19.1795 81.2247 19.4347 81.3559 19.7714 81.4095C20.2385 81.4839 20.6195 81.3676 20.9143 81.0607C21.2049 80.7531 21.3928 80.3321 21.4778 79.7977Z" fill="white"/>
<path d="M23.775 74.2104L14.3594 71.4276L14.9011 69.5948L18.8488 70.7615L19.1097 69.8788L16.0805 65.6042L16.7509 63.3361L20.2519 68.3368L26.1791 66.076L25.507 68.3502L20.9044 70.076L20.5529 71.2652L24.3167 72.3776L23.775 74.2104Z" fill="white"/>
<path d="M27.6388 63.4114C27.3837 63.9789 27.0481 64.4447 26.632 64.809C26.212 65.1715 25.7397 65.396 25.2149 65.4824C24.6918 65.565 24.1369 65.4743 23.55 65.2105C23.0448 64.9833 22.6726 64.6991 22.4335 64.358C22.1944 64.0169 22.0539 63.6384 22.0119 63.2224C21.97 62.8064 21.9922 62.3725 22.0786 61.9207C22.1649 61.469 22.278 61.0199 22.4179 60.5735C22.5969 60.0092 22.7421 59.5512 22.8535 59.1995C22.961 58.846 23.0022 58.5725 22.9771 58.379C22.952 58.1855 22.8345 58.0416 22.6246 57.9472L22.5838 57.9288C22.0746 57.6999 21.6155 57.6664 21.2063 57.8282C20.7989 57.9861 20.4686 58.3468 20.2152 58.9104C19.9513 59.4972 19.8736 60.0183 19.9819 60.4735C20.0882 60.9231 20.2699 61.2828 20.527 61.5526L19.4174 63.023C18.9606 62.584 18.649 62.1029 18.4825 61.5795C18.3139 61.0504 18.2638 60.507 18.3324 59.9491C18.3972 59.3895 18.551 58.8396 18.7939 58.2994C18.9546 57.9418 19.1677 57.5821 19.4332 57.2202C19.6966 56.8527 20.0177 56.5438 20.3965 56.2936C20.777 56.0396 21.224 55.8924 21.7373 55.8522C22.2467 55.8103 22.8279 55.9361 23.4809 56.2297L29.4274 58.9032L28.662 60.6056L27.4377 60.0551L27.4063 60.1251C27.581 60.3391 27.7266 60.6078 27.8429 60.9311C27.9592 61.2544 28.0097 61.6252 27.9945 62.0435C27.9793 62.4619 27.8607 62.9178 27.6388 63.4114ZM26.41 62.4034C26.6267 61.9215 26.7167 61.4667 26.68 61.039C26.6451 60.6075 26.5143 60.2333 26.2876 59.9165C26.0588 59.594 25.7676 59.3533 25.4139 59.1943L24.2596 58.6753C24.2938 58.7654 24.2979 58.9121 24.272 59.1154C24.2439 59.313 24.1986 59.5332 24.1361 59.7761C24.0697 60.0173 24.004 60.2517 23.939 60.4795C23.8701 60.7055 23.813 60.8947 23.7678 61.0473C23.6585 61.4046 23.5915 61.7459 23.5668 62.0712C23.5437 62.3926 23.5899 62.6797 23.7052 62.9324C23.8184 63.1795 24.0304 63.373 24.3413 63.5128C24.7727 63.7067 25.1709 63.6942 25.5357 63.4751C25.8966 63.2542 26.1881 62.897 26.41 62.4034Z" fill="white"/>
<path d="M27.5742 56.7453L28.5998 55.0798C28.9543 55.2681 29.3124 55.2759 29.6739 55.1032C30.0378 54.9269 30.3616 54.6083 30.6453 54.1475C30.9336 53.6794 31.0796 53.2188 31.0834 52.7657C31.0835 52.3104 30.8713 51.952 30.4468 51.6906C30.1928 51.5342 29.9324 51.4613 29.6655 51.4722C29.3972 51.4771 29.14 51.5615 28.894 51.7253C28.6503 51.8854 28.4334 52.1197 28.2435 52.4281L27.4055 53.7888L26.1265 53.0012L26.9644 51.6405C27.2482 51.1796 27.3553 50.7701 27.2856 50.4119C27.2159 50.0537 27.0232 49.7774 26.7075 49.583C26.3665 49.373 26.0165 49.3277 25.6578 49.447C25.2976 49.5605 24.9834 49.835 24.7153 50.2704C24.4427 50.7131 24.3157 51.1428 24.3342 51.5597C24.3492 51.9742 24.5082 52.2849 24.8113 52.4915L23.7991 54.1353C23.3377 53.8361 23.0148 53.4421 22.8305 52.9532C22.6447 52.4585 22.5968 51.9185 22.6869 51.3334C22.7756 50.7424 23.0032 50.1494 23.3696 49.5543C23.7517 48.9339 24.1822 48.4583 24.6611 48.1276C25.14 47.797 25.6314 47.6166 26.1353 47.5866C26.6415 47.553 27.1231 47.677 27.5803 47.9585C28.0412 48.2423 28.3336 48.6126 28.4577 49.0694C28.5804 49.5203 28.57 50.0043 28.4267 50.5216L28.5137 50.5752C28.7344 50.2657 29.0089 50.0394 29.3372 49.8963C29.6656 49.7532 30.0167 49.6991 30.3905 49.7341C30.7643 49.7691 31.1326 49.8984 31.4954 50.1218C32.0071 50.4369 32.3626 50.851 32.562 51.3642C32.7637 51.8737 32.8131 52.4396 32.7102 53.0619C32.6058 53.6783 32.3581 54.3039 31.9671 54.9389C31.5872 55.5558 31.1503 56.0499 30.6563 56.4213C30.161 56.7869 29.6472 57.0035 29.1151 57.0712C28.5852 57.1352 28.0716 57.0266 27.5742 56.7453Z" fill="white"/>
<path d="M36.5244 48.3344C36.1315 48.8167 35.687 49.1802 35.191 49.4247C34.6917 49.6665 34.1774 49.7615 33.6481 49.7095C33.1215 49.6543 32.6087 49.4235 32.1098 49.0171C31.6803 48.6672 31.3941 48.2966 31.2512 47.9053C31.1082 47.5141 31.0702 47.1121 31.137 46.6994C31.2039 46.2867 31.3374 45.8732 31.5374 45.459C31.7374 45.0448 31.9626 44.6402 32.213 44.2451C32.5315 43.7461 32.79 43.341 32.9884 43.03C33.1835 42.7163 33.2939 42.4627 33.3196 42.2692C33.3453 42.0758 33.2689 41.9064 33.0905 41.7611L33.0558 41.7328C32.623 41.3802 32.1881 41.2293 31.751 41.28C31.3167 41.3274 30.9044 41.5906 30.5141 42.0697C30.1077 42.5686 29.8981 43.0519 29.8853 43.5197C29.8719 43.9814 29.9546 44.3758 30.1334 44.7029L28.6818 45.8371C28.3539 45.2951 28.177 44.7498 28.1512 44.2011C28.1249 43.6465 28.2168 43.1086 28.4271 42.5873C28.634 42.0634 28.9246 41.5718 29.2987 41.1125C29.5463 40.8086 29.845 40.5161 30.1949 40.235C30.5442 39.9479 30.9341 39.7324 31.3647 39.5884C31.7979 39.4412 32.2677 39.4144 32.774 39.5081C33.277 39.599 33.8061 39.8706 34.3611 40.3228L39.416 44.4406L38.2372 45.8877L37.1965 45.0399L37.148 45.0994C37.2616 45.3513 37.3329 45.6484 37.3618 45.9908C37.3907 46.3331 37.3438 46.7044 37.2211 47.1046C37.0985 47.5049 36.8662 47.9148 36.5244 48.3344ZM35.5974 47.0433C35.9312 46.6336 36.1355 46.2175 36.2105 45.7949C36.2881 45.369 36.2583 44.9737 36.1211 44.6091C35.9833 44.2385 35.7641 43.9307 35.4634 43.6858L34.4822 42.8865C34.492 42.9824 34.4581 43.1252 34.3805 43.3149C34.3024 43.4985 34.2018 43.6996 34.0787 43.9182C33.9523 44.134 33.8284 44.3436 33.7068 44.5468C33.5819 44.7474 33.4779 44.9155 33.3948 45.0512C33.197 45.3682 33.0442 45.6807 32.9363 45.9885C32.8311 46.2931 32.8016 46.5823 32.8477 46.8563C32.8933 47.1242 33.0482 47.3659 33.3125 47.5812C33.6793 47.8799 34.0671 47.9705 34.4762 47.853C34.8819 47.7328 35.2556 47.4629 35.5974 47.0433Z" fill="white"/>
<path d="M34.5779 37.5849L33.4462 36.3853L39.4717 30.7003L40.6034 31.8998L38.2741 34.0975L43.8802 40.0393L42.5226 41.3202L36.9165 35.3784L34.5779 37.5849Z" fill="white"/>
<path d="M44.1536 31.2959L46.4652 29.6273C47.4395 28.924 48.3639 28.6246 49.2383 28.7292C50.1127 28.8339 50.8255 29.268 51.3767 30.0316C51.7358 30.5291 51.9413 31.0614 51.9932 31.6283C52.0451 32.1953 51.9282 32.7579 51.6427 33.3161C51.3547 33.8709 50.8859 34.3827 50.2363 34.8516L46.7586 37.362L41.0122 29.4012L42.5307 28.305L47.312 34.9286L49.2711 33.5145C49.7168 33.1927 49.9995 32.8126 50.1192 32.3741C50.2364 31.9321 50.164 31.5297 49.9021 31.1669C49.6253 30.7834 49.2562 30.5742 48.7948 30.5393C48.3309 30.501 47.8761 30.6428 47.4304 30.9645L45.1189 32.6331L44.1536 31.2959Z" fill="white"/>
<path d="M57.8044 29.9884L53.6785 21.0791L55.4128 20.276L57.1427 24.0114L57.9779 23.6246L59.1888 18.5274L61.3349 17.5335L59.8902 23.4645L65.5013 26.4239L63.3494 27.4205L59.0146 25.1027L57.8894 25.6238L59.5386 29.1852L57.8044 29.9884Z" fill="white"/>
<path d="M69.7967 25.3105C68.917 25.5813 68.0872 25.6161 67.3074 25.4149C66.5275 25.2136 65.8448 24.8063 65.2591 24.1929C64.6734 23.5796 64.2313 22.7883 63.9328 21.819C63.6331 20.8457 63.5522 19.9387 63.6902 19.0981C63.8282 18.2574 64.163 17.5346 64.6945 16.9295C65.2261 16.3244 65.9317 15.8864 66.8114 15.6155C67.6911 15.3446 68.5208 15.3098 69.3007 15.5111C70.0805 15.7124 70.7639 16.1217 71.3509 16.7391C71.9378 17.3565 72.3812 18.1519 72.6809 19.1253C72.9794 20.0946 73.059 20.9975 72.9197 21.834C72.7805 22.6706 72.4451 23.3914 71.9136 23.9965C71.382 24.6016 70.6764 25.0396 69.7967 25.3105ZM69.3307 23.7752C69.9008 23.5997 70.3269 23.3035 70.6087 22.8867C70.8906 22.47 71.044 21.9836 71.069 21.4274C71.098 20.8701 71.0197 20.29 70.8341 19.6873C70.6497 19.0886 70.3888 18.567 70.0513 18.1225C69.7166 17.6727 69.3149 17.3527 68.8461 17.1626C68.3774 16.9726 67.8579 16.9653 67.2878 17.1409C66.7135 17.3177 66.284 17.6172 65.9993 18.0392C65.7187 18.4601 65.5645 18.9512 65.5368 19.5126C65.5118 20.0687 65.5915 20.6461 65.7759 21.2448C65.9615 21.8476 66.221 22.3718 66.5544 22.8176C66.892 23.2621 67.2945 23.5773 67.762 23.7633C68.2335 23.9481 68.7564 23.9521 69.3307 23.7752Z" fill="white"/>
<path d="M80.1528 16.9623L80.4193 18.5962L75.1705 19.4524L74.904 17.8184L80.1528 16.9623ZM74.7764 13.7007L76.3569 23.3909L74.5085 23.6924L72.9279 14.0022L74.7764 13.7007ZM80.8138 12.716L82.3943 22.4061L80.5522 22.7066L78.9716 13.0165L80.8138 12.716Z" fill="white"/>
<path d="M87.5488 22.3411C86.5988 22.3668 85.7751 22.1738 85.0777 21.7621C84.3844 21.346 83.8442 20.7616 83.4573 20.009C83.0703 19.2564 82.8636 18.3881 82.837 17.4041C82.81 16.4073 82.9737 15.5226 83.3279 14.7499C83.6821 13.973 84.1941 13.3603 84.8641 12.9116C85.534 12.4629 86.3312 12.2261 87.2555 12.2011C88.001 12.181 88.6693 12.3015 89.2604 12.5626C89.8513 12.8195 90.3324 13.1901 90.7036 13.6746C91.079 14.1589 91.3097 14.7303 91.3957 15.3888L89.5363 15.439C89.4217 14.9817 89.1767 14.5919 88.8013 14.2695C88.4303 13.947 87.9402 13.794 87.331 13.8105C86.7985 13.8249 86.3359 13.9781 85.9431 14.27C85.5544 14.5576 85.2562 14.9621 85.0487 15.4836C84.841 16.0007 84.7466 16.6086 84.7654 17.3072C84.7848 18.0229 84.9101 18.6376 85.1414 19.1514C85.3727 19.6652 85.6903 20.0595 86.0942 20.3342C86.5023 20.6088 86.9769 20.7388 87.5178 20.7242C87.8799 20.7144 88.2062 20.6395 88.4965 20.4995C88.791 20.3551 89.035 20.1546 89.2284 19.8978C89.4261 19.641 89.5606 19.3347 89.632 18.9789L91.4914 18.9287C91.4404 19.5652 91.2491 20.1374 90.9175 20.6451C90.5859 21.1528 90.1343 21.5572 89.5627 21.8583C88.9954 22.1592 88.324 22.3202 87.5488 22.3411Z" fill="white"/>
<path d="M94.2292 25.8688C93.9456 25.8359 93.6901 25.7826 93.4627 25.709C93.2348 25.6396 93.0667 25.5729 92.9583 25.5088L93.5961 24.0064C93.9324 24.1398 94.2367 24.2159 94.5091 24.2347C94.7815 24.2534 95.0325 24.1796 95.262 24.0132C95.4958 23.8473 95.7182 23.5578 95.9291 23.1448L96.2393 22.5244L93.8185 12.2304L95.8503 12.4663L97.4411 20.3217L97.5427 20.3335L100.892 13.0519L102.93 13.2886L97.6267 23.876C97.3815 24.3624 97.0945 24.7645 96.7659 25.0824C96.4367 25.4045 96.0629 25.6313 95.6444 25.7629C95.2258 25.8945 94.7541 25.9298 94.2292 25.8688Z" fill="white"/>
<path d="M101.894 22.9925L102.303 21.3881L102.643 21.4762C102.907 21.5445 103.142 21.546 103.348 21.4805C103.56 21.412 103.758 21.2565 103.944 21.0141C104.13 20.7717 104.316 20.4193 104.502 19.9567C104.689 19.4901 104.891 18.8954 105.109 18.1727L106.365 14.008L112.999 15.7248L110.539 25.2298L108.726 24.7606L110.772 16.8521L107.666 16.0481L106.681 19.2399C106.441 20.0141 106.184 20.6781 105.908 21.2319C105.637 21.7868 105.335 22.2303 105.003 22.5624C104.671 22.8904 104.299 23.1044 103.886 23.2043C103.474 23.3001 103.008 23.2807 102.488 23.1462L101.894 22.9925Z" fill="white"/>
<path d="M115.554 20.2089L118.188 21.2998C119.298 21.7596 120.038 22.3891 120.408 23.1881C120.778 23.9872 120.783 24.8217 120.423 25.6918C120.188 26.2588 119.843 26.7132 119.388 27.055C118.933 27.3969 118.393 27.5929 117.768 27.6431C117.144 27.6893 116.462 27.5592 115.722 27.2526L111.76 25.6113L115.517 16.5404L117.247 17.2571L114.121 24.8044L116.353 25.729C116.861 25.9393 117.333 25.9803 117.769 25.8518C118.207 25.7195 118.511 25.4466 118.682 25.0332C118.863 24.5962 118.848 24.1722 118.635 23.7613C118.424 23.3464 118.065 23.0338 117.557 22.8234L114.923 21.7325L115.554 20.2089Z" fill="white"/>
<path d="M123.768 21.8137L124.591 20.3847L131.769 24.5191L130.946 25.9482L128.171 24.3499L124.094 31.4288L122.477 30.4973L126.554 23.4184L123.768 21.8137Z" fill="white"/>
<path d="M129.678 35.3564C129.184 34.9777 128.808 34.544 128.549 34.0553C128.293 33.5633 128.183 33.052 128.219 32.5214C128.259 31.9934 128.475 31.4741 128.867 30.9636C129.204 30.5241 129.566 30.2272 129.953 30.0729C130.34 29.9186 130.74 29.8688 131.155 29.9236C131.569 29.9785 131.987 30.0998 132.406 30.2876C132.826 30.4755 133.237 30.6888 133.639 30.9276C134.148 31.2315 134.56 31.478 134.877 31.6673C135.196 31.8532 135.453 31.9561 135.647 31.9762C135.841 31.9962 136.008 31.9149 136.148 31.7323L136.175 31.6968C136.515 31.2539 136.653 30.8148 136.59 30.3794C136.53 29.9466 136.255 29.5422 135.764 29.1661C135.254 28.7744 134.765 28.579 134.297 28.5798C133.835 28.5799 133.443 28.674 133.121 28.8623L131.945 27.4444C132.477 27.1007 133.017 26.908 133.565 26.8663C134.119 26.8238 134.659 26.9 135.186 27.095C135.716 27.2866 136.216 27.5627 136.686 27.9232C136.997 28.1619 137.298 28.452 137.589 28.7935C137.886 29.1343 138.113 29.5178 138.269 29.9439C138.429 30.3727 138.47 30.8415 138.391 31.3503C138.315 31.8558 138.059 32.3925 137.623 32.9605L133.654 38.1333L132.173 36.9971L132.99 35.9322L132.929 35.8855C132.681 36.0063 132.386 36.0862 132.045 36.1251C131.703 36.164 131.331 36.1279 130.927 36.017C130.523 35.906 130.107 35.6858 129.678 35.3564ZM130.941 34.3922C131.36 34.7138 131.782 34.9059 132.207 34.9686C132.635 35.0337 133.029 34.9925 133.39 34.8447C133.756 34.6961 134.057 34.468 134.293 34.1604L135.064 33.1562C134.968 33.1688 134.824 33.1391 134.632 33.0671C134.447 32.9944 134.243 32.8996 134.021 32.783C133.801 32.663 133.588 32.5452 133.381 32.4295C133.177 32.3105 133.006 32.2115 132.868 32.1324C132.545 31.944 132.229 31.8003 131.918 31.7014C131.61 31.6052 131.32 31.5841 131.048 31.6382C130.781 31.6915 130.544 31.8534 130.337 32.1239C130.049 32.4992 129.97 32.8896 130.099 33.295C130.231 33.697 130.512 34.0627 130.941 34.3922Z" fill="white"/>
<path d="M147.407 37.8614L141.509 43.6326L142.515 44.6606L139.134 47.9686L137.815 46.6208L140.077 44.408L134.788 39.003L141.806 32.1366L143.116 33.4753L137.277 39.1884L140.263 42.2404L146.102 36.5273L147.407 37.8614Z" fill="white"/>
<path d="M145.108 46.2325L153.425 45.5016L154.642 47.1616L146.723 52.9661L145.616 51.4556L151.379 47.2307L143.069 47.9809L141.841 46.3054L149.759 40.5009L150.866 42.0114L145.108 46.2325Z" fill="white"/>
<path d="M154.75 55.6702L153.266 56.4185L150.908 51.7443L152.392 50.9959L154.75 55.6702ZM156.801 50.5118L148.035 54.933L147.174 53.2265L155.941 48.8053L156.801 50.5118ZM150.863 60.9806C150.452 60.1664 150.284 59.3589 150.357 58.5583C150.431 57.7576 150.722 57.0191 151.23 56.3427C151.742 55.6644 152.447 55.0988 153.345 54.6459C154.251 54.1892 155.127 53.9575 155.973 53.9508C156.823 53.9421 157.59 54.1472 158.273 54.566C158.961 54.9829 159.51 55.5984 159.921 56.4127C160.333 57.2307 160.502 58.0382 160.426 58.835C160.357 59.6338 160.066 60.3723 159.554 61.0506C159.047 61.7308 158.341 62.2993 157.435 62.756C156.538 63.2088 155.663 63.4377 154.811 63.4426C153.965 63.4493 153.198 63.2442 152.51 62.8273C151.825 62.4143 151.276 61.7987 150.863 60.9806ZM152.324 60.2438C152.602 60.7955 152.969 61.1763 153.423 61.3863C153.883 61.5981 154.387 61.6707 154.936 61.604C155.485 61.5373 156.037 61.3639 156.592 61.0837C157.151 60.8017 157.621 60.4599 158.001 60.0583C158.384 59.6549 158.628 59.2053 158.731 58.7094C158.836 58.2174 158.749 57.6955 158.471 57.1438C158.195 56.5959 157.826 56.216 157.366 56.0041C156.906 55.7923 156.4 55.7207 155.848 55.7893C155.299 55.856 154.745 56.0304 154.186 56.3124C153.63 56.5926 153.163 56.9334 152.783 57.335C152.403 57.7365 152.162 58.1852 152.059 58.681C151.959 59.175 152.048 59.6959 152.324 60.2438Z" fill="white"/>
<path d="M157.648 72.1599C157.521 71.6602 157.527 71.1729 157.665 70.6978C157.808 70.2218 158.054 69.8073 158.404 69.4543C158.754 69.1055 159.18 68.8674 159.679 68.7401C160.183 68.6117 160.67 68.6173 161.141 68.7568C161.617 68.8994 162.03 69.1461 162.379 69.497C162.732 69.8468 162.972 70.2715 163.099 70.7712C163.227 71.275 163.22 71.7629 163.076 72.2348C162.938 72.7098 162.693 73.1218 162.342 73.4706C161.997 73.8225 161.572 74.0626 161.068 74.191C160.568 74.3183 160.08 74.3106 159.604 74.1681C159.129 74.0296 158.715 73.7855 158.362 73.4357C158.015 73.0889 157.777 72.6637 157.648 72.1599Z" fill="white"/>
<path d="M96.7623 68H84.0439V112H96.7623V68Z" fill="white"/>
<path d="M112 96.5069V83.4928H69V96.5069H112Z" fill="white"/>
</svg>
