<svg width="1366" height="332" viewBox="0 0 1366 332" fill="none" xmlns="http://www.w3.org/2000/svg">
<path d="M-20.4746 38.4896C8.67542 61.4916 41.8144 82.7242 82.0108 95.3065C136.475 112.312 208.89 110.74 252.615 78.8906C302.937 42.225 331.934 5.65762 412.787 0.939258C469.86 -2.40292 537.518 13.5216 568.816 47.5331C587.38 67.6845 597.659 91.178 613.155 112.607C650.13 164.116 712.879 176.403 786.367 148.88C821.501 135.708 861.237 120.569 898.212 129.318C946.693 140.819 965.103 188.494 1015.58 195.277C1043.19 199.012 1070.66 188.887 1097.05 181.515C1159.95 164.018 1186.18 202.158 1243.26 197.341C1257.52 196.162 1270.56 190.657 1284.53 188.101C1298.95 185.447 1327.33 188.101 1322.42 202.551" stroke="white" stroke-opacity="0.16" stroke-width="1.0073" stroke-miterlimit="10" stroke-linecap="round" stroke-linejoin="round"/>
<path d="M-17.8667 50.2857C11.1299 73.1894 45.036 93.2424 85.3858 104.449C114.382 112.509 147.982 115.458 179.433 111.723C207.202 108.381 233.591 99.9268 254.149 85.3785C291.891 58.5428 318.279 31.7071 362.311 17.4537C376.886 12.7354 393.609 9.39316 413.093 7.82037C469.552 3.29861 536.137 17.1588 569.276 49.4993C589.068 68.8642 600.574 91.9646 616.53 113.394C624.661 124.403 633.867 133.84 644.146 141.507C680.507 168.835 728.681 172.078 787.441 155.073C806.005 149.666 825.643 142.195 845.281 136.691C870.749 129.515 897.751 126.861 923.066 132.759C968.939 143.67 987.349 187.61 1035.06 194.392C1061.14 198.128 1087.07 189.183 1112.08 182.695C1171.3 167.262 1196.77 202.158 1250.62 197.341C1264.12 196.162 1276.39 190.952 1289.59 188.396C1303.24 185.84 1329.48 187.905 1325.49 200.684" stroke="white" stroke-opacity="0.16" stroke-width="1.0073" stroke-miterlimit="10" stroke-linecap="round" stroke-linejoin="round"/>
<path d="M-15.2607 61.9839C13.429 84.7893 48.1022 103.564 88.6054 113.591C117.602 120.767 150.741 122.831 181.732 118.604C209.041 114.869 234.816 106.219 255.374 92.0634C292.809 66.1124 319.965 39.7682 363.383 25.1217C377.804 20.2067 394.22 16.6679 413.245 14.8002C469.09 9.19718 534.754 20.7965 569.427 51.4659C590.446 70.0444 603.18 92.7515 619.75 114.181C628.034 125.092 637.24 134.529 647.212 142.294C682.959 169.916 729.292 174.536 788.053 161.168C810.299 156.056 833.312 147.209 856.325 140.525C885.936 131.973 918.001 129.221 947.611 136.2C990.722 146.325 1009.29 186.726 1054.24 193.508C1078.79 197.145 1103.18 189.576 1126.65 183.973C1182.04 170.703 1207.05 202.257 1257.37 197.44C1270.1 196.261 1281.61 191.444 1294.04 188.888C1306.92 186.332 1331.16 187.905 1327.94 199.013" stroke="white" stroke-opacity="0.16" stroke-width="1.0073" stroke-miterlimit="10" stroke-linecap="round" stroke-linejoin="round"/>
<path d="M-12.6509 73.7794C15.8855 96.4865 51.3258 113.984 91.9824 122.732C120.979 128.925 153.658 130.203 184.035 125.387C210.884 121.16 236.198 112.411 256.757 98.5508C294.038 73.3862 321.961 47.5335 364.612 32.6903C378.88 27.6771 394.989 23.9417 413.4 21.6808C468.785 14.8982 533.222 24.3349 569.736 53.4315C591.982 71.2237 606.097 93.4393 622.973 114.869C631.411 125.583 640.463 135.118 650.436 143.08C685.262 171.096 730.675 177.583 788.975 167.164C815.057 162.544 841.292 152.026 867.68 144.162C901.433 134.135 938.407 131.481 972.467 139.345C1012.82 148.782 1031.53 185.546 1073.72 192.328C1096.58 195.965 1119.6 189.674 1141.54 184.956C1193.09 173.848 1217.48 201.962 1264.58 197.243C1276.39 196.064 1287.29 191.542 1298.95 189.084C1310.91 186.529 1333.16 187.61 1330.86 197.047" stroke="white" stroke-opacity="0.16" stroke-width="1.0073" stroke-miterlimit="10" stroke-linecap="round" stroke-linejoin="round"/>
<path d="M-10.043 85.5751C18.34 108.086 54.394 124.502 95.204 131.972C124.201 137.281 156.572 137.674 186.336 132.267C212.725 127.549 237.579 118.604 258.137 105.137C295.265 80.7585 323.802 55.4956 365.839 40.2592C379.954 35.0493 395.756 31.1174 413.706 28.5616C468.478 20.5011 531.994 27.8735 570.043 55.299C593.516 72.2065 608.858 94.1272 626.348 115.556C634.94 126.173 643.992 135.708 653.811 143.867C687.87 172.275 732.516 181.122 789.895 173.258C819.966 169.129 849.423 157.039 879.033 147.995C916.775 136.592 958.965 133.938 997.321 142.785C1035.06 151.534 1053.78 184.661 1093.21 191.443C1114.53 195.08 1136.01 190.067 1156.57 186.135C1204.29 177.19 1228.22 201.961 1271.79 197.243C1282.84 196.063 1293.12 191.837 1303.86 189.379C1315.06 186.823 1335.15 187.413 1333.93 195.179" stroke="white" stroke-opacity="0.16" stroke-width="1.0073" stroke-miterlimit="10" stroke-linecap="round" stroke-linejoin="round"/>
<path d="M-7.43311 97.2727C20.7964 119.685 57.6175 134.823 98.5809 141.016C127.578 145.341 159.489 144.85 188.639 139.05C214.567 133.84 238.808 124.796 259.366 111.723C296.187 88.1309 325.491 63.4578 366.761 47.9265C380.723 42.6183 396.218 38.4897 413.708 35.4425C468.019 26.2023 530.462 31.4122 570.198 57.1666C595.052 73.2877 611.621 94.8152 629.418 116.244C638.163 126.664 647.215 136.298 656.881 144.653C690.327 173.356 734.052 184.956 790.664 179.353C824.723 176.01 857.249 161.954 890.234 151.829C932.118 138.952 979.372 136.298 1022.02 146.127C1057 154.188 1075.87 183.678 1112.39 190.559C1132.18 194.196 1151.97 190.362 1171.15 187.413C1215.03 180.63 1238.35 202.06 1278.7 197.341C1288.98 196.162 1298.49 192.328 1308.46 189.871C1318.89 187.315 1336.84 187.413 1336.54 193.508" stroke="white" stroke-opacity="0.16" stroke-width="1.0073" stroke-miterlimit="10" stroke-linecap="round" stroke-linejoin="round"/>
<path d="M-4.8252 109.069C23.2509 131.383 60.6857 145.341 101.956 150.256C130.953 153.697 162.404 152.321 191.094 145.931C216.562 140.23 240.342 130.99 260.9 118.309C297.568 95.5037 327.639 71.4203 368.142 55.4958C381.95 50.0894 397.138 45.6659 414.168 42.3238C467.866 31.8057 529.387 34.9513 570.658 59.1329C596.739 74.4676 614.536 95.6019 632.947 116.933C641.845 127.156 650.744 136.888 660.409 145.44C693.088 174.536 736.199 181.515 791.738 185.447C829.786 188.102 865.38 166.967 901.741 155.663C947.614 141.409 999.93 138.755 1047.03 149.568C1079.25 156.941 1098.27 182.793 1132.03 189.674C1150.28 193.311 1168.54 190.756 1186.34 188.691C1226.23 183.973 1249.24 202.158 1286.06 197.44C1295.42 196.26 1304.32 192.722 1313.52 190.362C1323.04 187.807 1338.99 187.413 1339.6 191.837" stroke="white" stroke-opacity="0.16" stroke-width="1.0073" stroke-miterlimit="10" stroke-linecap="round" stroke-linejoin="round"/>
<path d="M-2.0625 120.864C25.8602 143.08 64.062 155.859 105.332 159.397C134.329 161.953 165.473 159.692 193.396 152.811C218.404 146.619 241.724 137.28 262.282 124.894C298.797 102.875 329.481 79.3819 369.37 63.1625C383.025 57.5595 398.06 52.9394 414.323 49.3023C467.406 37.5064 528.008 38.4894 570.966 61.0982C598.428 75.5482 617.299 96.3877 636.17 117.719C645.068 127.843 654.12 137.477 663.632 146.324C695.544 175.715 738.348 187.02 792.659 191.64C834.543 195.178 873.359 171.98 913.095 159.496C963.11 143.768 1020.49 141.212 1071.73 153.008C1101.19 159.791 1120.37 181.908 1151.36 188.789C1168.08 192.426 1184.8 191.148 1201.07 189.87C1237.12 187.216 1259.52 202.158 1293.12 197.439C1301.71 196.161 1309.84 193.114 1318.28 190.755C1327.03 188.297 1340.83 187.216 1342.37 190.067" stroke="white" stroke-opacity="0.16" stroke-width="1.0073" stroke-miterlimit="10" stroke-linecap="round" stroke-linejoin="round"/>
<path d="M0.543457 132.562C28.3127 154.68 67.1283 166.279 108.705 168.54C137.702 170.113 168.386 167.066 195.849 159.595C220.396 153.009 243.102 143.375 263.661 131.481C300.022 110.249 331.473 87.3448 370.595 70.7322C384.096 65.0309 398.825 60.1159 414.627 56.1839C467.097 43.1101 526.932 42.0289 571.27 63.0649C599.96 76.6302 620.058 97.1747 639.543 118.407C648.595 128.434 657.646 138.067 667.005 147.012C698.303 176.699 740.341 192.722 793.578 197.637C839.297 201.765 881.335 176.895 924.293 163.232C978.45 146.128 1040.74 143.572 1096.43 156.253C1123.13 162.347 1142.46 180.827 1170.69 187.708C1185.88 191.345 1201.06 191.247 1215.95 190.952C1248.01 190.362 1270.1 201.962 1300.17 197.342C1308 196.064 1315.36 193.311 1323.03 190.952C1331.01 188.495 1342.67 186.922 1345.28 188.102" stroke="white" stroke-opacity="0.16" stroke-width="1.0073" stroke-miterlimit="10" stroke-linecap="round" stroke-linejoin="round"/>
<path d="M3.15137 144.358C30.6138 166.377 70.3498 176.796 111.927 177.681C140.924 178.369 171.148 174.437 198.15 166.475C222.237 159.398 244.483 149.666 265.041 138.067C301.095 117.62 333.314 95.2081 371.823 78.3006C385.17 72.4027 399.592 67.2911 414.934 63.0643C466.79 48.6143 525.704 45.4687 571.73 64.9319C601.801 77.7108 622.973 97.8622 642.918 119.095C652.123 128.925 661.022 138.656 670.38 147.798C700.911 177.779 741.874 198.816 794.651 203.632C844.36 208.252 889.466 181.711 935.799 166.967C993.946 148.388 1061.45 145.931 1121.44 159.594C1145.53 165.001 1164.86 179.942 1190.32 186.725C1203.83 190.362 1217.48 191.443 1230.98 192.131C1259.21 193.507 1280.84 201.961 1307.54 197.341C1314.44 196.063 1321.19 193.704 1328.1 191.345C1335.31 188.887 1344.82 186.823 1348.35 186.43" stroke="white" stroke-opacity="0.16" stroke-width="1.0073" stroke-miterlimit="10" stroke-linecap="round" stroke-linejoin="round"/>
<path d="M5.76123 156.153C33.0702 178.074 73.42 187.216 115.304 186.921C144.301 186.724 174.218 181.809 200.453 173.356C224.08 165.787 245.865 155.858 266.424 144.652C302.324 124.992 335.157 103.17 373.052 85.9676C386.092 79.9713 400.361 74.5649 415.242 70.0431C466.485 54.3153 524.632 49.0071 572.039 66.8975C603.337 78.7918 625.736 98.6482 646.295 119.881C655.653 129.514 664.552 139.344 673.757 148.683C703.521 179.057 742.95 206.876 795.727 209.825C849.731 212.872 897.599 186.823 947.307 170.8C1009.6 150.845 1082.01 148.486 1146.45 162.936C1167.77 167.753 1187.26 178.959 1209.96 185.741C1221.93 189.378 1234.05 191.639 1246.17 193.212C1270.41 196.456 1291.58 201.862 1314.9 197.242C1321.04 195.964 1327.02 193.9 1333.16 191.639C1339.45 189.182 1346.97 186.626 1351.42 184.562" stroke="white" stroke-opacity="0.16" stroke-width="1.0073" stroke-miterlimit="10" stroke-linecap="round" stroke-linejoin="round"/>
<path d="M8.36719 167.851C54.2401 204.614 139.696 202.157 202.752 180.138C265.808 158.119 315.67 121.158 374.123 93.5363C432.577 65.9142 509.287 47.7288 572.19 68.7649C619.597 84.6893 647.673 118.701 676.823 149.37C705.973 180.04 744.022 211.397 796.338 215.821C854.025 220.735 905.268 191.737 958.351 174.535C1024.63 153.106 1102.11 150.845 1170.99 166.278C1228.22 179.057 1295.42 223.979 1354.02 182.694" stroke="white" stroke-opacity="0.16" stroke-width="1.0073" stroke-miterlimit="10" stroke-linecap="round" stroke-linejoin="round"/>
<path d="M10.2104 174.83C61.6066 213.56 153.813 210.808 221.471 185.84C281.766 163.526 330.247 127.942 387.32 101.597C446.08 74.4669 522.177 59.6237 583.546 81.8393C630.186 98.9434 659.182 132.07 690.787 158.906C722.085 185.545 759.366 211.791 810.149 213.757C865.841 215.919 916.009 187.413 968.633 171.292C1033.38 151.435 1107.94 150.649 1174.37 165.983C1230.06 178.861 1302.63 225.258 1357.4 181.81" stroke="white" stroke-opacity="0.16" stroke-width="1.0073" stroke-miterlimit="10" stroke-linecap="round" stroke-linejoin="round"/>
<path d="M12.0498 181.811C68.9691 222.605 168.079 219.459 240.034 191.542C297.72 169.13 344.514 134.627 400.205 109.561C459.426 83.0198 534.909 71.3222 594.59 94.8157C640.463 112.903 670.073 145.145 704.593 168.344C738.039 190.854 774.553 212.185 823.801 211.595C877.345 210.907 926.594 183.088 978.757 168.049C1041.81 149.765 1113.61 150.551 1177.74 165.788C1231.75 178.763 1309.69 226.635 1360.78 180.926" stroke="white" stroke-opacity="0.16" stroke-width="1.0073" stroke-miterlimit="10" stroke-linecap="round" stroke-linejoin="round"/>
<path d="M13.7383 188.691C76.1807 231.451 182.195 228.207 258.598 197.046C313.677 174.634 358.936 141.114 413.247 117.424C472.775 91.3747 547.797 83.0193 605.791 107.692C650.896 126.959 680.967 158.12 718.402 177.681C753.689 196.063 789.743 212.479 837.457 209.334C888.853 205.992 937.18 178.664 988.883 164.608C1050.41 147.897 1119.29 150.158 1181.12 165.394C1233.59 178.37 1316.74 227.912 1364.15 179.942" stroke="white" stroke-opacity="0.16" stroke-width="1.0073" stroke-miterlimit="10" stroke-linecap="round" stroke-linejoin="round"/>
<path d="M15.5811 195.671C83.5467 240.397 196.465 237.055 277.164 202.749C329.788 180.336 373.359 147.898 426.29 125.485C486.277 100.026 560.533 94.9143 616.839 120.767C661.178 141.115 691.402 171.391 732.212 187.217C769.186 201.569 804.933 212.972 851.113 207.27C900.515 201.176 947.768 174.34 999.011 161.365C1058.85 146.227 1124.82 149.962 1184.34 165.1C1235.28 178.174 1323.65 229.191 1367.38 178.96" stroke="white" stroke-opacity="0.16" stroke-width="1.0073" stroke-miterlimit="10" stroke-linecap="round" stroke-linejoin="round"/>
<path d="M17.4204 202.649C90.9092 249.341 210.885 246.098 295.88 208.449C346.049 186.233 387.933 154.679 439.329 133.447C499.623 108.577 573.419 106.808 628.037 133.742C671.608 155.269 701.832 184.562 746.018 196.653C784.373 207.073 820.12 213.364 864.766 205.009C912.02 196.26 958.353 169.916 1009.29 158.022C1067.44 144.456 1130.64 149.764 1187.87 164.804C1237.27 177.976 1330.86 230.468 1370.9 178.075" stroke="white" stroke-opacity="0.16" stroke-width="1.0073" stroke-miterlimit="10" stroke-linecap="round" stroke-linejoin="round"/>
<path d="M19.2598 209.629C98.2717 258.385 225.304 255.141 314.442 214.151C362.31 192.132 402.352 161.462 452.368 141.507C513.123 117.228 586.151 118.702 639.235 146.816C682.039 169.523 711.956 198.128 759.977 206.09C799.56 212.676 835.461 213.856 878.572 202.846C923.678 191.444 968.937 165.493 1019.57 154.68C1076.02 142.589 1136.47 149.371 1191.24 164.411C1239.11 177.583 1337.91 231.648 1374.28 176.993" stroke="white" stroke-opacity="0.16" stroke-width="1.0073" stroke-miterlimit="10" stroke-linecap="round" stroke-linejoin="round"/>
<path d="M21.1025 216.509C105.638 267.232 240.035 264.283 333.008 219.753C378.574 198.029 416.929 168.146 465.41 149.469C526.625 125.877 598.887 130.596 650.436 159.791C692.474 183.677 722.237 211.791 773.787 215.526C814.597 218.574 850.651 214.347 892.228 200.683C935.186 186.626 979.525 161.069 1029.69 151.337C1084.46 140.721 1142.15 149.076 1194.62 164.116C1240.95 177.386 1345.13 233.024 1377.65 176.108" stroke="white" stroke-opacity="0.16" stroke-width="1.0073" stroke-miterlimit="10" stroke-linecap="round" stroke-linejoin="round"/>
<path d="M22.7891 223.489C112.847 276.177 254.609 273.523 351.571 225.356C394.836 203.927 431.35 174.83 478.297 157.333C539.972 134.331 611.466 142.392 661.482 172.766C702.752 197.833 732.362 222.407 787.594 224.963C829.478 226.929 865.839 214.838 905.882 198.521C946.845 181.81 990.11 156.547 1039.82 147.995C1092.75 138.853 1147.67 148.879 1197.84 163.821C1242.64 177.19 1352.03 234.302 1380.87 175.125" stroke="white" stroke-opacity="0.16" stroke-width="1.0073" stroke-miterlimit="10" stroke-linecap="round" stroke-linejoin="round"/>
<path d="M24.6304 230.468C120.212 285.123 269.491 282.96 370.135 231.058C411.098 209.924 445.925 181.712 491.338 165.394C553.627 143.08 624.201 154.385 672.682 185.841C713.031 212.087 742.795 239.709 801.555 234.499C845.127 230.665 881.181 215.429 919.536 196.457C958.505 177.19 1000.54 152.222 1049.94 144.85C1101.19 137.183 1153.35 148.88 1201.22 163.625C1244.48 177.092 1359.09 235.678 1384.25 174.34" stroke="white" stroke-opacity="0.16" stroke-width="1.0073" stroke-miterlimit="10" stroke-linecap="round" stroke-linejoin="round"/>
<path d="M26.4717 237.349C127.576 293.97 284.68 292.397 388.853 236.661C427.668 215.822 460.5 188.495 504.532 173.357C567.281 151.731 636.935 166.279 684.035 198.816C723.464 226.34 753.535 253.765 815.517 243.936C860.623 236.76 896.677 216.019 933.344 194.294C970.319 172.472 1011.28 147.701 1060.22 141.508C1109.78 135.217 1159.03 148.585 1204.75 163.33C1246.32 176.895 1366.3 236.956 1387.78 173.455" stroke="white" stroke-opacity="0.16" stroke-width="1.0073" stroke-miterlimit="10" stroke-linecap="round" stroke-linejoin="round"/>
<path d="M28.3125 244.328C134.94 303.013 300.021 302.128 407.416 242.362C444.237 221.916 475.075 195.277 517.419 181.318C580.629 160.479 649.668 178.074 695.081 211.791C733.743 240.396 764.274 267.821 829.325 253.371C876.272 242.853 912.019 216.509 946.999 192.131C981.979 167.753 1021.72 143.178 1070.35 138.165C1118.22 133.25 1164.7 148.289 1207.97 162.936C1248.01 176.501 1373.2 238.233 1391 172.373" stroke="white" stroke-opacity="0.16" stroke-width="1.0073" stroke-miterlimit="10" stroke-linecap="round" stroke-linejoin="round"/>
<path d="M8.21436 234.597C69.8897 268.019 153.197 283.255 230.982 276.276C290.203 270.968 347.736 255.928 394.989 234.892C406.342 229.78 417.082 224.374 427.821 219.066C452.369 206.778 475.535 194.393 504.225 187.512C512.817 185.447 521.408 183.973 530.307 183.186C584.464 178.271 641.384 195.867 682.807 222.506C693.547 229.387 703.826 236.071 714.259 241.969C743.562 258.582 773.94 268.903 821.654 257.796C854.332 250.128 881.948 235.285 907.877 218.771C919.537 211.3 930.736 203.534 941.936 195.867C977.837 171.391 1017.73 146.423 1065.75 139.443C1078.94 137.477 1092.14 137.084 1105.18 137.576C1126.66 138.46 1147.83 142.097 1168.85 147.111C1180.51 149.961 1192.17 153.402 1203.37 157.039C1220.55 162.642 1249.85 176.305 1279.77 186.529C1325.49 202.06 1375.04 210.612 1389.16 173.16" stroke="white" stroke-opacity="0.16" stroke-width="1.0212" stroke-miterlimit="10" stroke-linecap="round" stroke-linejoin="round"/>
<path d="M-11.7295 224.767C50.4061 258.09 136.936 274.408 214.874 265.757C275.322 259.073 333.928 243.837 382.41 227.224C393.916 223.292 404.963 219.164 415.702 215.232C440.403 206.286 462.802 197.439 490.725 193.409C499.01 192.23 507.448 191.541 516.039 191.345C569.123 190.657 626.349 208.744 670.228 233.024C681.581 239.315 692.627 245.311 703.674 250.521C734.665 265.069 766.423 273.523 813.37 261.924C846.355 253.863 874.738 238.922 901.28 222.309C913.247 214.838 924.754 206.974 936.26 199.307C972.928 174.634 1012.97 149.371 1060.38 140.328C1073.42 137.87 1086.31 136.69 1099.19 136.494C1120.52 136.002 1141.54 138.067 1162.71 141.999C1174.83 144.161 1186.64 147.307 1198.15 150.944C1216.56 156.744 1245.56 170.997 1274.71 181.81C1319.81 198.521 1369.21 209.039 1386.86 173.749" stroke="white" stroke-opacity="0.16" stroke-width="1.0351" stroke-miterlimit="10" stroke-linecap="round" stroke-linejoin="round"/>
<path d="M-31.8281 214.937C30.9211 248.162 120.519 265.463 198.764 255.338C260.439 247.277 319.967 231.844 369.829 219.753C381.489 216.903 392.842 214.15 403.735 211.693C428.435 206.09 450.221 200.782 477.223 199.602C485.201 199.307 493.333 199.307 501.617 199.897C553.627 203.436 611.314 221.916 657.493 243.935C669.46 249.735 681.427 254.945 693.087 259.466C725.612 271.95 758.751 278.438 805.238 266.544C838.53 258.09 867.527 243.05 894.683 226.438C906.956 218.967 918.923 211.103 930.737 203.337C968.171 178.566 1008.37 153.008 1055.31 141.802C1068.05 138.755 1080.94 136.985 1093.52 135.904C1114.69 134.135 1135.55 134.528 1157.03 137.28C1169.46 138.853 1181.58 141.606 1193.39 145.243C1213.03 151.239 1241.87 166.18 1270.1 177.485C1314.44 195.277 1363.69 207.859 1384.86 174.732" stroke="white" stroke-opacity="0.16" stroke-width="1.0489" stroke-miterlimit="10" stroke-linecap="round" stroke-linejoin="round"/>
<path d="M-51.7734 205.204C11.5895 238.233 104.409 256.713 182.808 244.917C245.71 235.481 306.005 219.753 357.401 212.184C369.214 210.414 380.721 209.038 391.921 207.957C416.468 205.696 437.794 203.926 464.029 205.696C471.7 206.187 479.678 206.974 487.656 208.252C538.591 216.116 596.738 234.891 645.219 254.747C657.953 259.957 670.534 264.479 682.961 268.312C717.02 278.83 751.54 283.352 797.566 271.065C831.166 262.12 860.776 247.08 888.699 230.369C901.279 222.8 913.553 214.936 925.673 207.072C963.875 182.202 1004.38 156.251 1050.71 143.079C1063.29 139.442 1075.87 137.083 1088.3 135.215C1109.16 132.07 1130.03 130.89 1151.66 132.463C1164.4 133.348 1176.82 135.903 1188.94 139.442C1209.81 145.635 1238.35 161.166 1265.81 173.159C1309.38 192.131 1358.63 206.679 1383.33 175.616" stroke="white" stroke-opacity="0.16" stroke-width="1.0628" stroke-miterlimit="10" stroke-linecap="round" stroke-linejoin="round"/>
<path d="M-71.8701 195.375C-8.0469 228.305 87.9948 247.769 166.546 234.4C230.677 223.587 291.585 207.564 344.822 204.615C356.789 203.927 368.295 203.829 379.955 204.32C404.196 205.205 425.215 207.171 450.683 211.791C458.047 213.167 465.718 214.642 473.542 216.608C523.404 228.699 581.858 247.867 632.64 265.462C645.988 270.082 659.335 273.916 672.53 277.062C708.123 285.515 744.024 288.071 789.59 275.489C823.496 266.15 853.72 251.012 882.41 234.203C895.297 226.634 907.878 218.77 920.305 210.808C959.427 185.84 999.93 159.594 1045.65 144.259C1057.92 140.131 1070.35 136.985 1082.62 134.331C1103.34 129.809 1124.05 127.057 1145.83 127.45C1159.03 127.647 1171.76 129.908 1184.04 133.447C1206.13 139.836 1234.51 156.055 1261.05 168.539C1303.86 188.592 1353.11 205.205 1381.18 176.305" stroke="white" stroke-opacity="0.16" stroke-width="1.0767" stroke-miterlimit="10" stroke-linecap="round" stroke-linejoin="round"/>
<path d="M-91.9697 185.643C-27.5328 218.475 71.5773 238.921 150.436 224.078C215.793 211.791 277.469 195.375 332.24 197.144C344.36 197.538 356.02 198.717 367.834 200.683C391.921 204.713 412.479 210.316 437.027 217.885C444.237 220.048 451.602 222.407 459.119 224.963C507.907 241.477 566.821 260.842 619.905 276.177C634.019 280.207 647.981 283.353 661.942 285.81C699.07 292.298 736.352 292.789 781.304 279.814C815.363 269.984 846.355 254.846 875.658 238.037C888.852 230.468 901.74 222.506 914.474 214.543C954.363 189.477 995.173 162.838 1040.28 145.439C1052.4 140.721 1064.52 136.887 1076.64 133.446C1097.04 127.549 1117.76 123.125 1139.7 122.437C1153.2 122.044 1166.24 123.911 1178.82 127.45C1202.29 134.036 1230.21 150.944 1255.99 163.919C1298.03 185.152 1347.12 203.73 1378.88 176.895" stroke="white" stroke-opacity="0.16" stroke-width="1.0906" stroke-miterlimit="10" stroke-linecap="round" stroke-linejoin="round"/>
<path d="M-111.916 175.814C-46.8649 208.449 55.3136 229.878 134.479 213.56C200.91 199.799 263.506 182.989 319.812 189.575C332.085 191.05 343.899 193.409 356.019 197.046C379.953 204.124 400.051 213.462 423.831 223.98C430.735 227.027 437.793 230.075 445.157 233.319C492.871 254.158 552.245 273.818 607.63 286.892C622.358 290.332 637.087 292.888 651.662 294.559C690.324 299.081 728.986 297.508 773.478 284.238C807.845 273.916 839.603 258.778 869.52 241.871C883.021 234.302 896.215 226.339 909.256 218.279C949.913 193.114 990.876 166.18 1035.37 146.717C1047.34 141.507 1059.15 136.985 1070.96 132.758C1091.21 125.583 1111.77 119.39 1133.86 117.62C1147.67 116.441 1161.02 118.112 1173.91 121.651C1198.61 128.433 1226.22 145.931 1251.23 159.594C1292.5 182.006 1341.6 202.551 1376.73 177.878" stroke="white" stroke-opacity="0.16" stroke-width="1.1045" stroke-miterlimit="10" stroke-linecap="round" stroke-linejoin="round"/>
<path d="M-132.012 166.082C-66.3479 198.619 39.0525 221.031 118.218 203.141C185.877 187.904 249.239 170.604 307.233 182.006C319.66 184.464 331.78 188.199 344.054 193.311C367.988 203.337 387.472 216.509 410.485 230.075C417.082 233.908 423.986 237.742 431.044 241.674C477.53 266.937 537.518 286.793 595.204 297.606C610.546 300.457 626.042 302.325 641.384 303.308C681.58 305.863 721.623 302.226 765.655 288.661C800.328 277.946 832.7 262.71 863.385 245.803C877.193 238.135 890.694 230.173 904.195 222.014C945.618 196.751 986.889 169.522 1030.77 147.896C1042.43 142.097 1054.24 136.887 1065.75 131.874C1085.85 123.322 1106.1 115.458 1128.5 112.607C1142.61 110.739 1156.27 112.214 1169.46 115.654C1195.39 122.634 1222.85 140.819 1246.94 154.974C1287.44 178.664 1336.38 200.978 1375.04 178.467" stroke="white" stroke-opacity="0.16" stroke-width="1.1184" stroke-miterlimit="10" stroke-linecap="round" stroke-linejoin="round"/>
<path d="M-151.958 156.252C-85.8335 188.691 22.7887 211.988 102.261 192.721C171.147 176.01 235.43 158.218 294.804 174.536C307.385 177.976 319.812 182.99 332.239 189.674C356.326 202.748 375.044 219.753 397.136 236.169C403.427 240.888 410.024 245.508 416.928 250.03C462.187 279.618 522.788 299.769 582.776 308.321C598.885 310.582 614.995 311.86 631.104 312.056C672.834 312.745 714.258 306.945 757.83 292.986C792.81 281.78 825.795 266.544 857.093 249.538C871.208 241.871 885.169 233.909 898.824 225.651C941.015 200.29 982.592 172.766 1025.7 148.978C1037.21 142.687 1048.72 136.789 1060.07 130.989C1079.86 121.061 1100.11 111.526 1122.67 107.594C1137.24 105.038 1151.05 106.218 1164.55 109.658C1191.7 116.736 1218.86 135.708 1242.18 150.354C1281.76 175.224 1330.86 199.504 1373.05 179.156" stroke="white" stroke-opacity="0.16" stroke-width="1.1323" stroke-miterlimit="10" stroke-linecap="round" stroke-linejoin="round"/>
<path d="M-172.054 146.52C-105.316 178.861 6.22123 202.944 86.1537 182.301C156.114 164.018 221.471 145.734 282.226 167.065C295.113 171.587 307.694 177.779 320.274 186.135C344.515 202.256 362.619 222.997 383.791 242.362C389.928 247.867 396.218 253.273 402.815 258.483C446.847 292.495 508.062 312.744 570.198 319.134C586.921 320.805 603.797 321.395 620.673 320.903C663.938 319.724 706.743 311.761 749.854 297.508C784.987 285.81 818.74 270.574 850.805 253.47C865.227 245.803 879.495 237.742 893.456 229.485C936.567 204.025 978.298 176.207 1020.8 150.354C1032 143.571 1043.35 136.887 1054.55 130.301C1074.03 118.898 1094.28 107.79 1116.99 102.777C1131.87 99.5333 1146.14 100.418 1159.8 103.858C1188.18 111.133 1215.03 130.792 1237.58 146.029C1276.4 172.078 1325.49 198.324 1371.06 180.04" stroke="white" stroke-opacity="0.16" stroke-width="1.1462" stroke-miterlimit="10" stroke-linecap="round" stroke-linejoin="round"/>
<path d="M-192 136.691C-124.648 168.835 -10.0425 194 70.0434 171.784C156.266 147.897 235.585 125.387 308.307 182.302C339.605 206.877 359.396 240.397 388.699 266.643C443.164 315.399 528.159 335.256 610.393 329.554C692.627 323.853 772.559 294.855 844.514 257.304C916.622 219.754 982.133 173.652 1049.02 129.515C1068.36 116.835 1088.3 103.958 1111.47 97.8631C1159.03 85.3791 1201.06 118.506 1232.98 141.606C1270.87 168.933 1319.97 197.047 1369.21 180.926" stroke="white" stroke-opacity="0.16" stroke-width="1.1601" stroke-miterlimit="10" stroke-linecap="round" stroke-linejoin="round"/>
</svg>
