<svg width="130" height="48" viewBox="0 0 130 48" fill="none" xmlns="http://www.w3.org/2000/svg">
<path d="M0 48C0 48 29.3172 45.8326 47.6834 41.9368C60.8048 39.1536 68.3008 37.7028 80.8108 32.8421C88.6656 29.7902 93.4657 28.2537 100.888 24.2526C107.556 20.6582 111.052 18.4087 116.95 13.6421C122.679 9.01188 130 0 130 0V48H0Z" fill="#16226C"/>
<path d="M0 48C0 48 16.4772 47.0293 27 46C36.7864 45.0427 42.2759 44.4602 52 43C60.8256 41.6747 65.7928 40.9576 74.5 39C83.1885 37.0466 88.0568 35.8315 96.5 33C102.242 31.0744 105.475 29.9796 111 27.5C118.734 24.029 130 17 130 17V48H0Z" fill="#F61114"/>
</svg>
