<svg width="24" height="24" viewBox="0 0 24 24" fill="none" xmlns="http://www.w3.org/2000/svg">
<path d="M3 10.4905C3 14.6228 6.36118 17.981 10.4889 17.981C12.3907 17.981 14.1302 17.2658 15.4533 16.0936L20.226 20.8673C20.3145 20.9558 20.4287 21 20.5467 21C20.6646 21 20.7789 20.9558 20.8673 20.8673C21.0442 20.6904 21.0442 20.4065 20.8673 20.2296L16.0909 15.4559C17.2629 14.1325 17.9779 12.3963 17.9779 10.4905C17.9779 6.35818 14.6167 3 10.4889 3C6.36118 3 3 6.35818 3 10.4905ZM17.0749 10.4905C17.0749 14.1214 14.1192 17.0778 10.4889 17.0778C6.85872 17.0778 3.90295 14.1214 3.90295 10.4905C3.90295 6.85951 6.85872 3.90313 10.4889 3.90313C14.1192 3.90313 17.0749 6.85583 17.0749 10.4905Z" fill="#16226C"/>
</svg>
