<svg width="76" height="40" viewBox="0 0 76 40" fill="none" xmlns="http://www.w3.org/2000/svg">
<circle cx="20" cy="20" r="20" fill="#F61114"/>
<path d="M31.9141 26H28.9141V20.875H24.4844V26H21.4844V14.3672H24.4844V18.625H28.9141V14.3672H31.9141V26ZM40.0469 23.7109V21.8828C39.6667 21.9141 39.2552 21.9583 38.8125 22.0156C38.3698 22.0677 38.0339 22.1302 37.8047 22.2031C37.5234 22.2917 37.3073 22.4219 37.1562 22.5938C37.0104 22.7604 36.9375 22.9818 36.9375 23.2578C36.9375 23.4401 36.9531 23.5885 36.9844 23.7031C37.0156 23.8177 37.0938 23.9271 37.2188 24.0312C37.3385 24.1354 37.4818 24.2135 37.6484 24.2656C37.8151 24.3125 38.0755 24.3359 38.4297 24.3359C38.7109 24.3359 38.9948 24.2786 39.2812 24.1641C39.5729 24.0495 39.8281 23.8984 40.0469 23.7109ZM40.0469 25.0703C39.8958 25.1849 39.7083 25.3229 39.4844 25.4844C39.2604 25.6458 39.0495 25.7734 38.8516 25.8672C38.5755 25.9922 38.2891 26.0833 37.9922 26.1406C37.6953 26.2031 37.3698 26.2344 37.0156 26.2344C36.1823 26.2344 35.4844 25.9766 34.9219 25.4609C34.3594 24.9453 34.0781 24.2865 34.0781 23.4844C34.0781 22.8438 34.2214 22.3203 34.5078 21.9141C34.7943 21.5078 35.2005 21.1875 35.7266 20.9531C36.2474 20.7188 36.8932 20.5521 37.6641 20.4531C38.4349 20.3542 39.2344 20.2812 40.0625 20.2344V20.1875C40.0625 19.7031 39.8646 19.3698 39.4688 19.1875C39.0729 19 38.4896 18.9062 37.7188 18.9062C37.2552 18.9062 36.7604 18.9896 36.2344 19.1562C35.7083 19.3177 35.3307 19.4427 35.1016 19.5312H34.8438V17.4141C35.1406 17.3359 35.6224 17.2448 36.2891 17.1406C36.9609 17.0312 37.6328 16.9766 38.3047 16.9766C39.9036 16.9766 41.0573 17.224 41.7656 17.7188C42.4792 18.2083 42.8359 18.9792 42.8359 20.0312V26H40.0469V25.0703ZM54.2891 26H51.5625V20.6328L47.75 26H45.4219V17.2266H48.1484V22.0312L51.6797 17.2266H54.2891V26ZM53.3203 13.3359C53.3203 14.1849 53.0286 14.8776 52.4453 15.4141C51.8672 15.9505 51.0078 16.2188 49.8672 16.2188C48.7318 16.2188 47.8724 15.9505 47.2891 15.4141C46.7057 14.8724 46.4141 14.1797 46.4141 13.3359H48.5859C48.5964 13.8516 48.6953 14.237 48.8828 14.4922C49.0703 14.7422 49.3984 14.8672 49.8672 14.8672C50.3411 14.8672 50.6693 14.7448 50.8516 14.5C51.0391 14.25 51.138 13.862 51.1484 13.3359H53.3203ZM64.1094 19.1328H61.3125V26H58.5V19.1328H55.7031V17.2266H64.1094V19.1328ZM74.3828 26H71.6562V20.6328L67.8438 26H65.5156V17.2266H68.2422V22.0312L71.7734 17.2266H74.3828V26Z" fill="#1C2561"/>
</svg>
