<svg width="1365" height="332" viewBox="0 0 1365 332" fill="none" xmlns="http://www.w3.org/2000/svg">
<path d="M-47.4746 38.4896C-18.3246 61.4916 14.8144 82.7242 55.0108 95.3065C109.475 112.312 181.89 110.74 225.615 78.8906C275.937 42.225 304.934 5.65762 385.787 0.939258C442.86 -2.40292 510.518 13.5216 541.816 47.5331C560.38 67.6845 570.659 91.178 586.155 112.607C623.13 164.116 685.879 176.403 759.367 148.88C794.501 135.708 834.237 120.569 871.212 129.318C919.693 140.819 938.103 188.494 988.579 195.277C1016.19 199.012 1043.66 188.887 1070.05 181.515C1132.95 164.018 1159.18 202.158 1216.26 197.341C1230.52 196.162 1243.56 190.657 1257.53 188.101C1271.95 185.447 1300.33 188.101 1295.42 202.551" stroke="#16226C" stroke-opacity="0.05" stroke-width="1.0073" stroke-miterlimit="10" stroke-linecap="round" stroke-linejoin="round"/>
<path d="M-44.8667 50.2857C-15.8701 73.1894 18.036 93.2424 58.3858 104.449C87.3824 112.509 120.982 115.458 152.433 111.723C180.202 108.381 206.591 99.9268 227.149 85.3785C264.891 58.5428 291.279 31.7071 335.311 17.4537C349.886 12.7354 366.609 9.39316 386.093 7.82037C442.552 3.29861 509.137 17.1588 542.276 49.4993C562.068 68.8642 573.574 91.9646 589.53 113.394C597.661 124.403 606.867 133.84 617.146 141.507C653.507 168.835 701.681 172.078 760.441 155.073C779.005 149.666 798.643 142.195 818.281 136.691C843.749 129.515 870.751 126.861 896.066 132.759C941.939 143.67 960.349 187.61 1008.06 194.392C1034.14 198.128 1060.07 189.183 1085.08 182.695C1144.3 167.262 1169.77 202.158 1223.62 197.341C1237.12 196.162 1249.39 190.952 1262.59 188.396C1276.24 185.84 1302.48 187.905 1298.49 200.684" stroke="#16226C" stroke-opacity="0.05" stroke-width="1.0073" stroke-miterlimit="10" stroke-linecap="round" stroke-linejoin="round"/>
<path d="M-42.2607 61.9837C-13.571 84.7892 21.1022 103.564 61.6054 113.591C90.602 120.767 123.741 122.831 154.732 118.604C182.041 114.869 207.816 106.218 228.374 92.0633C265.809 66.1123 292.965 39.7681 336.383 25.1215C350.804 20.2066 367.22 16.6678 386.245 14.8001C442.09 9.19706 507.754 20.7964 542.427 51.4657C563.446 70.0443 576.18 92.7514 592.75 114.181C601.034 125.092 610.24 134.529 620.212 142.294C655.959 169.916 702.292 174.536 761.053 161.168C783.299 156.056 806.312 147.209 829.325 140.525C858.936 131.973 891.001 129.22 920.611 136.2C963.722 146.325 982.286 186.726 1027.24 193.508C1051.79 197.145 1076.18 189.576 1099.65 183.973C1155.04 170.703 1180.05 202.257 1230.37 197.44C1243.1 196.261 1254.61 191.444 1267.04 188.888C1279.92 186.332 1304.16 187.905 1300.94 199.013" stroke="#16226C" stroke-opacity="0.05" stroke-width="1.0073" stroke-miterlimit="10" stroke-linecap="round" stroke-linejoin="round"/>
<path d="M-39.6509 73.7794C-11.1145 96.4865 24.3258 113.984 64.9824 122.732C93.979 128.925 126.658 130.203 157.035 125.387C183.884 121.16 209.198 112.411 229.757 98.5508C267.038 73.3862 294.961 47.5335 337.612 32.6903C351.88 27.6771 367.989 23.9417 386.4 21.6808C441.785 14.8982 506.222 24.3349 542.736 53.4315C564.982 71.2237 579.097 93.4393 595.973 114.869C604.411 125.583 613.463 135.118 623.436 143.08C658.262 171.096 703.675 177.583 761.975 167.164C788.057 162.544 814.292 152.026 840.68 144.162C874.433 134.135 911.407 131.481 945.467 139.345C985.816 148.782 1004.53 185.546 1046.72 192.328C1069.58 195.965 1092.6 189.674 1114.54 184.956C1166.09 173.848 1190.48 201.962 1237.58 197.243C1249.39 196.064 1260.29 191.542 1271.95 189.084C1283.91 186.529 1306.16 187.61 1303.86 197.047" stroke="#16226C" stroke-opacity="0.05" stroke-width="1.0073" stroke-miterlimit="10" stroke-linecap="round" stroke-linejoin="round"/>
<path d="M-37.043 85.575C-8.66004 108.086 27.394 124.502 68.204 131.972C97.2006 137.28 129.572 137.674 159.336 132.267C185.725 127.549 210.579 118.604 231.137 105.137C268.265 80.7584 296.802 55.4955 338.839 40.2591C352.954 35.0492 368.756 31.1173 386.706 28.5615C441.478 20.5009 504.994 27.8734 543.043 55.2989C566.516 72.2063 581.858 94.1271 599.348 115.556C607.94 126.173 616.992 135.708 626.811 143.866C660.87 172.275 705.516 181.122 762.895 173.258C792.966 169.129 822.423 157.039 852.033 147.995C889.775 136.592 931.965 133.938 970.321 142.785C1008.06 151.534 1026.78 184.661 1066.21 191.443C1087.53 195.08 1109.01 190.067 1129.57 186.135C1177.29 177.19 1201.22 201.961 1244.79 197.243C1255.84 196.063 1266.12 191.836 1276.86 189.379C1288.06 186.823 1308.15 187.413 1306.93 195.179" stroke="#16226C" stroke-opacity="0.05" stroke-width="1.0073" stroke-miterlimit="10" stroke-linecap="round" stroke-linejoin="round"/>
<path d="M-34.4331 97.2728C-6.2036 119.685 30.6175 134.823 71.5809 141.016C100.578 145.341 132.489 144.85 161.639 139.05C187.567 133.84 211.808 124.797 232.366 111.723C269.187 88.131 298.491 63.4579 339.761 47.9266C353.723 42.6184 369.218 38.4899 386.708 35.4426C441.019 26.2025 503.462 31.4123 543.198 57.1667C568.052 73.2878 584.621 94.8154 602.418 116.245C611.163 126.664 620.215 136.298 629.881 144.653C663.327 173.356 707.052 184.956 763.664 179.353C797.723 176.011 830.249 161.954 863.234 151.829C905.118 138.952 952.372 136.298 995.023 146.128C1030 154.188 1048.87 183.678 1085.39 190.559C1105.18 194.196 1124.97 190.362 1144.15 187.413C1188.03 180.631 1211.35 202.06 1251.7 197.341C1261.98 196.162 1271.49 192.328 1281.46 189.871C1291.89 187.315 1309.84 187.413 1309.54 193.508" stroke="#16226C" stroke-opacity="0.05" stroke-width="1.0073" stroke-miterlimit="10" stroke-linecap="round" stroke-linejoin="round"/>
<path d="M-31.8252 109.069C-3.74911 131.383 33.6857 145.341 74.956 150.256C103.953 153.697 135.404 152.321 164.094 145.931C189.562 140.23 213.342 130.99 233.9 118.309C270.568 95.5037 300.639 71.4203 341.142 55.4958C354.95 50.0894 370.138 45.6659 387.168 42.3238C440.866 31.8057 502.387 34.9513 543.658 59.1329C569.739 74.4676 587.536 95.6019 605.947 116.933C614.845 127.156 623.744 136.888 633.409 145.44C666.088 174.536 709.199 181.515 764.738 185.447C802.786 188.102 838.38 166.967 874.741 155.663C920.614 141.409 972.93 138.755 1020.03 149.568C1052.25 156.941 1071.27 182.793 1105.03 189.674C1123.28 193.311 1141.54 190.756 1159.34 188.691C1199.23 183.973 1222.24 202.158 1259.06 197.44C1268.42 196.26 1277.32 192.722 1286.52 190.362C1296.04 187.807 1311.99 187.413 1312.6 191.837" stroke="#16226C" stroke-opacity="0.05" stroke-width="1.0073" stroke-miterlimit="10" stroke-linecap="round" stroke-linejoin="round"/>
<path d="M-29.0625 120.864C-1.13984 143.08 37.062 155.859 78.3323 159.397C107.329 161.953 138.473 159.692 166.396 152.811C191.404 146.619 214.724 137.28 235.282 124.894C271.797 102.875 302.481 79.3819 342.37 63.1625C356.025 57.5595 371.06 52.9394 387.323 49.3023C440.406 37.5064 501.008 38.4894 543.966 61.0982C571.428 75.5482 590.299 96.3877 609.17 117.719C618.068 127.843 627.12 137.477 636.632 146.324C668.544 175.715 711.348 187.02 765.659 191.64C807.543 195.178 846.359 171.98 886.095 159.496C936.11 143.768 993.49 141.212 1044.73 153.008C1074.19 159.791 1093.37 181.908 1124.36 188.789C1141.08 192.426 1157.8 191.148 1174.07 189.87C1210.12 187.216 1232.52 202.158 1266.12 197.439C1274.71 196.161 1282.84 193.114 1291.28 190.755C1300.03 188.297 1313.83 187.216 1315.37 190.067" stroke="#16226C" stroke-opacity="0.05" stroke-width="1.0073" stroke-miterlimit="10" stroke-linecap="round" stroke-linejoin="round"/>
<path d="M-26.4565 132.563C1.3127 154.68 40.1283 166.279 81.7054 168.54C110.702 170.113 141.386 167.066 168.849 159.595C193.396 153.009 216.102 143.376 236.661 131.481C273.022 110.249 304.473 87.3449 343.595 70.7323C357.096 65.031 371.825 60.116 387.627 56.1841C440.097 43.1103 499.932 42.029 544.27 63.065C572.96 76.6303 593.058 97.1748 612.543 118.407C621.595 128.434 630.646 138.067 640.005 147.013C671.303 176.699 713.341 192.722 766.578 197.637C812.297 201.765 854.335 176.896 897.293 163.232C951.45 146.128 1013.74 143.572 1069.43 156.253C1096.13 162.347 1115.46 180.828 1143.69 187.708C1158.88 191.346 1174.06 191.247 1188.95 190.952C1221.01 190.363 1243.1 201.962 1273.17 197.342C1281 196.064 1288.36 193.312 1296.03 190.952C1304.01 188.495 1315.67 186.922 1318.28 188.102" stroke="#16226C" stroke-opacity="0.05" stroke-width="1.0073" stroke-miterlimit="10" stroke-linecap="round" stroke-linejoin="round"/>
<path d="M-23.8486 144.358C3.61376 166.377 43.3498 176.796 84.927 177.681C113.924 178.369 144.148 174.437 171.15 166.475C195.237 159.398 217.483 149.666 238.041 138.067C274.095 117.62 306.314 95.2081 344.823 78.3006C358.17 72.4027 372.592 67.2911 387.934 63.0643C439.79 48.6143 498.704 45.4687 544.73 64.9319C574.801 77.7108 595.973 97.8622 615.918 119.095C625.123 128.925 634.022 138.656 643.38 147.798C673.911 177.779 714.874 198.816 767.651 203.632C817.36 208.252 862.466 181.711 908.799 166.967C966.946 148.388 1034.45 145.931 1094.44 159.594C1118.53 165.001 1137.86 179.942 1163.32 186.725C1176.83 190.362 1190.48 191.443 1203.98 192.131C1232.21 193.507 1253.84 201.961 1280.54 197.341C1287.44 196.063 1294.19 193.704 1301.1 191.345C1308.31 188.887 1317.82 186.823 1321.35 186.43" stroke="#16226C" stroke-opacity="0.05" stroke-width="1.0073" stroke-miterlimit="10" stroke-linecap="round" stroke-linejoin="round"/>
<path d="M-21.2388 156.153C6.0702 178.074 46.42 187.216 88.304 186.921C117.301 186.724 147.218 181.809 173.453 173.356C197.08 165.787 218.865 155.858 239.424 144.652C275.324 124.993 308.157 103.17 346.052 85.9677C359.092 79.9715 373.361 74.565 388.242 70.0433C439.485 54.3154 497.632 49.0072 545.039 66.8977C576.337 78.7919 598.736 98.6483 619.295 119.881C628.653 129.514 637.552 139.344 646.757 148.683C676.521 179.057 715.95 206.876 768.727 209.825C822.731 212.872 870.599 186.823 920.307 170.8C982.596 150.845 1055.01 148.486 1119.45 162.936C1140.77 167.753 1160.26 178.959 1182.96 185.741C1194.93 189.379 1207.05 191.639 1219.17 193.212C1243.41 196.456 1264.58 201.863 1287.9 197.242C1294.04 195.965 1300.02 193.9 1306.16 191.639C1312.45 189.182 1319.97 186.626 1324.42 184.562" stroke="#16226C" stroke-opacity="0.05" stroke-width="1.0073" stroke-miterlimit="10" stroke-linecap="round" stroke-linejoin="round"/>
<path d="M-18.6328 167.851C27.2401 204.614 112.696 202.157 175.752 180.138C238.808 158.119 288.67 121.158 347.123 93.5363C405.577 65.9142 482.287 47.7288 545.19 68.7649C592.597 84.6893 620.673 118.701 649.823 149.37C678.973 180.04 717.022 211.397 769.338 215.821C827.025 220.735 878.268 191.737 931.351 174.535C997.629 153.106 1075.11 150.845 1143.99 166.278C1201.22 179.057 1268.42 223.979 1327.02 182.694" stroke="#16226C" stroke-opacity="0.05" stroke-width="1.0073" stroke-miterlimit="10" stroke-linecap="round" stroke-linejoin="round"/>
<path d="M-16.7896 174.831C34.6066 213.56 126.813 210.808 194.471 185.84C254.766 163.526 303.247 127.942 360.32 101.598C419.08 74.467 495.177 59.6238 556.546 81.8394C603.186 98.9435 632.182 132.07 663.787 158.906C695.085 185.545 732.366 211.791 783.149 213.757C838.841 215.92 889.009 187.413 941.633 171.292C1006.38 151.435 1080.94 150.649 1147.37 165.984C1203.06 178.861 1275.63 225.258 1330.4 181.81" stroke="#16226C" stroke-opacity="0.05" stroke-width="1.0073" stroke-miterlimit="10" stroke-linecap="round" stroke-linejoin="round"/>
<path d="M-14.9502 181.81C41.9691 222.605 141.079 219.459 213.034 191.542C270.72 169.13 317.514 134.627 373.205 109.56C432.426 83.0197 507.909 71.3221 567.59 94.8156C613.463 112.903 643.073 145.145 677.593 168.343C711.039 190.854 747.553 212.185 796.801 211.595C850.345 210.907 899.594 183.088 951.757 168.049C1014.81 149.765 1086.61 150.551 1150.74 165.788C1204.75 178.763 1282.69 226.635 1333.78 180.926" stroke="#16226C" stroke-opacity="0.05" stroke-width="1.0073" stroke-miterlimit="10" stroke-linecap="round" stroke-linejoin="round"/>
<path d="M-13.2617 188.691C49.1807 231.451 155.195 228.207 231.598 197.046C286.677 174.634 331.936 141.114 386.247 117.424C445.775 91.3747 520.797 83.0193 578.791 107.692C623.896 126.959 653.967 158.12 691.402 177.681C726.689 196.063 762.743 212.479 810.457 209.334C861.853 205.992 910.18 178.664 961.883 164.608C1023.41 147.897 1092.29 150.158 1154.12 165.394C1206.59 178.37 1289.74 227.912 1337.15 179.942" stroke="#16226C" stroke-opacity="0.05" stroke-width="1.0073" stroke-miterlimit="10" stroke-linecap="round" stroke-linejoin="round"/>
<path d="M-11.4189 195.671C56.5467 240.397 169.465 237.055 250.164 202.748C302.788 180.336 346.359 147.897 399.29 125.485C459.277 100.026 533.533 94.9142 589.839 120.767C634.178 141.115 664.402 171.391 705.212 187.217C742.186 201.569 777.933 212.972 824.113 207.27C873.515 201.176 920.768 174.34 972.011 161.364C1031.85 146.226 1097.82 149.962 1157.34 165.1C1208.28 178.174 1296.65 229.191 1340.38 178.96" stroke="#16226C" stroke-opacity="0.05" stroke-width="1.0073" stroke-miterlimit="10" stroke-linecap="round" stroke-linejoin="round"/>
<path d="M-9.57959 202.649C63.9092 249.342 183.885 246.098 268.88 208.449C319.049 186.233 360.933 154.679 412.329 133.447C472.623 108.577 546.419 106.808 601.037 133.742C644.608 155.269 674.832 184.562 719.018 196.653C757.373 207.073 793.12 213.364 837.766 205.009C885.02 196.26 931.353 169.916 982.289 158.022C1040.44 144.456 1103.64 149.764 1160.87 164.804C1210.27 177.976 1303.86 230.468 1343.9 178.075" stroke="#16226C" stroke-opacity="0.05" stroke-width="1.0073" stroke-miterlimit="10" stroke-linecap="round" stroke-linejoin="round"/>
<path d="M-7.74023 209.629C71.2717 258.385 198.304 255.141 287.442 214.151C335.31 192.132 375.352 161.462 425.368 141.507C486.123 117.228 559.151 118.702 612.235 146.816C655.039 169.523 684.956 198.128 732.977 206.09C772.56 212.676 808.461 213.856 851.572 202.846C896.678 191.444 941.937 165.493 992.566 154.68C1049.02 142.589 1109.47 149.371 1164.24 164.411C1212.11 177.583 1310.91 231.648 1347.28 176.993" stroke="#16226C" stroke-opacity="0.05" stroke-width="1.0073" stroke-miterlimit="10" stroke-linecap="round" stroke-linejoin="round"/>
<path d="M-5.89746 216.509C78.6376 267.232 213.035 264.283 306.008 219.753C351.574 198.029 389.929 168.146 438.41 149.469C499.625 125.877 571.887 130.596 623.436 159.791C665.474 183.677 695.237 211.791 746.787 215.526C787.597 218.574 823.651 214.347 865.228 200.683C908.186 186.626 952.525 161.069 1002.69 151.337C1057.46 140.721 1115.15 149.076 1167.62 164.116C1213.95 177.386 1318.13 233.024 1350.65 176.108" stroke="#16226C" stroke-opacity="0.05" stroke-width="1.0073" stroke-miterlimit="10" stroke-linecap="round" stroke-linejoin="round"/>
<path d="M-4.21094 223.488C85.8473 276.177 227.609 273.523 324.571 225.356C367.836 203.927 404.35 174.83 451.297 157.333C512.972 134.331 584.466 142.392 634.482 172.766C675.752 197.832 705.362 222.407 760.594 224.963C802.478 226.929 838.839 214.838 878.882 198.52C919.845 181.81 963.11 156.547 1012.82 147.995C1065.75 138.853 1120.67 148.879 1170.84 163.821C1215.64 177.19 1325.03 234.301 1353.87 175.125" stroke="#16226C" stroke-opacity="0.05" stroke-width="1.0073" stroke-miterlimit="10" stroke-linecap="round" stroke-linejoin="round"/>
<path d="M-2.36963 230.468C93.2118 285.123 242.491 282.96 343.135 231.058C384.098 209.924 418.925 181.712 464.338 165.394C526.627 143.08 597.201 154.385 645.682 185.841C686.031 212.087 715.795 239.709 774.555 234.499C818.127 230.665 854.181 215.429 892.536 196.457C931.505 177.19 973.543 152.222 1022.94 144.85C1074.19 137.183 1126.35 148.88 1174.22 163.625C1217.48 177.092 1332.09 235.678 1357.25 174.34" stroke="#16226C" stroke-opacity="0.05" stroke-width="1.0073" stroke-miterlimit="10" stroke-linecap="round" stroke-linejoin="round"/>
<path d="M-0.52832 237.349C100.576 293.97 257.68 292.397 361.853 236.661C400.668 215.822 433.5 188.495 477.532 173.357C540.281 151.731 609.935 166.279 657.035 198.816C696.464 226.34 726.535 253.765 788.517 243.936C833.623 236.76 869.677 216.019 906.344 194.294C943.319 172.472 984.282 147.701 1033.22 141.508C1082.78 135.217 1132.03 148.585 1177.75 163.33C1219.32 176.895 1339.3 236.956 1360.78 173.455" stroke="#16226C" stroke-opacity="0.05" stroke-width="1.0073" stroke-miterlimit="10" stroke-linecap="round" stroke-linejoin="round"/>
<path d="M1.3125 244.328C107.94 303.012 273.021 302.128 380.416 242.362C417.237 221.916 448.075 195.276 490.419 181.318C553.629 160.478 622.668 178.074 668.081 211.791C706.743 240.396 737.274 267.821 802.325 253.371C849.272 242.853 885.019 216.509 919.999 192.131C954.979 167.753 994.715 143.178 1043.35 138.165C1091.22 133.25 1137.7 148.289 1180.97 162.936C1221.01 176.501 1346.2 238.233 1364 172.373" stroke="#16226C" stroke-opacity="0.05" stroke-width="1.0073" stroke-miterlimit="10" stroke-linecap="round" stroke-linejoin="round"/>
<path d="M-18.7856 234.597C42.8897 268.019 126.197 283.255 203.982 276.276C263.203 270.968 320.736 255.928 367.989 234.892C379.342 229.78 390.082 224.374 400.821 219.066C425.369 206.778 448.535 194.393 477.225 187.512C485.817 185.447 494.408 183.973 503.307 183.187C557.464 178.272 614.384 195.867 655.807 222.506C666.547 229.387 676.826 236.072 687.259 241.969C716.562 258.582 746.94 268.903 794.654 257.796C827.332 250.128 854.948 235.285 880.877 218.771C892.537 211.3 903.736 203.534 914.936 195.867C950.837 171.391 990.726 146.423 1038.75 139.443C1051.94 137.477 1065.14 137.084 1078.18 137.576C1099.66 138.46 1120.83 142.097 1141.85 147.111C1153.51 149.961 1165.17 153.402 1176.37 157.039C1193.55 162.642 1222.85 176.306 1252.77 186.529C1298.49 202.06 1348.04 210.612 1362.16 173.16" stroke="#16226C" stroke-opacity="0.05" stroke-width="1.0212" stroke-miterlimit="10" stroke-linecap="round" stroke-linejoin="round"/>
<path d="M-38.7295 224.767C23.4061 258.09 109.936 274.408 187.874 265.757C248.322 259.073 306.928 243.837 355.41 227.224C366.916 223.292 377.963 219.164 388.702 215.232C413.403 206.286 435.802 197.439 463.725 193.409C472.01 192.23 480.448 191.541 489.039 191.345C542.123 190.657 599.349 208.744 643.228 233.024C654.581 239.315 665.627 245.311 676.674 250.521C707.665 265.069 739.423 273.523 786.37 261.924C819.355 253.863 847.738 238.922 874.28 222.309C886.247 214.838 897.754 206.974 909.26 199.307C945.928 174.634 985.971 149.371 1033.38 140.328C1046.42 137.87 1059.31 136.69 1072.19 136.494C1093.52 136.002 1114.54 138.067 1135.71 141.999C1147.83 144.161 1159.64 147.307 1171.15 150.944C1189.56 156.744 1218.56 170.997 1247.71 181.81C1292.81 198.521 1342.21 209.039 1359.86 173.749" stroke="#16226C" stroke-opacity="0.05" stroke-width="1.0351" stroke-miterlimit="10" stroke-linecap="round" stroke-linejoin="round"/>
<path d="M-58.8281 214.937C3.92115 248.162 93.5191 265.463 171.764 255.338C233.439 247.277 292.967 231.844 342.829 219.753C354.489 216.903 365.842 214.15 376.735 211.693C401.435 206.09 423.221 200.782 450.223 199.602C458.201 199.307 466.333 199.307 474.617 199.897C526.627 203.436 584.314 221.916 630.493 243.935C642.46 249.735 654.427 254.945 666.087 259.466C698.612 271.95 731.751 278.438 778.238 266.544C811.53 258.09 840.527 243.05 867.683 226.438C879.956 218.967 891.923 211.103 903.737 203.337C941.171 178.566 981.368 153.008 1028.31 141.802C1041.05 138.755 1053.94 136.985 1066.52 135.904C1087.69 134.135 1108.55 134.528 1130.03 137.28C1142.46 138.853 1154.58 141.606 1166.39 145.243C1186.03 151.239 1214.87 166.18 1243.1 177.485C1287.44 195.277 1336.69 207.859 1357.86 174.732" stroke="#16226C" stroke-opacity="0.05" stroke-width="1.0489" stroke-miterlimit="10" stroke-linecap="round" stroke-linejoin="round"/>
<path d="M-78.7734 205.204C-15.4105 238.233 77.4093 256.713 155.808 244.917C218.71 235.481 279.005 219.753 330.401 212.184C342.214 210.414 353.721 209.038 364.921 207.957C389.468 205.696 410.794 203.927 437.029 205.696C444.7 206.187 452.678 206.974 460.656 208.252C511.591 216.116 569.738 234.891 618.219 254.747C630.953 259.957 643.534 264.479 655.961 268.313C690.02 278.831 724.54 283.352 770.566 271.065C804.166 262.12 833.776 247.08 861.699 230.369C874.279 222.8 886.553 214.936 898.673 207.072C936.875 182.202 977.378 156.251 1023.71 143.079C1036.29 139.442 1048.87 137.083 1061.3 135.215C1082.16 132.07 1103.03 130.89 1124.66 132.463C1137.4 133.348 1149.82 135.904 1161.94 139.442C1182.81 145.635 1211.35 161.166 1238.81 173.159C1282.38 192.131 1331.63 206.679 1356.33 175.616" stroke="#16226C" stroke-opacity="0.05" stroke-width="1.0628" stroke-miterlimit="10" stroke-linecap="round" stroke-linejoin="round"/>
<path d="M-98.8701 195.375C-35.0469 228.305 60.9948 247.769 139.546 234.4C203.677 223.587 264.585 207.564 317.822 204.615C329.789 203.927 341.295 203.829 352.955 204.32C377.196 205.205 398.215 207.171 423.683 211.791C431.047 213.167 438.718 214.642 446.542 216.608C496.404 228.699 554.858 247.867 605.64 265.463C618.988 270.083 632.335 273.916 645.53 277.062C681.123 285.516 717.024 288.071 762.59 275.489C796.496 266.151 826.72 251.013 855.41 234.203C868.297 226.634 880.878 218.77 893.305 210.808C932.427 185.84 972.93 159.594 1018.65 144.26C1030.92 140.131 1043.35 136.985 1055.62 134.331C1076.34 129.81 1097.05 127.057 1118.83 127.45C1132.03 127.647 1144.76 129.908 1157.04 133.447C1179.13 139.836 1207.51 156.055 1234.05 168.539C1276.86 188.593 1326.11 205.205 1354.18 176.305" stroke="#16226C" stroke-opacity="0.05" stroke-width="1.0767" stroke-miterlimit="10" stroke-linecap="round" stroke-linejoin="round"/>
<path d="M-118.97 185.643C-54.5328 218.475 44.5773 238.921 123.436 224.078C188.793 211.791 250.469 195.375 305.24 197.144C317.36 197.537 329.02 198.717 340.834 200.683C364.921 204.713 385.479 210.316 410.027 217.885C417.237 220.048 424.602 222.407 432.119 224.963C480.907 241.477 539.821 260.842 592.905 276.177C607.019 280.207 620.981 283.353 634.942 285.81C672.07 292.298 709.352 292.789 754.304 279.814C788.363 269.984 819.355 254.846 848.658 238.037C861.852 230.468 874.74 222.505 887.474 214.543C927.363 189.477 968.173 162.838 1013.28 145.439C1025.4 140.72 1037.52 136.887 1049.64 133.446C1070.04 127.548 1090.76 123.125 1112.7 122.437C1126.2 122.044 1139.24 123.911 1151.82 127.45C1175.29 134.036 1203.21 150.944 1228.99 163.919C1271.03 185.152 1320.12 203.73 1351.88 176.895" stroke="#16226C" stroke-opacity="0.05" stroke-width="1.0906" stroke-miterlimit="10" stroke-linecap="round" stroke-linejoin="round"/>
<path d="M-138.916 175.814C-73.8649 208.449 28.3136 229.878 107.479 213.561C173.91 199.799 236.506 182.99 292.812 189.576C305.085 191.05 316.899 193.409 329.019 197.046C352.953 204.124 373.051 213.462 396.831 223.98C403.735 227.028 410.793 230.075 418.157 233.319C465.871 254.158 525.245 273.818 580.63 286.892C595.358 290.332 610.087 292.888 624.662 294.559C663.324 299.081 701.986 297.508 746.478 284.238C780.845 273.916 812.603 258.778 842.52 241.871C856.021 234.302 869.215 226.339 882.256 218.279C922.913 193.114 963.876 166.18 1008.37 146.717C1020.34 141.507 1032.15 136.985 1043.96 132.759C1064.21 125.583 1084.77 119.39 1106.86 117.621C1120.67 116.441 1134.02 118.112 1146.91 121.651C1171.61 128.433 1199.22 145.931 1224.23 159.594C1265.5 182.007 1314.6 202.551 1349.73 177.878" stroke="#16226C" stroke-opacity="0.05" stroke-width="1.1045" stroke-miterlimit="10" stroke-linecap="round" stroke-linejoin="round"/>
<path d="M-159.012 166.082C-93.3479 198.619 12.0525 221.031 91.2178 203.141C158.877 187.904 222.239 170.604 280.233 182.006C292.66 184.464 304.78 188.199 317.054 193.311C340.988 203.337 360.472 216.509 383.485 230.075C390.082 233.908 396.986 237.742 404.044 241.674C450.53 266.937 510.518 286.793 568.204 297.606C583.546 300.457 599.042 302.325 614.384 303.308C654.58 305.863 694.623 302.226 738.655 288.661C773.328 277.946 805.7 262.71 836.385 245.803C850.193 238.135 863.694 230.173 877.195 222.014C918.618 196.751 959.889 169.522 1003.77 147.896C1015.43 142.097 1027.24 136.887 1038.75 131.874C1058.85 123.322 1079.1 115.458 1101.5 112.607C1115.61 110.739 1129.27 112.214 1142.46 115.654C1168.39 122.634 1195.85 140.819 1219.94 154.974C1260.44 178.664 1309.38 200.978 1348.04 178.467" stroke="#16226C" stroke-opacity="0.05" stroke-width="1.1184" stroke-miterlimit="10" stroke-linecap="round" stroke-linejoin="round"/>
<path d="M-178.958 156.252C-112.833 188.691 -4.21127 211.988 75.2609 192.721C144.147 176.01 208.43 158.218 267.804 174.536C280.385 177.976 292.812 182.99 305.239 189.674C329.326 202.748 348.044 219.753 370.136 236.169C376.427 240.888 383.024 245.508 389.928 250.03C435.187 279.618 495.788 299.769 555.776 308.321C571.885 310.582 587.995 311.86 604.104 312.056C645.834 312.745 687.258 306.945 730.83 292.986C765.81 281.78 798.795 266.544 830.093 249.538C844.208 241.871 858.169 233.909 871.824 225.651C914.015 200.29 955.592 172.766 998.703 148.978C1010.21 142.687 1021.72 136.789 1033.07 130.989C1052.86 121.061 1073.11 111.526 1095.67 107.594C1110.24 105.038 1124.05 106.218 1137.55 109.658C1164.7 116.736 1191.86 135.708 1215.18 150.354C1254.76 175.224 1303.86 199.504 1346.05 179.156" stroke="#16226C" stroke-opacity="0.05" stroke-width="1.1323" stroke-miterlimit="10" stroke-linecap="round" stroke-linejoin="round"/>
<path d="M-199.054 146.52C-132.316 178.861 -20.7788 202.944 59.1537 182.301C129.114 164.018 194.471 145.734 255.226 167.065C268.113 171.587 280.694 177.779 293.274 186.135C317.515 202.256 335.619 222.997 356.791 242.362C362.928 247.867 369.218 253.273 375.815 258.483C419.847 292.495 481.062 312.744 543.198 319.134C559.921 320.805 576.797 321.395 593.673 320.903C636.938 319.724 679.743 311.761 722.854 297.508C757.987 285.81 791.74 270.574 823.805 253.47C838.227 245.803 852.495 237.742 866.456 229.485C909.567 204.025 951.298 176.207 993.796 150.354C1005 143.571 1016.35 136.887 1027.55 130.301C1047.03 118.898 1067.28 107.79 1089.99 102.777C1104.87 99.5333 1119.14 100.418 1132.8 103.858C1161.18 111.133 1188.03 130.792 1210.58 146.029C1249.4 172.078 1298.49 198.324 1344.06 180.04" stroke="#16226C" stroke-opacity="0.05" stroke-width="1.1462" stroke-miterlimit="10" stroke-linecap="round" stroke-linejoin="round"/>
<path d="M-219 136.691C-151.648 168.835 -37.0425 194 43.0434 171.784C129.266 147.897 208.585 125.387 281.307 182.302C312.605 206.877 332.396 240.397 361.699 266.643C416.164 315.399 501.159 335.256 583.393 329.554C665.627 323.853 745.559 294.855 817.514 257.304C889.622 219.754 955.133 173.652 1022.02 129.515C1041.36 116.835 1061.3 103.958 1084.47 97.8631C1132.03 85.3791 1174.06 118.506 1205.98 141.606C1243.87 168.933 1292.97 197.047 1342.21 180.926" stroke="#16226C" stroke-opacity="0.05" stroke-width="1.1601" stroke-miterlimit="10" stroke-linecap="round" stroke-linejoin="round"/>
</svg>
